<svg id="Layer_1" data-name="Layer 1" xmlns="http://www.w3.org/2000/svg" viewBox="0 0 400 400"><defs><style>.cls-1{fill-rule:evenodd;}</style></defs><title>logo-finals</title><path d="M303.25,126.74v79.18l6,.41V130.9C307.33,129.49,305.34,128.1,303.25,126.74Z"/><path d="M237.58,306.56a2,2,0,0,0-1.27-.35h-2.75v3.49h2.65a1.82,1.82,0,0,0,1.44-.56,1.85,1.85,0,0,0,.47-1.28A1.56,1.56,0,0,0,237.58,306.56Z"/><path d="M189.89,329.51c-1.4,0-2.09.82-2.12,2.42v7.26c0,1.61.72,2.4,2.13,2.41s2.09-.8,2.13-2.42v-7.25C192,330.33,191.29,329.54,189.89,329.51Z"/><path d="M151.2,307.33a2.23,2.23,0,0,0-2.06-1h-2v8.76h2a2.32,2.32,0,0,0,2.13-1,2,2,0,0,0,.37-1,22.74,22.74,0,0,0,.08-2.32c0-1.1,0-1.9-.08-2.37A2,2,0,0,0,151.2,307.33Z"/><path d="M223,335.37c-1.4,0-2.09.82-2.12,2.42v1.39c0,1.62.72,2.41,2.13,2.42s2.09-.8,2.13-2.42v-1.39C225.11,336.19,224.41,335.4,223,335.37Z"/><polygon points="132.72 312.31 135.8 312.31 134.26 307.51 132.72 312.31"/><path d="M199.07,201.08h.43c27.44,0,74.42,2.87,100.75,4.63V124.86l-2-1.36v81.36a3.59,3.59,0,0,0-.34-.17,6.79,6.79,0,0,0-1.65-.42c-1.33-.21-3.35-.52-8.49-4.72a39.39,39.39,0,0,0-7.92-4.65v-6.62h4c4.75,0,11.82-3.1,11.82-11.65V162a4.32,4.32,0,0,0-8.64,0v14.67c0,.72,0,2.92-3.18,3h-4V140a5.4,5.4,0,0,0-10.8,0V173h-.19c-3.43-.08-3.94-2.37-3.94-3.73V154.63a3.6,3.6,0,0,0-7.2,0V169.3c0,8,6.64,10.93,11.1,10.93h.23v10.48a155.28,155.28,0,0,0-24.45-5.8V165.23h.22c4.46,0,11.1-2.91,11.1-10.93V139.63a3.6,3.6,0,0,0-7.2,0V154.3c0,1.36-.51,3.65-3.9,3.73h-.22V125a5.4,5.4,0,0,0-10.8,0v39.68h-4c-1.19,0-3.18-.39-3.18-3V147a4.32,4.32,0,1,0-8.64,0v14.67c0,8.55,7.07,11.65,11.82,11.65h4v10.36l-.74-.07c-17.76-1.34-33.15,10-37,13.12l-4.24-12.33h5.48L188,155.56h3.8l-11.63-33.82-11.63,33.82h3.8l-9.28,28.8h5.48l-2.81,8.18c-.5-.37-1-.75-1.52-1.15s-1.28-1-1.93-1.38l-4-11.28h3.82l-6.51-19.62h2.69l-9.46-26.71-9.45,26.71h2.69L137.82,172,129,144.68h4.6l-13.23-38.49-13.23,38.49h4.6l-11.29,35h6.69l-8.61,25-.29.29V115.9l33.92-17.27-2.43-1L96.25,114.68v91.14l-3,.2V112.84l29.88-15.22-8-2.65L87.25,109.16v97.28c-5.45.38-8.73.63-8.89.64l-1.38.1v90l1.61-.12c.8-.06,80.79-6,119.89-6H199c-28.24,0-77.14,3.08-102.71,4.82v22.42l102,51.95,102-51.95V295.79l3,.21v24.16l-105,53.47-105-53.47V296.1l-6,.42v-.07L77,297.19l10.27,6.89v19.76l111,56.53,111-56.53v-21L320,297.19v-90l-1.39-.1C317.79,207,238.71,201.13,199.07,201.08ZM137.43,317.3l-1-2.87h-4.42l-1,2.87h-2.41l4.65-13.22h1.86l4.65,13.22Zm16.42-3.69a3.41,3.41,0,0,1-.22.78,6.43,6.43,0,0,1-.36.68,4.65,4.65,0,0,1-1.58,1.57,4.5,4.5,0,0,1-2.47.66h-4.41V304.08h4.54a4.36,4.36,0,0,1,4,2.27,3.92,3.92,0,0,1,.6,1.58c.06.54.1,1.47.1,2.76A19.14,19.14,0,0,1,153.85,313.61Zm8.71,3.69-4.22-13.22h2.41l2.69,9.3,2.68-9.3h2.42l-4.23,13.22Zm15.59,24.16v2.84H168.3v-2.56l0-.06,6.48-8.36a3.23,3.23,0,0,0,.48-.88,3.59,3.59,0,0,0,.08-.71,2.31,2.31,0,0,0-.54-1.55,1.91,1.91,0,0,0-1.55-.67,2,2,0,0,0-1.48.59,2.56,2.56,0,0,0-.74,1.7l0,.18h-2.76v-.21a5.55,5.55,0,0,1,1.44-3.65,4.58,4.58,0,0,1,3.36-1.45,4.88,4.88,0,0,1,3.61,1.47,5.25,5.25,0,0,1,.4,6.75L172,341.46Zm3.68-35.15h-6.05v3.27h5.16v2.12h-5.16v3.37h6.05v2.23H173.5V304.08h8.33Zm13,33a5.05,5.05,0,0,1-1.49,3.78,5,5,0,0,1-6.78,0,4.86,4.86,0,0,1-1.53-3.77v-7.56a4.85,4.85,0,0,1,1.54-3.78,4.77,4.77,0,0,1,3.35-1.32,4.89,4.89,0,0,1,3.43,1.32,5.09,5.09,0,0,1,1.48,3.79Zm2.19-22H194.9l-.06-.1-5.27-8.56v8.66h-2.28V304.08h2.08l5.34,8.67v-8.67H197ZM139.06,179.7l-2.76,7.81-2.69-7.81ZM208,344.3h-2.77V330l-2.35,1.78v-3.11l2.49-1.86H208Zm3.21-38.09h-3.4V317.3h-2.28V306.21h-3.4v-2.13h9.08Zm4.76,6.55v-8.68h2.28v8.47a2.54,2.54,0,0,0,.67,1.86,2.19,2.19,0,0,0,1.66.66,2.22,2.22,0,0,0,1.68-.66,2.57,2.57,0,0,0,.66-1.86v-8.47h2.28v8.68a4.63,4.63,0,0,1-1.33,3.35,4.79,4.79,0,0,1-6.54,0A4.4,4.4,0,0,1,215.93,312.76Zm12,26.56a5.05,5.05,0,0,1-1.49,3.78,5,5,0,0,1-6.78,0,4.86,4.86,0,0,1-1.53-3.77v-7.55a4.89,4.89,0,0,1,1.53-3.79,4.81,4.81,0,0,1,3.36-1.32,5.06,5.06,0,0,1,3.11,1,4.78,4.78,0,0,1,1.7,3l.05.24h-2.82l-.05-.13a2,2,0,0,0-2-1.31c-1.39,0-2.08.82-2.11,2.43v1.33a9.94,9.94,0,0,1,2.84-.46h.12a4,4,0,0,1,2.92,1.19,5.2,5.2,0,0,1,1.15,3.76Zm10.29-22-2.57-5.48h-2.08v5.48h-2.28V304.08h5.05a4,4,0,0,1,2.66.9,3.66,3.66,0,0,1,1.3,2.88,3.72,3.72,0,0,1-2.32,3.65l2.92,5.79Zm16.16-11h-6.05v3.27h5.16v2.12h-5.16v3.37h6.05v2.23H246V304.08h8.33Zm9.32,11.09a7.15,7.15,0,0,1-4.87-1.79l-.15-.13,1.49-1.77.15.13a5.14,5.14,0,0,0,3.4,1.23c1.49,0,2.23-.54,2.25-1.59,0-.85-.46-1.35-1.45-1.52l-1.64-.24a4.19,4.19,0,0,1-2.55-1.29,3.63,3.63,0,0,1-.91-2.5,3.8,3.8,0,0,1,1.14-2.86,4.33,4.33,0,0,1,3.1-1.09,7.08,7.08,0,0,1,4.15,1.36l.15.12-1.26,1.92-.17-.12a5.56,5.56,0,0,0-3-.95,2.1,2.1,0,0,0-1.32.41,1.5,1.5,0,0,0-.55,1.23,1.24,1.24,0,0,0,.37.87,2.21,2.21,0,0,0,1.23.57c.33.06.79.13,1.38.2a4,4,0,0,1,2.71,1.37,3.9,3.9,0,0,1,.87,2.52C268.18,316.05,266.64,317.37,263.69,317.4ZM317,294c-11.52-.85-81.69-5.88-118.5-5.88-36.12,0-106.93,5-118.5,5.88V210c10.8-.79,81.75-5.89,118.5-5.89h0c36.46,0,107.65,5.09,118.48,5.88Z"/><path d="M308.33,253.08a872,872,0,0,0-95.88-6v1.5a874,874,0,0,1,95.71,5.93Z"/><polygon points="256.75 285.82 276.15 286.84 276.34 283.15 264.13 282.51 264.58 274.03 274.71 274.56 274.89 271.27 264.75 270.74 265.11 263.89 277.32 264.53 277.49 261.26 258.09 260.24 256.75 285.82"/><polygon points="303.66 277.64 291.39 262.41 286.7 262.16 285.36 287.74 290.34 288 291.17 272.25 304.55 289.13 308 289.31 309.37 263.35 304.42 263.09 303.66 277.64"/><path d="M278.21,235.11a13.31,13.31,0,0,0,4.68,5.28,15.43,15.43,0,0,0,3.33,1.65,16.63,16.63,0,0,0,3.84.86,17.36,17.36,0,0,0,1.89.1,15.39,15.39,0,0,0,3.88-.47,14,14,0,0,0,4.88-2.26,12.85,12.85,0,0,0,3.53-3.94,13.44,13.44,0,0,0,1.7-5.4,12.4,12.4,0,0,0-.57-5.39,12.59,12.59,0,0,0-2.65-4.46,14.23,14.23,0,0,0-4.3-3.16,16.53,16.53,0,0,0-5.57-1.55,17.06,17.06,0,0,0-5.78.35,14.33,14.33,0,0,0-4.87,2.2,12.71,12.71,0,0,0-3.52,3.81,12.56,12.56,0,0,0-1.68,5.19,13.57,13.57,0,0,0,.11,3.78A12.61,12.61,0,0,0,278.21,235.11Zm6.55-6.14a17.49,17.49,0,0,1,.73-4.05,9.68,9.68,0,0,1,1.53-3,6.12,6.12,0,0,1,2.22-1.82,5.68,5.68,0,0,1,2.92-.49,5.58,5.58,0,0,1,2.78.89,6.07,6.07,0,0,1,1.94,2.11,10.09,10.09,0,0,1,1.1,3.22,17.7,17.7,0,0,1,.17,4.11,18.54,18.54,0,0,1-.75,4.17,10.65,10.65,0,0,1-1.55,3.15,6.26,6.26,0,0,1-2.23,1.92,6,6,0,0,1-5.67-.4,6.36,6.36,0,0,1-1.95-2.21,10.35,10.35,0,0,1-1.09-3.33A18.35,18.35,0,0,1,284.76,229Z"/><polygon points="242.2 273.42 229.66 258.4 224.97 258.24 224.08 283.84 229.06 284.01 229.61 268.25 243.29 284.89 246.75 285.01 247.66 259.03 242.71 258.86 242.2 273.42"/><polygon points="187.98 210.81 180.46 210.81 192.82 236.8 196.41 236.8 207.93 210.81 202.75 210.81 195.66 226.84 187.98 210.81"/><path d="M255.3,239.31a18.21,18.21,0,0,0,5.22-.7,14.09,14.09,0,0,0,4.93-2.52,12,12,0,0,0,3.19-4,12.71,12.71,0,0,0,1.28-5,11.2,11.2,0,0,0-4.11-9.58,15.46,15.46,0,0,0-5-2.69,23.8,23.8,0,0,0-6.4-1.16l-9.46-.5-1.34,25.58,10.4.55C254.46,239.3,254.89,239.31,255.3,239.31ZM251,235.44l.95-18.22,2.58.13a7.74,7.74,0,0,1,3.14.84,7.51,7.51,0,0,1,2.42,2,8.8,8.8,0,0,1,1.51,2.92,10.5,10.5,0,0,1,.41,3.63,11.5,11.5,0,0,1-.84,4,8.45,8.45,0,0,1-1.88,2.8,7.4,7.4,0,0,1-2.6,1.64,7.93,7.93,0,0,1-3.12.44Z"/><rect x="197.67" y="266.68" width="25.61" height="7.18" transform="translate(-63.42 476.01) rotate(-89)"/><polygon points="233.9 234.08 221.68 233.66 221.98 225.17 232.12 225.52 232.24 222.23 222.09 221.88 222.33 215.03 234.55 215.45 234.66 212.18 215.25 211.5 214.36 237.1 233.77 237.78 233.9 234.08"/><path d="M104.51,277a7.77,7.77,0,0,0-1.85-1.81,13.75,13.75,0,0,0-2.4-1.35c-.87-.38-1.75-.74-2.62-1.07l-2.58-1a16.6,16.6,0,0,1-2.19-1,6.37,6.37,0,0,1-1.53-1.2,2.36,2.36,0,0,1-.61-1.37,2.75,2.75,0,0,1,.08-.93,2.5,2.5,0,0,1,.48-.89,3.37,3.37,0,0,1,1-.77A5,5,0,0,1,94,265.2a5.43,5.43,0,0,1,1.93.1,4.42,4.42,0,0,1,1.43.69,5,5,0,0,1,1.07,1.13,11.45,11.45,0,0,1,.88,1.49l.18.37,5-.52-.31-.74a11.06,11.06,0,0,0-1.55-2.58,9,9,0,0,0-2.27-2,9.52,9.52,0,0,0-2.94-1.2,11.06,11.06,0,0,0-3.58-.17,14.82,14.82,0,0,0-4.07,1,9.57,9.57,0,0,0-3,1.85,6.94,6.94,0,0,0-1.75,2.55,6.37,6.37,0,0,0-.39,3,5.39,5.39,0,0,0,.91,2.57,7.62,7.62,0,0,0,1.8,1.83,12.57,12.57,0,0,0,2.34,1.32c.83.36,1.68.71,2.54,1l2.5,1a12.15,12.15,0,0,1,2.11,1,5.73,5.73,0,0,1,1.48,1.25,2.83,2.83,0,0,1,.63,1.54,2.12,2.12,0,0,1-.16,1.16,2.16,2.16,0,0,1-.67.83,3.46,3.46,0,0,1-1.1.56,6.36,6.36,0,0,1-1.36.3,5.13,5.13,0,0,1-1.83-.11,4.14,4.14,0,0,1-1.39-.65,4.41,4.41,0,0,1-1-1.11,6.6,6.6,0,0,1-.76-1.5l-.16-.44-5.3.56.19.68a9.27,9.27,0,0,0,1.3,2.81,7.47,7.47,0,0,0,2.24,2.13,9.33,9.33,0,0,0,3.14,1.19,11.22,11.22,0,0,0,2.32.22,14.94,14.94,0,0,0,1.73-.1,15.11,15.11,0,0,0,4.22-1,9.84,9.84,0,0,0,3-1.91,6.85,6.85,0,0,0,1.73-2.64,6.93,6.93,0,0,0,.36-3.08A5.06,5.06,0,0,0,104.51,277Z"/><polygon points="175.29 237.07 175.1 233.38 162.89 234.02 162.44 225.54 172.58 225 172.41 221.72 162.27 222.25 161.91 215.4 174.12 214.76 173.95 211.49 154.55 212.51 155.89 238.09 175.29 237.07"/><path d="M96.33,236.28l8.67-.92,3.73,6.31,7.41-.77-14.66-24.73-3.34.35L88.47,243.8l5.37-.56Zm3.5-9.86,3.29,5.55-5.43.57Z"/><path d="M182.55,248.73l0-1.5c-55.55,1-96,5.8-96.38,5.85l.18,1.48C86.73,254.52,127.08,249.68,182.55,248.73Z"/><path d="M120.66,233.48a12.45,12.45,0,0,0,3.38,4.07A14.47,14.47,0,0,0,129,240a17.9,17.9,0,0,0,4.93.66l1.11,0a11.84,11.84,0,0,0,3.69-.78,14.14,14.14,0,0,0,3.16-1.71,15.08,15.08,0,0,0,2.56-2.35,16.14,16.14,0,0,0,1.88-2.69l.26-.49L143,230.26l-.33.51c-.47.73-1,1.44-1.48,2.12a11.29,11.29,0,0,1-1.63,1.74,8.23,8.23,0,0,1-1.87,1.22,5.6,5.6,0,0,1-2.13.51,7.77,7.77,0,0,1-3-.43,7.57,7.57,0,0,1-2.63-1.59,8.61,8.61,0,0,1-1.92-2.75,10.88,10.88,0,0,1-.88-3.94,11.3,11.3,0,0,1,.43-4,8.34,8.34,0,0,1,1.56-2.94,7,7,0,0,1,2.37-1.85,7.73,7.73,0,0,1,2.95-.74,5.87,5.87,0,0,1,2.16.28,9.32,9.32,0,0,1,2.08,1,10.83,10.83,0,0,1,1.9,1.52,21.2,21.2,0,0,1,1.74,1.93l.37.46,3.34-2.61-.31-.46a15.65,15.65,0,0,0-2.2-2.65,12.81,12.81,0,0,0-2.78-2,13.64,13.64,0,0,0-3.4-1.26,14.77,14.77,0,0,0-4.06-.3,17.22,17.22,0,0,0-5.89,1.3,13.87,13.87,0,0,0-4.52,3,12.71,12.71,0,0,0-2.8,4.4,13.85,13.85,0,0,0,.62,10.84Z"/><path d="M122.55,260l-11.1,26.75,5.4-.28,2.85-6.83,8.71-.46,3.39,6.5,7.44-.39-13.35-25.46Zm-1.32,16,2.46-6,3,5.72Z"/><path d="M193,270.22a8.56,8.56,0,0,0,1.87-1.52,6.24,6.24,0,0,0,1.23-1.91,5.53,5.53,0,0,0,.41-2.21,6.61,6.61,0,0,0-.7-2.91,6.32,6.32,0,0,0-2-2.29,9.66,9.66,0,0,0-3.19-1.43,15.46,15.46,0,0,0-4.32-.45l-9.78.17.45,25.61,7.2-.13-.19-11h.14l8.4,10.9,8-.14L191.43,271A11.5,11.5,0,0,0,193,270.22Zm-4.14-3.8a3.7,3.7,0,0,1-.9,1.23,4.08,4.08,0,0,1-1.42.79,5.71,5.71,0,0,1-1.83.31h-.7l-.13-7.67,1.82,0a3.54,3.54,0,0,1,1.36.25,3.3,3.3,0,0,1,1.81,1.94,4.32,4.32,0,0,1,.29,1.55A3.81,3.81,0,0,1,188.9,266.42Z"/><path d="M203.5,251.62a11.84,11.84,0,0,0,.9-1.92l-2.12-.87a9.39,9.39,0,0,1-1.44,2.86l-3.53-4.4c1.87-1,2.8-2.23,2.76-3.82a4,4,0,0,0-1-2.73,3.73,3.73,0,0,0-5.39,0,3.93,3.93,0,0,0-1,2.73,3.69,3.69,0,0,0,.43,1.69,6.28,6.28,0,0,0,1,1.56,5.56,5.56,0,0,0-3.26,5,5.2,5.2,0,0,0,1.48,3.67,5,5,0,0,0,3.79,1.58,6.11,6.11,0,0,0,2.48-.55,10.62,10.62,0,0,0,2.17-1.31l1.54,1.72H205l-2.79-3.43A11.7,11.7,0,0,0,203.5,251.62Zm-8.29-9.41a1.51,1.51,0,0,1,1.14-.46,1.64,1.64,0,0,1,1.2.46,1.68,1.68,0,0,1,.44,1.17,1.87,1.87,0,0,1-.42,1.18,4.34,4.34,0,0,1-1.62,1,4.88,4.88,0,0,1-.86-1.11,1.92,1.92,0,0,1-.37-1.08A1.56,1.56,0,0,1,195.21,242.21Zm.75,12.6a2.89,2.89,0,0,1-2.15-.92,3,3,0,0,1-.94-2.2c0-1.25.79-2.37,2.43-3.34l4,4.94A5.08,5.08,0,0,1,196,254.81Z"/><path d="M153.9,257.63l-11.09,26.75,5.4-.28,2.84-6.83,8.71-.45,3.39,6.49,7.45-.39-13.35-25.46Zm-1.32,16,2.47-6,3,5.72Z"/><path d="M340.36,141.47c-13.55-10.82-31.83-20.12-52.5-26.83,12.12,5.94,22.7,12.77,31,20.11,14.76,13.07,21.23,26.93,18.22,39-2.5,10-11.05,17.88-24.82,23v8.72c27-2.21,45.53-11.78,49-25.67C364.14,168.14,356.73,154.54,340.36,141.47Z"/><g id="plane"><path d="M161.4,49.31c6.33-2.69,13.71-.77,19.66,4.35-6.31-7.3-15.21-10.51-22.66-7.35-8.68,3.69-12.5,14.83-9.61,26.26l2.26-1C149.87,61.61,153.74,52.56,161.4,49.31Z"/><path d="M176.49,53.56a32,32,0,0,1,3.49,5l.81-.36A29.86,29.86,0,0,0,176.49,53.56Z"/><path d="M150.32,111a.75.75,0,0,0,.69.46.75.75,0,0,0,.69-1l-6.55-15.57-1.4.55Z"/><path d="M157.83,105a.73.73,0,0,0,.68.44.7.7,0,0,0,.31-.07.75.75,0,0,0,.37-1l-5.87-12.72-1.4.54Z"/><path d="M244,74.72a.75.75,0,1,0,1.5,0V55.24l-1.5.61Z"/><path d="M256.76,73.15a.76.76,0,0,0,.68.82h.07a.76.76,0,0,0,.75-.68l2.19-24.1-1.57.64Z"/><path d="M205.72,76.68l3.82-7.09-2.16.86-3.14,5.83Z"/><path d="M203.86,76.17l-.55-4.11-1.44.56.42,3.12Z"/><path d="M175.51,74.91V68.37l8.58,2.36a32.76,32.76,0,0,0-2.34-8.66A34.89,34.89,0,0,0,180,58.56c-11,4.92-20.72,9.27-28.93,13a32.85,32.85,0,0,0,7.63,17.36,31.15,31.15,0,0,1-8.26-11.5,33.49,33.49,0,0,1-1.63-4.83l-7.41,3.37c-24.65,11.28-24.74,11.77-24.94,12.84l-.14.81.76.75.24.12c1.56.7,14.15,6.32,21.28,6.32a9.38,9.38,0,0,0,2.21-.23l.18-.06,2.78-1.08-5.43-12.9a.75.75,0,0,1,1.38-.58l5.45,12.93,6.77-2.64-3.09-6.69a.74.74,0,0,1,.36-1,.75.75,0,0,1,1,.36l3.13,6.78,2.56-1c-.61-.59-1.2-1.21-1.77-1.87a24.89,24.89,0,0,0,2.2,1.7c7.37-2.88,16.9-6.61,27.49-10.77,0-.21.06-.42.1-.63Zm-6.26,2.25c-1.69.52-3.63-.91-4.33-3.18s.11-4.55,1.81-5.07,3.63.91,4.33,3.19S171,76.65,169.25,77.16Z"/><path d="M292.78,32.34c-4.2-3.81-17.44-15.3-22.33-13.67l-.13,0c-.38.16-38.58,16.86-76.35,33.62q-6.89,3-13.18,5.86a32.69,32.69,0,0,1,4,6.87,32.36,32.36,0,0,1,2,6.39l10.67,2.93,4.48-1.77-2.11-15.8a.75.75,0,0,1,.65-.84.74.74,0,0,1,.84.64l2.06,15.44,4.07-1.61,6-11.09a.75.75,0,0,1,1.32.71l-5.13,9.52,7.16-2.84q15.09-6,27.31-10.9V37.22a.75.75,0,0,1,1.5,0v18q7.22-2.9,13.37-5.41l.88-9.68a.75.75,0,1,1,1.49.14l-.8,8.9q4.49-1.83,8.36-3.44c24.57-10.17,24.59-10.71,24.65-12v-1Z"/><path d="M273.12,87.35c-.63-.28-6.28-2.72-10.05-1.56-1.81.55-3.46,2.33-5.21,4.22-1.21,1.3-3.46,3.73-4.18,3.37-2.92-1.46-17.75-10.36-17.9-10.45l-.18-.1-14.13-3.89c-.28-3-2.14-5.22-4.46-5.22a4.39,4.39,0,0,0-3.89,2.93l-39.61-10.9v10.4l10,5s0-.06,0-.09l.15-.58.12-.53c0-.06,0-.12,0-.19s.1-.42.15-.61l-8.44-4.22V68.37l39,10.73.1-.53c.33-1.68,1.31-2.85,2.4-2.85,1.35,0,2.5,1.83,2.5,4,0,.12,0,.23,0,.35l0,.4,15.45,4.28c1.52.92,15,9,17.85,10.42,1.92,1,3.84-.88,6.54-3.8,1.5-1.61,3.05-3.28,4.34-3.67,2.4-.74,6.18.52,7.7,1.09L272,89v15.55l-69.94-16.4-14.95-7.47c-.08.7-.2,1.39-.34,2.06l14.56,7.28,72.67,17V87.75Z"/><path class="cls-1" d="M171.14,97.36h0l2.63-1Z"/><path class="cls-1" d="M289.63,67.48c-2.54-1.68-14.35-9.25-19.28-7.6C270,60,235.19,73,200.76,86l-2.4.91-11.23-6.24c-.86,7.08-4.51,13-10.37,15.45a15.28,15.28,0,0,1-5.62,1.2c-7,2.7-13.12,5.08-18.33,7.13-22.58,8.9-22.68,9.35-22.91,10.44l-.17.84.82.81.31.11c4.34,1.58,13.78,4.8,18.56,4.8a5.33,5.33,0,0,0,2-.31l16.41-5.79c1.06,3.44,3.81,5.89,7,5.89,4.14,0,7.5-4,7.5-9a10.7,10.7,0,0,0-.19-2l12.51-4.45c.93,3.71,3.79,6.42,7.18,6.42s6.5-3,7.29-6.9l27.62,2.42,1.63,1.22c.64.48,6.36,4.7,9.6,4.7h.12l14.58-3.65,9.05.8,1.79-3.59.32-.26-2.45-2.18c-4.3-.48-24.64-5.24-45.29-10.25,17.34-6.26,31.35-11.41,41.68-15.31,22.49-8.5,22.52-9,22.61-10.33V67.89ZM175.15,119.56c-3.31,0-6-3.35-6-7.5a8.52,8.52,0,0,1,1.8-5.36,9.6,9.6,0,0,0-.3,2.36c0,4.15,2.69,7.5,6,7.5a5.41,5.41,0,0,0,4.2-2.14C180.06,117.41,177.81,119.56,175.15,119.56Zm27.5-9.13c-3.31,0-6-3.36-6-7.5a8.5,8.5,0,0,1,1.8-5.36,9.53,9.53,0,0,0-.3,2.36c0,4.14,2.69,7.5,6,7.5a5.45,5.45,0,0,0,4.2-2.14C207.56,108.28,205.31,110.43,202.65,110.43Zm45.25,1.29c-1.31-.06-3.4-1.13-5.22-2.24l11,.79Z"/><path class="cls-1" d="M179.18,89.27l0,0c.2-.22.39-.45.59-.69l.09-.11c.17-.22.34-.44.5-.67,0-.06.09-.12.13-.19s.29-.42.43-.64l.17-.26.36-.61.18-.34a6.54,6.54,0,0,0,.3-.59l.2-.39.25-.57c.07-.15.13-.3.19-.46s.15-.36.22-.55l.18-.51q.09-.25.18-.54c.06-.18.11-.36.16-.55s.11-.35.15-.53l.15-.58.12-.53c.07-.33.13-.65.19-1l-9.08-5V63.51l-13.5,5.79V79.91l13,13A15.68,15.68,0,0,0,179.18,89.27Zm-9.93-12.11c-1.69.52-3.63-.91-4.33-3.18s.11-4.55,1.81-5.07,3.63.91,4.33,3.19S171,76.65,169.25,77.16Z"/><path id="plane_rear_wing" data-name="plane rear wing" d="M276.51,104.27l-12.19-3L263,100c-.3-1.49-.35-1.72,17.48-9.15l.49-.2.5.15c3.27.93,11.05,3.28,12.65,4.88a1.77,1.77,0,0,1,.46,1.73c-.23.82-.7,2.55-17.66,6.78Z"/><path class="cls-1" d="M176.76,96.16c-7.45,3.16-16.35-.06-22.65-7.35,5.94,5.12,13.32,7,19.65,4.35q.3-.12.6-.27m3.06-37.26"/><path class="cls-1" d="M186.73,71.46a29.08,29.08,0,0,1,.4,9.25L184,79a28.5,28.5,0,0,0,.15-8.22Z"/></g></svg>