<svg xmlns="http://www.w3.org/2000/svg" viewBox="0 0 400 400"><defs><style>.cls-1,.cls-5{fill:none;}.cls-2,.cls-3{fill:#111;}.cls-3,.cls-4,.cls-5{fill-rule:evenodd;}.cls-4{fill:#fff;}</style></defs><title>logo-finals</title><g id="Layer_9" data-name="Layer 9"><rect class="cls-1" width="400" height="400"/><rect class="cls-1" width="400" height="400"/><rect class="cls-1" width="400" height="400"/><rect class="cls-1" width="400" height="400"/><path class="cls-2" d="M213.64,243.46h8.12V255.9H207.07V234.5h14.69v3.67H211.18v14.07h6.72v-5.3h-4.26Zm11.1,12.44V234.5h14.7v12.44h-5l5,9h-3.86l-5.28-9h-1.44v9Zm4.12-17.73v5.29h6.72v-5.29Zm28.26-3.67v21.4h-14.7V234.5Zm-3.86,3.67h-6.73v14.07h6.73Zm17.67-3.67h3.86v21.4H260.1V234.5h4.11v17.74h6.72Zm11,21.4h-4.11V234.5h4.11l6.72,12v-12h3.86v21.4h-3.86l-6.72-12.35Zm13.56,0V234.5H308.6l1.55,1.88V254l-1.53,1.88Zm10.84-17.73h-6.72v14.07h6.72ZM122.22,234.5v21.4H107.53V234.5Zm-3.86,3.67h-6.72v14.07h6.72Zm11,17.73h-4.11V234.5h4.11l4.17,11.73,4.34-11.73h3.86v21.4h-3.86v-9l-3,9h-2.41l-3.1-9Zm19.47,0h-4.12V234.5h4.12L153,246.23l4.34-11.73h3.86v21.4H157.3v-9l-3,9h-2.41l-3.1-9Zm30-21.4v21.4H164.14V234.5ZM175,238.17h-6.72v14.07H175Zm11,17.73h-4.11V234.5h4.11l6.72,12v-12h3.86v21.4h-3.86l-6.72-12.35Zm-92-3.66h10.59v3.66H89.85V234.5h14.7v3.67H94Zm-.8,8.75H306.84v15.26H93.16Zm8.17,4.57h4.41V264H99.62V273h6.12v-1.53h-4.41ZM117.78,264V273h6.12V264Zm4.51,7.39h-2.8v-5.86h2.8ZM137.66,264h-1.72V273h6.13v-1.53h-4.41Zm18.16,0h-1.71V273h6.12v-1.53h-4.41Zm22.57,1.53V264h-6.12V273h6.12v-1.53H174v-2.2h4.4v-1.46H174v-2.2Zm13.76,0h4.41V264h-6.12V273h6.12v-1.53h-4.41ZM210.92,273h1.71v-7.39h2.09V264H208.6v1.53h2.32ZM228.48,264h-1.71V273h1.71Zm12,0V273h6.12v-3.31l-.75-1.12.75-1.11V264Zm4.51,1.53v2.2h-2.8v-2.2Zm0,3.66v2.2h-2.8v-2.2ZM260.4,264h-1.72V273h6.13v-1.53H260.4ZM283,265.56V264h-6.12V273H283v-1.53h-4.41v-2.2H283v-1.46h-4.41v-2.2Zm16.56,3.66v2.2H295V273h6.13v-5.19h-4.41v-2.2h4.41V264H295v5.19Z"/><polygon class="cls-3" points="169.47 151.42 199.39 165.66 230.53 151.42 230.53 200.96 199.39 215.2 169.47 200.96 169.47 151.42"/><polygon class="cls-4" points="169.47 146.52 199.39 160.76 230.53 146.52 230.53 196.05 199.39 210.3 169.47 196.05 169.47 146.52"/><path class="cls-2" d="M228.53,149.63v45.14l-29.12,13.32-27.94-13.3V149.68l27.06,12.89.84.4.85-.39,28.31-13m2-3.11-31.14,14.24-29.92-14.24v49.53l29.92,14.25,31.14-14.25V146.52Z"/><polygon class="cls-3" points="212.24 182.19 225.44 188.34 225.44 180.51 212.24 174.36 212.24 182.19"/><polygon class="cls-3" points="225.44 156.6 199.45 168.72 199.39 168.72 199.39 168.75 199.39 192.85 199.39 200.49 225.44 188.35 225.44 180.52 206.49 189.35 206.49 173.27 225.44 164.43 225.44 156.6"/><polygon class="cls-3" points="174.56 164.32 174.56 164.62 174.56 180.7 174.56 188.45 174.56 188.53 197.77 199.35 197.77 191.52 181.66 184.01 181.66 167.93 197.77 175.44 197.77 167.61 174.56 156.79 174.56 164.32"/><polyline class="cls-5" points="177.1 145.25 177.1 137.61 203.82 124.89 203.82 129.98"/><polyline class="cls-5" points="187.28 150.33 187.28 142.7 213.99 129.98 213.99 135.07"/><path class="cls-2" d="M205.09,124.9V130h-2.55v-3.07l-24.16,11.51v6.52l-2.55-1.21v-6.12l.73-1.14,26.71-12.72Zm8.35,3.93-26.71,12.72L186,142.7v5.89l2.54,1.22v-6.3L212.72,132v3.07h2.54V130Zm10.18,5.09-26.71,12.72-.73,1.15v5.67l2.55,1.21v-6.08l24.16-11.5v3.07h2.55v-5.09Z"/></g></svg>