<svg xmlns="http://www.w3.org/2000/svg" viewBox="0 0 400 400"><defs><style>.cls-1,.cls-7{fill:none;}.cls-2,.cls-6{fill:#f96a04;}.cls-3,.cls-4{fill:#111;}.cls-4,.cls-6,.cls-7{fill-rule:evenodd;}.cls-5{fill:#fff;}</style></defs><title>logo-finals</title><g id="Layer_24" data-name="Layer 24"><rect class="cls-1" width="400" height="400"/><rect class="cls-1" width="400" height="400"/><rect class="cls-1" width="400" height="400"/><rect class="cls-1" width="400" height="400"/><polygon class="cls-2" points="213.64 243.46 221.76 243.46 221.76 255.9 207.06 255.9 207.06 234.5 221.76 234.5 221.76 238.17 211.18 238.17 211.18 252.24 217.9 252.24 217.9 246.94 213.64 246.94 213.64 243.46"/><path class="cls-3" d="M239.44,234.5h-14.7v21.4h4.12v-9h1.44l5.28,9h3.86l-5-9h5Zm-3.86,9h-6.72v-5.29h6.72Z"/><path class="cls-3" d="M242.42,234.5v21.4h14.7V234.5Zm10.84,17.74h-6.73V238.17h6.73Z"/><polygon class="cls-3" points="270.93 234.5 274.8 234.5 274.8 255.9 260.1 255.9 260.1 234.5 264.21 234.5 264.21 252.24 270.93 252.24 270.93 234.5"/><polygon class="cls-3" points="281.89 255.9 277.78 255.9 277.78 234.5 281.89 234.5 288.61 246.5 288.61 234.5 292.47 234.5 292.47 255.9 288.61 255.9 281.89 243.55 281.89 255.9"/><path class="cls-3" d="M308.6,234.5H295.45v21.4h13.17l1.53-1.88V236.38Zm-2.31,17.74h-6.72V238.17h6.72Z"/><path class="cls-3" d="M107.53,234.5v21.4h14.69V234.5Zm10.83,17.74h-6.72V238.17h6.72Z"/><polygon class="cls-3" points="129.32 255.9 125.2 255.9 125.2 234.5 129.32 234.5 133.49 246.23 137.83 234.5 141.69 234.5 141.69 255.9 137.83 255.9 137.83 246.94 134.83 255.9 132.42 255.9 129.32 246.94 129.32 255.9"/><polygon class="cls-3" points="148.78 255.9 144.67 255.9 144.67 234.5 148.78 234.5 152.96 246.23 157.3 234.5 161.16 234.5 161.16 255.9 157.3 255.9 157.3 246.94 154.3 255.9 151.89 255.9 148.78 246.94 148.78 255.9"/><path class="cls-3" d="M164.14,234.5v21.4h14.69V234.5ZM175,252.24h-6.72V238.17H175Z"/><polygon class="cls-3" points="185.93 255.9 181.81 255.9 181.81 234.5 185.93 234.5 192.65 246.5 192.65 234.5 196.51 234.5 196.51 255.9 192.65 255.9 185.93 243.55 185.93 255.9"/><polygon class="cls-2" points="93.96 252.24 104.55 252.24 104.55 255.9 89.85 255.9 89.85 234.5 104.55 234.5 104.55 238.17 93.96 238.17 93.96 252.24"/><rect class="cls-3" x="242.23" y="265.56" width="2.8" height="2.2"/><rect class="cls-3" x="119.49" y="265.56" width="2.8" height="5.86"/><rect class="cls-3" x="242.23" y="269.22" width="2.8" height="2.2"/><path class="cls-3" d="M93.16,261v15.26H306.84V261Zm12.58,4.57h-4.41v5.86h4.41V273H99.62V264h6.12ZM123.9,273h-6.12V264h6.12Zm18.17,0h-6.13V264h1.72v7.39h4.41Zm18.16,0h-6.12V264h1.71v7.39h4.41Zm18.16-7.39H174v2.2h4.4v1.46H174v2.2h4.4V273h-6.12V264h6.12Zm18.17,0h-4.41v5.86h4.41V273h-6.12V264h6.12Zm18.16,0h-2.09V273h-1.71v-7.39H208.6V264h6.12ZM228.48,273h-1.71V264h1.71Zm18.16-5.54-.75,1.11.75,1.12V273h-6.12V264h6.12ZM264.81,273h-6.13V264h1.72v7.39h4.41ZM283,265.56h-4.41v2.2H283v1.46h-4.41v2.2H283V273h-6.12V264H283Zm18.17,0h-4.41v2.2h4.41V273H295v-1.53h4.52v-2.2H295V264h6.13Z"/><polygon class="cls-4" points="169.47 151.42 199.39 165.66 230.53 151.42 230.53 200.96 199.39 215.2 169.47 200.96 169.47 151.42"/><polygon class="cls-3" points="230.53 145.52 199.39 159.76 169.47 145.52 169.47 195.05 199.39 209.3 230.53 195.05 230.53 145.52 230.53 145.52"/><polyline class="cls-5" points="228.53 149.63 228.53 194.77 199.41 208.09 171.47 194.79 171.47 149.69 198.53 162.56 199.37 162.97 200.22 162.58 228.53 149.63"/><polygon class="cls-6" points="212.24 182.19 225.44 188.34 225.44 180.51 212.24 174.36 212.24 182.19"/><polygon class="cls-4" points="225.44 156.6 199.45 168.72 199.39 168.72 199.39 168.75 199.39 192.85 199.39 200.49 225.44 188.35 225.44 180.52 206.49 189.35 206.49 173.27 225.44 164.43 225.44 156.6"/><polygon class="cls-4" points="174.56 164.32 174.56 164.62 174.56 180.7 174.56 188.45 174.56 188.53 197.77 199.35 197.77 191.52 181.66 184.01 181.66 167.93 197.77 175.44 197.77 167.61 174.56 156.79 174.56 164.32"/><polyline class="cls-7" points="177.1 145.25 177.1 137.61 203.82 124.89 203.82 129.98"/><polyline class="cls-7" points="187.28 150.33 187.28 142.7 213.99 129.98 213.99 135.07"/><polygon class="cls-3" points="205.09 124.89 205.09 129.98 202.54 129.98 202.54 126.91 178.38 138.42 178.38 144.94 175.83 143.72 175.83 137.61 176.56 136.47 203.27 123.75 205.09 124.89"/><polygon class="cls-3" points="213.44 128.83 186.73 141.55 186.01 142.7 186.01 148.59 188.55 149.81 188.55 143.51 212.72 132 212.72 135.07 215.26 135.07 215.26 129.98 213.44 128.83"/><polygon class="cls-3" points="223.62 133.92 196.91 146.64 196.18 147.79 196.18 153.46 198.73 154.68 198.73 148.59 222.9 137.09 222.9 140.16 225.44 140.16 225.44 135.07 223.62 133.92"/></g></svg>