<svg xmlns="http://www.w3.org/2000/svg" viewBox="0 0 400 400"><defs><style>.cls-1{fill:#111;}.cls-2{fill:#fff;}</style></defs><title>logo-finals</title><g id="Layer_17" data-name="Layer 17"><rect class="cls-1" width="400" height="400"/><path class="cls-2" d="M129.26,298.16v2.07a7.54,7.54,0,0,1-.59,2.95,8.13,8.13,0,0,1-1.62,2.47,7.94,7.94,0,0,1-2.43,1.72,7.11,7.11,0,0,1-3,.63,10.39,10.39,0,0,1-2.78-.38,6.49,6.49,0,0,1-2.54-1.31,7.15,7.15,0,0,1-1.86-2.43,8.53,8.53,0,0,1-.73-3.79V281.64a8.36,8.36,0,0,1,.56-3.06,7.23,7.23,0,0,1,1.6-2.44,7.65,7.65,0,0,1,2.47-1.63,8.38,8.38,0,0,1,3.18-.59,7.27,7.27,0,0,1,5.51,2.22,7.76,7.76,0,0,1,1.62,2.56,8.75,8.75,0,0,1,.59,3.23v1.88h-4.8v-1.6a3.92,3.92,0,0,0-.8-2.45,2.59,2.59,0,0,0-2.17-1,2.44,2.44,0,0,0-2.37,1.1,5.84,5.84,0,0,0-.59,2.8v17.14a4.45,4.45,0,0,0,.63,2.44,2.52,2.52,0,0,0,2.29,1,3.47,3.47,0,0,0,1-.16,3.22,3.22,0,0,0,1-.55,2.89,2.89,0,0,0,.71-1,4.37,4.37,0,0,0,.28-1.65v-1.65Zm3.91,9.56V274.21h7.71q8.48,0,8.48,9.83a12.43,12.43,0,0,1-.92,5,7.15,7.15,0,0,1-3.22,3.34l5.17,15.3h-5.08l-4.47-14.31H138v14.31Zm4.8-29v10.44h2.73a4.76,4.76,0,0,0,2-.35,2.71,2.71,0,0,0,1.18-1,4.74,4.74,0,0,0,.52-1.63,17.83,17.83,0,0,0,0-4.46,4.63,4.63,0,0,0-.57-1.68c-.59-.87-1.72-1.31-3.39-1.31Zm13.08,29,7.48-33.51h4L170,307.72h-4.8l-1.42-7.2h-6.54l-1.41,7.2ZM162.91,296l-2.35-12.14h-.1L158.11,296Zm12.61,11.72v-29H170v-4.52h15.91v4.52h-5.55v29Zm12.48,0V274.21h14.31v4.52H192.8v9.83h8.28v4.52H192.8v9.84h9.51v4.8Zm26.16,0V274.21h7.21a10.85,10.85,0,0,1,3.48.51,6.78,6.78,0,0,1,2.73,1.84,7.23,7.23,0,0,1,1.69,3.08,19,19,0,0,1,.48,4.78,23.87,23.87,0,0,1-.26,3.81,8,8,0,0,1-1.11,2.92,7.07,7.07,0,0,1-2.64,2.57,8.9,8.9,0,0,1-4.33.91H219v13.09Zm4.81-29v11.39h2.3a4.9,4.9,0,0,0,2.26-.43,2.62,2.62,0,0,0,1.18-1.17,4.45,4.45,0,0,0,.45-1.75c0-.69.07-1.45.07-2.3s0-1.53,0-2.24a4.71,4.71,0,0,0-.43-1.86,2.62,2.62,0,0,0-1.13-1.22,4.49,4.49,0,0,0-2.16-.42Zm14.35,29V274.21h4.8v28.71h9.51v4.8Zm15.25,0,7.48-33.51h4l7.49,33.51h-4.8l-1.42-7.2h-6.54l-1.41,7.2ZM260.43,296l-2.35-12.14H258L255.63,296Zm13.93,11.72V293.55l-6.59-19.34h5.08l3.87,13.32h.09l3.86-13.32h5.08l-6.59,19.34v14.17ZM111.75,162.6v94.13h176.5V162.6ZM235.3,197.9a5.88,5.88,0,0,1-5.88,5.88H170.58a5.88,5.88,0,0,1-5.88-5.88V192a5.89,5.89,0,0,1,5.88-5.89h58.84A5.89,5.89,0,0,1,235.3,192ZM123.52,92v64.72h46.35a36.14,36.14,0,0,1,60.26,0h46.35V92Z"/></g></svg>