<svg xmlns="http://www.w3.org/2000/svg" viewBox="0 0 400 400"><defs><style>.cls-1{fill:#111;}.cls-2{fill:#fff;}</style></defs><title>dj_professionals2</title><g id="Layer_11" data-name="Layer 11"><rect class="cls-1" width="400" height="400"/><path class="cls-2" d="M76.14,287.65a4.39,4.39,0,0,1-3,1H68v-7.75h5.1a4.65,4.65,0,0,1,3,.88,3.55,3.55,0,0,1,1.08,2.92,3.79,3.79,0,0,1-1.08,3Zm4.16-9.33a9.28,9.28,0,0,0-6.3-2H62.57V302.6H68v-9.46h5.57a10.39,10.39,0,0,0,6.71-1.93,8.12,8.12,0,0,0,2.35-6.59,7.91,7.91,0,0,0-2.35-6.3Zm17.89,9.17a6.71,6.71,0,0,1-2.77.43H89.2v-7.07h6.38a6,6,0,0,1,2.67.47,3.26,3.26,0,0,1,1.58,3.21,2.93,2.93,0,0,1-1.64,3Zm6.55,12.95a14.33,14.33,0,0,1-.14-2.45v-1.77a8.68,8.68,0,0,0-.75-4.11,4.91,4.91,0,0,0-2.58-2.08,5.3,5.3,0,0,0,3.12-2.56,7.93,7.93,0,0,0,.94-3.69,7.08,7.08,0,0,0-.5-2.77,8.1,8.1,0,0,0-1.35-2.21A6.48,6.48,0,0,0,101,277a12,12,0,0,0-4.24-.68H83.85V302.6H89.2V292.28h5.66a4.87,4.87,0,0,1,3.31.84,4.78,4.78,0,0,1,.91,3.35l0,2.45a13.34,13.34,0,0,0,.23,2.27q.11.53.36,1.41h6v-.66A2.24,2.24,0,0,1,104.74,300.44Zm19.05-4.18a6.78,6.78,0,0,1-10.37,0,13.07,13.07,0,0,1,0-13.71,6.33,6.33,0,0,1,5.2-2.41,6.21,6.21,0,0,1,5.17,2.42,13.22,13.22,0,0,1,0,13.7Zm3.43-17.71a13.56,13.56,0,0,0-17.2,0,14,14,0,0,0-4,10.85,14.22,14.22,0,0,0,4,10.86,13.59,13.59,0,0,0,17.2,0,14.28,14.28,0,0,0,4-10.86,14,14,0,0,0-4-10.85Zm5.11-2.23h18.6v4.62H137.78V287h11.51v4.57H137.78v11h-5.45ZM171,280.94H157.08v5.59h12.74v4.57H157.08v6.77H171.6v4.73H151.72V276.28H171Zm43.41,14a7.57,7.57,0,0,1-2.75,6,11.5,11.5,0,0,1-7.77,2.39,12.63,12.63,0,0,1-8.06-2.35,7.58,7.58,0,0,1-2.8-5,7.53,7.53,0,0,1-2.64,4.94,11.53,11.53,0,0,1-7.77,2.39,12.64,12.64,0,0,1-8.07-2.35,7.8,7.8,0,0,1-2.93-6.46h5.23a5.37,5.37,0,0,0,1,2.7,5.59,5.59,0,0,0,4.57,1.62,9.59,9.59,0,0,0,3.15-.42,3.07,3.07,0,0,0,2.3-3.06,2.25,2.25,0,0,0-1.14-2,12.27,12.27,0,0,0-3.58-1.24l-2.77-.62a17.64,17.64,0,0,1-5.67-2,6.42,6.42,0,0,1-2.65-5.69,7.63,7.63,0,0,1,2.57-5.88,10.82,10.82,0,0,1,7.53-2.34,11.45,11.45,0,0,1,7.07,2.21,7.87,7.87,0,0,1,3.07,6.4H187a3.77,3.77,0,0,0-2.06-3.38,7,7,0,0,0-3.19-.66,5.92,5.92,0,0,0-3.38.86,2.72,2.72,0,0,0-1.26,2.39,2.25,2.25,0,0,0,1.24,2.11,15.15,15.15,0,0,0,3.42,1.09l4.52,1.09a11.62,11.62,0,0,1,4.49,1.91,6.3,6.3,0,0,1,2.31,4.94h5a5.27,5.27,0,0,0,1,2.7,5.59,5.59,0,0,0,4.57,1.62,9.59,9.59,0,0,0,3.15-.42,3.07,3.07,0,0,0,2.3-3.06,2.25,2.25,0,0,0-1.14-2,12.27,12.27,0,0,0-3.58-1.24l-2.78-.62a17.59,17.59,0,0,1-5.66-2,6.42,6.42,0,0,1-2.65-5.69,7.66,7.66,0,0,1,2.56-5.88,10.85,10.85,0,0,1,7.53-2.34,11.46,11.46,0,0,1,7.08,2.21,7.87,7.87,0,0,1,3.07,6.4h-5.27a3.78,3.78,0,0,0-2.06-3.38,7,7,0,0,0-3.19-.66,5.9,5.9,0,0,0-3.38.86,2.73,2.73,0,0,0-1.27,2.39,2.28,2.28,0,0,0,1.25,2.11,15.15,15.15,0,0,0,3.42,1.09l4.52,1.09a11.51,11.51,0,0,1,4.48,1.91A6.4,6.4,0,0,1,214.37,294.9Zm6,7.7H215V276.28h5.45Zm18.84-6.34a6.26,6.26,0,0,1-5.17,2.41,6.33,6.33,0,0,1-5.2-2.41,13.11,13.11,0,0,1,0-13.71,6.33,6.33,0,0,1,5.2-2.41,6.2,6.2,0,0,1,5.17,2.42,13.22,13.22,0,0,1,0,13.7Zm3.43-17.71a13.56,13.56,0,0,0-17.2,0,13.94,13.94,0,0,0-4,10.85,14.24,14.24,0,0,0,4,10.86,13.59,13.59,0,0,0,17.2,0,14.25,14.25,0,0,0,4-10.86,14,14,0,0,0-4-10.85Zm5-2.27h5.75l10.44,18.37V276.28H269V302.6h-5.48l-10.72-18.7v18.7h-5.1Zm30.55,16.37,3.38-10.35,3.28,10.35Zm6.53-16.37h-6.19l-9.37,26.32H275l1.81-5.41h9.67l1.69,5.41h5.94Zm9.58,0h5.49v21.59h13v4.73H294.38Zm23.2,18.19a5.46,5.46,0,0,0,1,2.7,5.61,5.61,0,0,0,4.58,1.62,9.59,9.59,0,0,0,3.15-.42,3.07,3.07,0,0,0,2.3-3.06,2.25,2.25,0,0,0-1.14-2,12.38,12.38,0,0,0-3.58-1.24l-2.78-.62a17.36,17.36,0,0,1-5.66-2,6.42,6.42,0,0,1-2.65-5.69,7.62,7.62,0,0,1,2.56-5.88,10.85,10.85,0,0,1,7.53-2.34,11.46,11.46,0,0,1,7.08,2.21,7.87,7.87,0,0,1,3.07,6.4h-5.27a3.79,3.79,0,0,0-2.07-3.38,7,7,0,0,0-3.18-.66,5.9,5.9,0,0,0-3.38.86,2.73,2.73,0,0,0-1.27,2.39,2.28,2.28,0,0,0,1.25,2.11,15.15,15.15,0,0,0,3.42,1.09l4.52,1.09a11.51,11.51,0,0,1,4.48,1.91,6.43,6.43,0,0,1,2.35,5.37,7.57,7.57,0,0,1-2.75,6,11.5,11.5,0,0,1-7.77,2.39,12.61,12.61,0,0,1-8.06-2.35,7.81,7.81,0,0,1-2.94-6.46Zm45.85-2.81h-1.89V277.88h-.08l-5.28,13.78h-1.24l-5.29-13.78h-.07v13.78h-1.9V276.27h3.5l4.38,11.37h.07l4.3-11.37h3.5Zm-18.59-13.93H340v13.93h-1.89V277.73h-4.89v-1.46h11.67ZM144.05,158.28v7.38L63.42,115.71v8.8l80.63,49.71v7.37L63.42,131.88v8.57l80.63,49.94v7.38l-80.63-50v8.8l80.63,49.71v7.37L63.42,164v8.57l80.63,49.95v7.37L63.42,179.93V266h84a79.12,79.12,0,0,0,79.68-80.15c0-44.72-35.81-79.21-77.07-79.21H63.42v1.67ZM334,164.71H255.71v36.63H235.79V266h44.82c31.3,0,53.36-13.79,53.36-47.57Zm-78.26-58v7.85H334v-7.85Zm0,14.75V129H334v-7.61Zm0,14.51v7.61H334v-7.61Zm0,14.51v7.84H334v-7.84Z"/></g></svg>