<svg xmlns="http://www.w3.org/2000/svg" viewBox="0 0 400 400"><defs><style>.cls-1{fill:#111;fill-rule:evenodd;}</style></defs><title>logo-finals</title><g id="Layer_7" data-name="Layer 7"><path class="cls-1" d="M200,93A107,107,0,1,0,307,200,107,107,0,0,0,200,93Zm47.56,39.23a15.46,15.46,0,1,1-15.46,15.46A15.46,15.46,0,0,1,247.56,132.23ZM200,279.36a79.36,79.36,0,1,1,25-154.69A8,8,0,0,1,220,139.9a63.27,63.27,0,1,0,42.23,48.25c-15.34,15.82-36.59,22.48-63,19.84a8,8,0,1,1,1.6-16c26.79,2.68,45.55-5.6,57.65-25.08a8,8,0,0,1,14.15,1A79.38,79.38,0,0,1,200,279.36Z"/></g></svg>