<svg xmlns="http://www.w3.org/2000/svg" viewBox="0 0 400 400"><defs><style>.cls-1{fill:#111;}.cls-2{fill:#fff;fill-rule:evenodd;}</style></defs><title>logo-finals</title><g id="Layer_13" data-name="Layer 13"><rect class="cls-1" width="400" height="400"/><path class="cls-2" d="M336.48,266.1V208.71h0V178.93c.44-7.88,2.82-13.38,8-17.69,2.68-2.23,6.4-3.27,11.3-3.27,9.67,0,14.42,5.35,16.8,10.7A29.82,29.82,0,0,1,375,179.38v40.88c-.45,7.88-2.82,13.68-8,18.14-2.53,2.23-6.24,3.27-11.15,3.27a22.37,22.37,0,0,1-5.26-.6v25Zm19.34-37.51c2.83,0,4-1.94,4.61-4.17a9.13,9.13,0,0,0,.45-4.16V179.38a9.82,9.82,0,0,0-1.94-7,4.26,4.26,0,0,0-3.12-1.19c-2.82,0-4.16,1.79-4.75,4a9.13,9.13,0,0,0-.45,4.16v40.88c-.15,3.12.45,5.35,1.93,7.14A4.65,4.65,0,0,0,355.82,228.59ZM313.26,158c9.66,0,14.56,5.35,16.94,10.56a28.85,28.85,0,0,1,2.38,10.4v23.64H307.76v17.69a11.52,11.52,0,0,0,2.37,7,4.3,4.3,0,0,0,3.13,1.19c2.82,0,4.16-1.79,4.75-4a11.6,11.6,0,0,0,.6-4.16v-8.92h14v9.37c-.44,7.88-2.82,13.38-8.17,17.69-2.68,2.23-6.4,3.27-11.3,3.27-9.67,0-14.57-5.35-16.95-10.71a29.76,29.76,0,0,1-2.38-10.7V179.38c.45-7.88,3-13.68,8.33-18.14C304.63,159,308.35,158,313.26,158Zm0,13.08c-2.83,0-4,1.94-4.76,4.17a15.5,15.5,0,0,0-.74,4.16v11.45h10.85V179.38c0-3.12-.6-5.35-2.08-7.14A4.67,4.67,0,0,0,313.26,171.05ZM271,158c9.66,0,14.57,5.35,16.94,10.56a28.85,28.85,0,0,1,2.38,10.4v23.64H265.51v17.69a11.52,11.52,0,0,0,2.38,7,4.26,4.26,0,0,0,3.12,1.19c2.82,0,4.16-1.79,4.75-4a11.6,11.6,0,0,0,.6-4.16v-8.92h14v9.37c-.44,7.88-2.82,13.38-8.17,17.69-2.68,2.23-6.4,3.27-11.3,3.27-9.66,0-14.57-5.35-17-10.71a29.76,29.76,0,0,1-2.38-10.7V179.38c.45-7.88,3-13.68,8.33-18.14C262.38,159,266.1,158,271,158Zm0,13.08c-2.83,0-4,1.94-4.76,4.17a15.9,15.9,0,0,0-.74,4.16v11.45h10.85V179.38c0-3.12-.6-5.35-2.08-7.14A4.65,4.65,0,0,0,271,171.05ZM247.58,133.9v57.39h0v29.79c-.44,7.88-2.82,13.38-8,17.69-2.67,2.23-6.39,3.27-11.29,3.27-9.67,0-14.43-5.35-16.8-10.7a29.82,29.82,0,0,1-2.38-10.71V179.74c.44-7.88,2.82-13.68,8-18.14,2.52-2.23,6.24-3.27,11.15-3.27a22.43,22.43,0,0,1,5.26.6v-25Zm-19.34,37.51c-2.83,0-4,1.94-4.61,4.17a9.13,9.13,0,0,0-.45,4.16v40.88a9.87,9.87,0,0,0,1.93,7,4.3,4.3,0,0,0,3.13,1.19c2.82,0,4.16-1.79,4.75-4a9.13,9.13,0,0,0,.45-4.16V179.74c.15-3.12-.45-5.35-1.93-7.14A4.67,4.67,0,0,0,228.24,171.41Zm-54.62,7.08a18.72,18.72,0,0,0-.45-4.91,3.75,3.75,0,0,0-3.71-2.53c-2.53,0-3.57,1.94-4,4.31a31.23,31.23,0,0,0-.29,3.87v3.87h-15v-3.42a23,23,0,0,1,5.8-15.32A19,19,0,0,1,170.35,158a18.36,18.36,0,0,1,12.78,5.2,18,18,0,0,1,5.5,13.24v50a73.81,73.81,0,0,0,1.05,14.12H175c-1.34-1.64-1.34-5.5-1.34-6.54h-1a16.41,16.41,0,0,1-4.16,4.9,13,13,0,0,1-7.88,2.83A9.63,9.63,0,0,1,153.1,238c-2.52-2.82-4.6-7.88-4.6-16.35,0-9.07,2.67-15.61,6.24-20.07a36,36,0,0,1,11.74-9.22c3.72-1.93,6.54-3.27,7.14-4.9Zm0,22.74c-7.28,3.12-10.41,10.41-10.41,18.14a13.77,13.77,0,0,0,.75,4.46c.59,1.78,1.63,3.12,3.42,3.12,3.41,0,6.24-2.08,6.24-4.91Zm-53.75,39.25-13.23-81.32h14.57l4.9,47.13.6,5.2h1.19l.59-5.2,4.91-47.13H148l-13.23,81.32ZM86.65,158c9.67,0,14.57,5.35,16.95,10.56a28.85,28.85,0,0,1,2.38,10.4v41.78c-.45,7.88-2.83,13.38-8,17.69-2.68,2.23-6.39,3.27-11.3,3.27-9.66,0-14.42-5.35-16.8-10.71a30,30,0,0,1-2.38-10.7V179.38c.45-7.88,2.83-13.68,8-18.14C78,159,81.75,158,86.65,158Zm0,13.08c-2.82,0-4,1.94-4.61,4.17a9.28,9.28,0,0,0-.44,4.16v40.88a9.82,9.82,0,0,0,1.93,7,4.26,4.26,0,0,0,3.12,1.19c2.83,0,4.16-1.79,4.76-4a9.27,9.27,0,0,0,.45-4.16V179.38c.14-3.12-.45-5.35-1.94-7.14A4.63,4.63,0,0,0,86.65,171.05ZM40,159.53V183.1h.75l.89-2.68,7.28-21.26H62.46L51.61,185.62l13.68,54.86H50.87l-7.44-32.86-.29-1.19h-.75L42,207.62,40,212.38v28.1H25V159.53Z"/></g></svg>