<svg xmlns="http://www.w3.org/2000/svg" viewBox="0 0 400 400"><defs><style>.cls-1{fill:#181c25;}.cls-2{fill:#fff;}.cls-3{fill:#2de200;}</style></defs><title>logo-finals</title><g id="Layer_21" data-name="Layer 21"><path class="cls-1" d="M341.53,207.14a34.75,34.75,0,0,0,4.15-5.08,30.92,30.92,0,0,0,5.13-17.6c0-13.48-6.4-21-11.78-24.92-6.94-5.07-16.41-7.54-28.94-7.54H40v96H368.63Z"/><path class="cls-2" d="M328,204.9a26.74,26.74,0,0,0,9.34-8.41,21.06,21.06,0,0,0,3.43-12q0-22.46-30.72-22.46H285.38v76h20.38V210.32h5.17L326.88,238H350Zm-10.82-12.08a13.23,13.23,0,0,1-7.66,2.07h-3.8V177.54h4q5.49,0,8,2.13a7.16,7.16,0,0,1,2.48,5.75C320.22,189,319.22,191.43,317.22,192.82Z"/><path class="cls-2" d="M281.21,162v16.82H262.84V238H242.46V178.82H227.12V238H206.74V178.82h-7.92a34.77,34.77,0,0,0-3.59-7.56,21.27,21.27,0,0,0-6.86-6.85V162Z"/><path class="cls-1" d="M175.74,232.06c-9.09,0-13.91-7.05-15.4-13.65-1.05-4.66-1.56-11-1.56-19.53s.51-15,1.56-19.67c1.48-6.64,6.3-13.73,15.4-13.73,2.85,0,12.39,1,15.33,13.65,1.1,4.72,1.63,11.18,1.63,19.75s-.53,15-1.64,19.69C188.1,231.09,178.59,232.06,175.74,232.06Z"/><path class="cls-3" d="M168.78,198.88q0,11.49,1.31,17.33c.88,3.9,2.77,5.85,5.65,5.85s4.68-1.93,5.59-5.79,1.37-9.66,1.37-17.39-.45-13.56-1.37-17.49-2.78-5.91-5.59-5.91-4.77,2-5.65,5.91S168.78,191.16,168.78,198.88Z"/><path class="cls-2" d="M130.51,162v59.39h19.9a34.83,34.83,0,0,0,3.49,7.34,21.47,21.47,0,0,0,5.65,6.06V238H110.13V162Z"/><path class="cls-2" d="M97.57,168.28Q90.45,162,76.08,162H50v76H70.38V212.77h5.7a36.59,36.59,0,0,0,13.51-2.18,22.52,22.52,0,0,0,8.82-6,23.29,23.29,0,0,0,4.81-8.52,33.32,33.32,0,0,0,1.47-10Q104.69,174.57,97.57,168.28ZM81.36,194a11.83,11.83,0,0,1-7,2.07h-4V178.61h5.28c3,0,5.14.74,6.54,2.23a8.17,8.17,0,0,1,2.12,5.85Q84.32,191.91,81.36,194Z"/></g></svg>