<svg xmlns="http://www.w3.org/2000/svg" viewBox="0 0 400 400"><defs><style>.cls-1{fill:#111;}</style></defs><title>logo-finals</title><g id="Layer_8" data-name="Layer 8"><path class="cls-1" d="M310.09,162q30.72,0,30.72,22.46a21.06,21.06,0,0,1-3.43,12A26.74,26.74,0,0,1,328,204.9L350,238H326.88l-15.95-27.68h-5.17V238H285.38V162Zm-.32,15.54h-4v17.35h3.8a13.23,13.23,0,0,0,7.66-2.07c2-1.39,3-3.85,3-7.4a7.16,7.16,0,0,0-2.48-5.75Q315.27,177.54,309.77,177.54ZM281.21,162v16.82H262.84V238H242.46V178.82H227.12V238H206.74V178.82h-7.92a34.77,34.77,0,0,0-3.59-7.56,21.27,21.27,0,0,0-6.86-6.85V162ZM168.78,198.88q0,11.49,1.31,17.33c.88,3.9,2.77,5.85,5.65,5.85s4.68-1.93,5.59-5.79,1.37-9.66,1.37-17.39-.45-13.56-1.37-17.49-2.78-5.91-5.59-5.91-4.77,2-5.65,5.91S168.78,191.16,168.78,198.88ZM130.51,162v59.39h19.9a34.83,34.83,0,0,0,3.49,7.34,21.47,21.47,0,0,0,5.65,6.06V238H110.13V162Zm-54.43,0q14.36,0,21.49,6.28t7.12,17.88a33.32,33.32,0,0,1-1.47,10,23.29,23.29,0,0,1-4.81,8.52,22.52,22.52,0,0,1-8.82,6,36.59,36.59,0,0,1-13.51,2.18h-5.7V238H50V162Zm-.42,16.61H70.38v17.45h4a11.83,11.83,0,0,0,7-2.07q3-2.09,3-7.3a8.17,8.17,0,0,0-2.12-5.85C80.8,179.35,78.61,178.61,75.66,178.61Z"/></g></svg>