<svg xmlns="http://www.w3.org/2000/svg" viewBox="0 0 400 400"><defs><style>.cls-1{fill:#111;}</style></defs><title>logo-finals</title><g id="Layer_2" data-name="Layer 2"><path class="cls-1" d="M243,226a3.31,3.31,0,1,0,6.61,0v-6.62h1.94a30.81,30.81,0,0,0,6-.44,12.81,12.81,0,0,0,3.82-1.44,12.27,12.27,0,0,0,4.48-4.37,11.35,11.35,0,0,0,1.56-5.91,10.32,10.32,0,0,0-1.81-6.3,11.86,11.86,0,0,0-5.69-3.9,9.19,9.19,0,0,0,3.54-3.46,9.7,9.7,0,0,0,1.19-4.89,10,10,0,0,0-3.89-8.53,18.61,18.61,0,0,0-11.13-2.91v-5.83a3.31,3.31,0,1,0-6.61,0v5.82H233a4.91,4.91,0,0,0-3.35.95,3.9,3.9,0,0,0-1,3,4.09,4.09,0,0,0,1,2.92,3.78,3.78,0,0,0,2.81,1H233v26.52h-.61a3.78,3.78,0,0,0-2.81,1,4.89,4.89,0,0,0,.06,5.89,5,5,0,0,0,3.36.92h10Zm4.46-25a17,17,0,0,1,7.72,1.24,4.44,4.44,0,0,1,2.2,4.2,4.36,4.36,0,0,1-2.31,4.16,18.2,18.2,0,0,1-8,1.24H241.8V200.93Zm.22-16.1a9.82,9.82,0,0,1,5.24,1.06,3.77,3.77,0,0,1,1.62,3.38,3.7,3.7,0,0,1-1.8,3.48,13.17,13.17,0,0,1-6.17,1H241.8v-8.95ZM150.37,226a3.31,3.31,0,0,0,6.62,0v-5.6a18.21,18.21,0,0,0,10.26-3.45,12.12,12.12,0,0,0,4.44-10.08,11.24,11.24,0,0,0-3.05-8.35,19.79,19.79,0,0,0-9.88-4.55l-2.42-.5q-9-1.89-9-5.16a4.55,4.55,0,0,1,2-3.78,8.52,8.52,0,0,1,5.18-1.48,8.63,8.63,0,0,1,4.44,1.12,7.8,7.8,0,0,1,3,3.33c.08.16.17.38.29.64a4,4,0,0,0,3.77,2.7,3.88,3.88,0,0,0,2.82-.84,4.06,4.06,0,0,0,.84-2.93v-.39l-.14-6.82a5.81,5.81,0,0,0-.66-3c-.39-.51-1.28-.77-2.65-.77a3.87,3.87,0,0,0-2.06.43,3.64,3.64,0,0,0-1.21,1.56,24.37,24.37,0,0,0-4.64-1.49c-.42-.09-.83-.17-1.25-.23v-4.92a3.31,3.31,0,0,0-6.62,0v4.85a16.4,16.4,0,0,0-8.69,3.66,12.38,12.38,0,0,0-4.57,9.93,10.18,10.18,0,0,0,2.67,7.45,21,21,0,0,0,9.56,4.53c.94.26,2.24.58,3.87,1q8.22,1.95,8.21,5.76a4.46,4.46,0,0,1-1.81,3.8,8.33,8.33,0,0,1-5.08,1.35,12.35,12.35,0,0,1-6.06-1.35,9.28,9.28,0,0,1-3.86-4.08c-.14-.29-.33-.7-.57-1.25q-1.56-3.34-3.87-3.34a4.07,4.07,0,0,0-3,.92,4.77,4.77,0,0,0-.87,3.27v.4l.14,8.35a4.18,4.18,0,0,0,.92,3,4.49,4.49,0,0,0,3.13.85,4.19,4.19,0,0,0,2.06-.41,3.66,3.66,0,0,0,1.32-1.33,26.08,26.08,0,0,0,4.92,1.32c.52.08,1.06.16,1.62.22Zm46.32,0a3.31,3.31,0,1,0,6.62,0v-5.6a18.26,18.26,0,0,0,10.27-3.45A12.15,12.15,0,0,0,218,206.83a11.25,11.25,0,0,0-3.06-8.35,19.75,19.75,0,0,0-9.88-4.55l-2.42-.5q-9-1.89-9-5.16a4.5,4.5,0,0,1,2-3.78,8.48,8.48,0,0,1,5.17-1.48,8.61,8.61,0,0,1,4.44,1.12,7.83,7.83,0,0,1,3,3.33c.07.16.16.38.28.64a4,4,0,0,0,3.77,2.7,3.91,3.91,0,0,0,2.83-.84,4.1,4.1,0,0,0,.83-2.93v-.39l-.14-6.82a5.63,5.63,0,0,0-.66-3c-.39-.51-1.27-.77-2.65-.77a3.89,3.89,0,0,0-2.06.43A3.64,3.64,0,0,0,209.2,178a24.27,24.27,0,0,0-4.63-1.49c-.42-.09-.84-.17-1.26-.23v-4.92a3.31,3.31,0,0,0-6.62,0v4.85a16.43,16.43,0,0,0-8.69,3.66,12.41,12.41,0,0,0-4.57,9.93,10.18,10.18,0,0,0,2.67,7.45,21,21,0,0,0,9.56,4.53c1,.26,2.24.58,3.88,1q8.21,1.95,8.21,5.76a4.44,4.44,0,0,1-1.82,3.8,8.29,8.29,0,0,1-5.08,1.35,12.37,12.37,0,0,1-6.06-1.35,9.34,9.34,0,0,1-3.86-4.08c-.14-.29-.33-.7-.56-1.25q-1.58-3.34-3.88-3.34a4.08,4.08,0,0,0-3,.92,4.77,4.77,0,0,0-.87,3.27v.4l.14,8.35a4.23,4.23,0,0,0,.93,3,4.48,4.48,0,0,0,3.13.85,4.21,4.21,0,0,0,2.06-.41,3.63,3.63,0,0,0,1.31-1.33,26.39,26.39,0,0,0,4.93,1.32c.51.08,1,.16,1.61.22ZM140.44,128.7a23.17,23.17,0,0,0,39.71,0,23.16,23.16,0,0,0,39.7,0,23.17,23.17,0,0,0,39.71,0,23.17,23.17,0,0,0,43-11.93v-1.66a1.65,1.65,0,0,0-1.66-1.65H256.25v3.31a16.55,16.55,0,0,1-33.09,0v-3.31H176.84v3.31a16.55,16.55,0,0,1-33.09,0v-3.31H99.08a1.65,1.65,0,0,0-1.65,1.65v1.66a23.16,23.16,0,0,0,43,11.93ZM255,109.53a1.66,1.66,0,0,0,1.29.62h43a1.66,1.66,0,0,0,1.06-2.93L280.47,90.68a1.63,1.63,0,0,0-1.06-.39H243a1.66,1.66,0,0,0-1.3,2.69ZM158.28,93A1.66,1.66,0,0,0,157,90.29h-36.4a1.65,1.65,0,0,0-1.06.39L99.68,107.22a1.66,1.66,0,0,0,1,2.93h43a1.66,1.66,0,0,0,1.29-.62Zm121.13,51.91a28,28,0,0,1-19.85-8.2,28.13,28.13,0,0,1-39.71,0,28.11,28.11,0,0,1-39.7,0,28.13,28.13,0,0,1-39.71,0,28.14,28.14,0,0,1-41.36-1.8V260.67a3.33,3.33,0,0,0,3.33,3.34H297.59a3.34,3.34,0,0,0,3.33-3.34V134.89A28.05,28.05,0,0,1,279.41,144.89Zm-157.16,9.93H277.76a3.29,3.29,0,0,1,3.31,3.28v82.77a3.31,3.31,0,0,1-3.31,3.29H122.25a3.31,3.31,0,0,1-3.32-3.29V158.1A3.32,3.32,0,0,1,122.25,154.82Zm56.24-44.67a1.67,1.67,0,0,1-1.44-.84,1.69,1.69,0,0,1,0-1.67L187,91.1a1.66,1.66,0,0,1,1.42-.81h23.16a1.66,1.66,0,0,1,1.42.81l9.93,16.54a1.69,1.69,0,0,1,0,1.67,1.64,1.64,0,0,1-1.44.84ZM51,309.09a14.14,14.14,0,0,0,3.24.38,11.62,11.62,0,0,0,7.55-2.29,7.45,7.45,0,0,0,2.83-6.1,6.7,6.7,0,0,0-2-5.1,10.37,10.37,0,0,0-5.93-2.41l-3.62-.45a8.2,8.2,0,0,1-3.9-1.36,3.25,3.25,0,0,1-1.28-2.71,4.33,4.33,0,0,1,1.71-3.55A7,7,0,0,1,54,284.14a8,8,0,0,1,3.19.61,4.82,4.82,0,0,1,2.15,1.74,6.29,6.29,0,0,1,.63,1.43c.44,1.11,1,1.67,1.85,1.67a1.74,1.74,0,0,0,1.27-.44,1.62,1.62,0,0,0,.45-1.23v-.23L63.26,283a2,2,0,0,0-.48-1.4,2.29,2.29,0,0,0-1.38-.29,1.7,1.7,0,0,0-1.08.25,1.17,1.17,0,0,0-.37.9,22.35,22.35,0,0,0-3.12-1,11.61,11.61,0,0,0-2.62-.33,10.87,10.87,0,0,0-7.14,2.36,7.25,7.25,0,0,0-2.86,5.81,6.29,6.29,0,0,0,2.15,5.09,13.47,13.47,0,0,0,6.83,2.46l3.35.46a5.78,5.78,0,0,1,3.27,1.4,3.85,3.85,0,0,1,1.12,2.87A4.24,4.24,0,0,1,59.1,305a7.62,7.62,0,0,1-4.73,1.38,9,9,0,0,1-4.09-.86,5.47,5.47,0,0,1-2.5-2.44,9.89,9.89,0,0,1-.52-1.47c-.39-1.3-1-1.95-1.94-1.95a1.85,1.85,0,0,0-1.39.45,2.25,2.25,0,0,0-.42,1.54v.41l.29,5.25a3.06,3.06,0,0,0,.53,1.79,1.75,1.75,0,0,0,1.42.56,1.78,1.78,0,0,0,1.29-.4,2.33,2.33,0,0,0,.52-1.41A19.72,19.72,0,0,0,51,309.09Zm23.88-3.6v-6.9h4a13.88,13.88,0,0,0,8.37-2.1,8.31,8.31,0,0,0,0-12.51,13.9,13.9,0,0,0-8.35-2.13H68.34a1.65,1.65,0,0,0-1.18.42,1.68,1.68,0,0,0-.4,1.21,1.47,1.47,0,0,0,.48,1.28,5.14,5.14,0,0,0,2.48.35H71.3v20.38H68.38a1.69,1.69,0,0,0-1.23.39,1.52,1.52,0,0,0-.39,1.17,1.66,1.66,0,0,0,.4,1.21,1.57,1.57,0,0,0,1.18.42H79.4a3.16,3.16,0,0,0,1.81-.36,1.47,1.47,0,0,0,.47-1.27,1.37,1.37,0,0,0-.49-1.18,2.77,2.77,0,0,0-1.61-.38Zm4.23-20.38a8.94,8.94,0,0,1,5.31,1.31,4.56,4.56,0,0,1,1.77,3.92,4.61,4.61,0,0,1-1.76,4,9,9,0,0,1-5.32,1.31H74.85v-10.5Zm22.41-6.21a1.66,1.66,0,0,0-3.31,0v3H97a5.76,5.76,0,0,0-2.66.36,1.45,1.45,0,0,0-.48,1.27,1.39,1.39,0,0,0,.55,1.26,3.6,3.6,0,0,0,1.93.37h3.31L92,305.49h-.43a3.45,3.45,0,0,0-1.84.34,1.4,1.4,0,0,0-.47,1.22,1.49,1.49,0,0,0,.47,1.28,3.58,3.58,0,0,0,1.93.35h6a4.21,4.21,0,0,0,2.13-.35,1.45,1.45,0,0,0,.49-1.28,1.33,1.33,0,0,0-.54-1.21,4.09,4.09,0,0,0-2-.35H95.41l1.94-5.38h11.49l2.2,5.38h-2.11a4,4,0,0,0-2,.35,1.33,1.33,0,0,0-.53,1.21,1.48,1.48,0,0,0,.49,1.28,4.27,4.27,0,0,0,2.2.35h6.15a2.66,2.66,0,0,0,1.61-.35,1.56,1.56,0,0,0,.43-1.28,1.44,1.44,0,0,0-.45-1.22,3.05,3.05,0,0,0-1.68-.34h-.38l-8.32-20.78V278.9a1.66,1.66,0,0,0-3.31,0v3h-1.65Zm1.9,7.49,4.35,10.71H98.48l4.39-12,.31.77a1.62,1.62,0,0,0,.21.51Zm16-1.28h6.49v20.38h-4.23a2.4,2.4,0,0,0-1.5.36,1.47,1.47,0,0,0-.44,1.2,1.66,1.66,0,0,0,.4,1.21,1.57,1.57,0,0,0,1.18.42H134a1.57,1.57,0,0,0,1.18-.42,1.66,1.66,0,0,0,.4-1.21,1.45,1.45,0,0,0-.43-1.18,2.06,2.06,0,0,0-1.38-.38H129.4V285.11h6.49l.23,5.88a4.44,4.44,0,0,0,.38,2.16,1.46,1.46,0,0,0,1.24.47,1.86,1.86,0,0,0,1.29-.4,1.54,1.54,0,0,0,.43-1.21s0-.1,0-.34,0-.5,0-.77l-.25-7.46a1.63,1.63,0,0,0-.43-1.21,1.86,1.86,0,0,0-1.27-.38H117.82a1.86,1.86,0,0,0-1.27.38,1.69,1.69,0,0,0-.45,1.21l-.23,7.46c0,.24,0,.48,0,.71l0,.36a1.73,1.73,0,0,0,.39,1.23,1.58,1.58,0,0,0,1.19.42,1.66,1.66,0,0,0,1.37-.47,4.32,4.32,0,0,0,.39-2.16Zm40.79,24a14,14,0,0,0,3.23.38,11.64,11.64,0,0,0,7.56-2.29,7.48,7.48,0,0,0,2.83-6.1,6.7,6.7,0,0,0-2-5.1,10.4,10.4,0,0,0-5.93-2.41l-3.62-.45a8.16,8.16,0,0,1-3.9-1.36,3.25,3.25,0,0,1-1.28-2.71,4.33,4.33,0,0,1,1.71-3.55,6.94,6.94,0,0,1,4.44-1.36,7.91,7.91,0,0,1,3.19.61,4.82,4.82,0,0,1,2.15,1.74,6.29,6.29,0,0,1,.63,1.43c.44,1.11,1.06,1.67,1.86,1.67a1.75,1.75,0,0,0,1.27-.44,1.65,1.65,0,0,0,.45-1.23v-.23l-.32-4.73a2,2,0,0,0-.47-1.4,2.29,2.29,0,0,0-1.38-.29,1.75,1.75,0,0,0-1.09.25,1.2,1.2,0,0,0-.36.9,22.79,22.79,0,0,0-3.12-1,11.62,11.62,0,0,0-2.63-.33,10.84,10.84,0,0,0-7.13,2.36,7.19,7.19,0,0,0-2.86,5.81,6.26,6.26,0,0,0,2.15,5.09,13.47,13.47,0,0,0,6.83,2.46l3.34.46a5.75,5.75,0,0,1,3.27,1.4,3.81,3.81,0,0,1,1.12,2.87,4.23,4.23,0,0,1-1.82,3.53,7.63,7.63,0,0,1-4.74,1.38,9,9,0,0,1-4.08-.86,5.47,5.47,0,0,1-2.5-2.44,8.87,8.87,0,0,1-.52-1.47q-.58-1.95-1.95-1.95a1.86,1.86,0,0,0-1.39.45,2.24,2.24,0,0,0-.41,1.54v.41l.29,5.25a3,3,0,0,0,.53,1.79,1.72,1.72,0,0,0,1.41.56,1.77,1.77,0,0,0,1.29-.4,2.27,2.27,0,0,0,.52-1.41A19.83,19.83,0,0,0,160.19,309.09Zm22.27-13H193.3v9.41h-1.11a5,5,0,0,0-2.24.34,1.3,1.3,0,0,0-.59,1.22,1.48,1.48,0,0,0,.5,1.28,4.76,4.76,0,0,0,2.33.35h4.68a4.27,4.27,0,0,0,2.2-.35,1.49,1.49,0,0,0,.47-1.28,1.38,1.38,0,0,0-.5-1.21,3.47,3.47,0,0,0-1.85-.35h-.36V285.11h.54a2.82,2.82,0,0,0,1.7-.37,1.52,1.52,0,0,0,.47-1.26,1.62,1.62,0,0,0-.42-1.22,1.72,1.72,0,0,0-1.23-.41h-5.52a5.33,5.33,0,0,0-2.5.36,1.44,1.44,0,0,0-.51,1.27,1.41,1.41,0,0,0,.56,1.25,3.35,3.35,0,0,0,1.84.38h1.54V293H182.46v-7.87h1a5.06,5.06,0,0,0,2.31-.36,1.35,1.35,0,0,0,.61-1.27,1.46,1.46,0,0,0-.49-1.27,4.73,4.73,0,0,0-2.29-.36h-5.7a1.89,1.89,0,0,0-1.3.4,1.6,1.6,0,0,0-.42,1.23,1.46,1.46,0,0,0,.51,1.27,3.42,3.42,0,0,0,1.86.36h.36v20.38h-.4a3.48,3.48,0,0,0-1.85.34,1.38,1.38,0,0,0-.48,1.22,1.57,1.57,0,0,0,.42,1.22,1.68,1.68,0,0,0,1.25.41h6a4,4,0,0,0,2.08-.35,1.47,1.47,0,0,0,.48-1.28,1.35,1.35,0,0,0-.54-1.2,3.58,3.58,0,0,0-1.88-.36h-1.52Zm38.7-11a11.75,11.75,0,0,0-17.6,0,16.79,16.79,0,0,0,0,20.34,11.7,11.7,0,0,0,17.57,0,16.74,16.74,0,0,0,0-20.32ZM206.4,303.26a15.93,15.93,0,0,1,0-16.06,7.62,7.62,0,0,1,12,0,15.81,15.81,0,0,1,0,16,7.58,7.58,0,0,1-11.94,0Zm26.65,2.23v-6.9h4a13.88,13.88,0,0,0,8.37-2.1,8.32,8.32,0,0,0,0-12.51,13.85,13.85,0,0,0-8.34-2.13H226.54a1.64,1.64,0,0,0-1.18.42,1.69,1.69,0,0,0-.41,1.21,1.51,1.51,0,0,0,.49,1.28,5.11,5.11,0,0,0,2.48.35h1.58v20.38h-2.92a1.67,1.67,0,0,0-1.23.39,1.57,1.57,0,0,0-.4,1.17,1.67,1.67,0,0,0,.41,1.21,1.56,1.56,0,0,0,1.18.42H237.6a3.18,3.18,0,0,0,1.81-.36,1.5,1.5,0,0,0,.47-1.27,1.38,1.38,0,0,0-.5-1.18,2.72,2.72,0,0,0-1.6-.38Zm4.23-20.38a8.89,8.89,0,0,1,5.3,1.31,4.57,4.57,0,0,1,1.78,3.92,4.64,4.64,0,0,1-1.76,4,9,9,0,0,1-5.32,1.31h-4.23v-10.5Zm40.83,23.29a8.37,8.37,0,0,0,2.47-.92,7.89,7.89,0,0,0,2.87-2.78,7.17,7.17,0,0,0,1-3.75,6.5,6.5,0,0,0-1.19-4,7.61,7.61,0,0,0-3.63-2.47,6,6,0,0,0,2.29-2.19,6.17,6.17,0,0,0,.77-3.12,6.34,6.34,0,0,0-2.52-5.42,12.12,12.12,0,0,0-7.3-1.87H262.33a1.59,1.59,0,0,0-1.18.42,1.69,1.69,0,0,0-.41,1.21,1.47,1.47,0,0,0,.5,1.28,4.42,4.42,0,0,0,2.24.35h.75v20.38h-.75a5.36,5.36,0,0,0-2.38.33,1.37,1.37,0,0,0-.49,1.23,1.64,1.64,0,0,0,.39,1.22,1.6,1.6,0,0,0,1.19.41h12.08a19.75,19.75,0,0,0,3.84-.28Zm-10.33-23.29h5.61a6.52,6.52,0,0,1,4,1.08,3.65,3.65,0,0,1,1.41,3.08,3.53,3.53,0,0,1-1.55,3.15,8.87,8.87,0,0,1-4.77,1h-4.72Zm0,11.11H273a11.55,11.55,0,0,1,5.85,1.06,3.91,3.91,0,0,1,1.66,3.57,3.84,3.84,0,0,1-1.74,3.57,12.09,12.09,0,0,1-6,1.07h-5Zm39-11.13a11.75,11.75,0,0,0-17.6,0,16.79,16.79,0,0,0,0,20.34,11.7,11.7,0,0,0,17.57,0,16.74,16.74,0,0,0,0-20.32Zm-14.53,18.17a15.93,15.93,0,0,1,0-16.06,7.62,7.62,0,0,1,12,0,15.81,15.81,0,0,1,0,16,7.58,7.58,0,0,1-11.94,0Zm31,2.23V298.3l7.69-13.19h.36a3.3,3.3,0,0,0,1.85-.36,1.92,1.92,0,0,0,0-2.54,4.43,4.43,0,0,0-2.21-.36h-4.16a3.83,3.83,0,0,0-2.06.34,1.61,1.61,0,0,0-.41,1.29,1.51,1.51,0,0,0,.48,1.27,2.86,2.86,0,0,0,1.69.36h.93l-5.68,9.82-5.47-9.82H317a3.91,3.91,0,0,0,2-.36,1.4,1.4,0,0,0,.56-1.27,1.49,1.49,0,0,0-.47-1.26,3.12,3.12,0,0,0-1.8-.37h-6.19a1.93,1.93,0,0,0-1.31.4,1.64,1.64,0,0,0-.41,1.23,1.45,1.45,0,0,0,.49,1.27,3.35,3.35,0,0,0,1.86.36h.38L319.68,298v7.51H316.4a4.91,4.91,0,0,0-2.21.33,1.32,1.32,0,0,0-.53,1.23,1.49,1.49,0,0,0,.47,1.28,3.56,3.56,0,0,0,1.95.35h10.74a3.67,3.67,0,0,0,2-.35,1.51,1.51,0,0,0,.49-1.28,1.41,1.41,0,0,0-.49-1.23,4.73,4.73,0,0,0-2.23-.33Zm16.21,2.4a2.27,2.27,0,0,1-.52,1.41,1.77,1.77,0,0,1-1.29.4,1.72,1.72,0,0,1-1.41-.56,3,3,0,0,1-.53-1.79l-.3-5.25v-.41a2.3,2.3,0,0,1,.42-1.54,1.86,1.86,0,0,1,1.39-.45c.91,0,1.55.65,1.95,1.95a8.87,8.87,0,0,0,.52,1.47,5.42,5.42,0,0,0,2.5,2.44,9,9,0,0,0,4.08.86A7.64,7.64,0,0,0,351,305a4.26,4.26,0,0,0,1.82-3.53,3.81,3.81,0,0,0-1.12-2.87,5.78,5.78,0,0,0-3.27-1.4l-3.35-.46a13.47,13.47,0,0,1-6.83-2.46,6.33,6.33,0,0,1-2.15-5.09,7.27,7.27,0,0,1,2.86-5.81,10.88,10.88,0,0,1,7.14-2.36,11.62,11.62,0,0,1,2.63.33,23.25,23.25,0,0,1,3.12,1,1.16,1.16,0,0,1,.36-.9,1.72,1.72,0,0,1,1.08-.25,2.29,2.29,0,0,1,1.38.29,2,2,0,0,1,.48,1.4l.32,4.73v.23a1.66,1.66,0,0,1-.46,1.23,1.71,1.71,0,0,1-1.26.44c-.8,0-1.42-.56-1.86-1.67a6.29,6.29,0,0,0-.63-1.43,4.82,4.82,0,0,0-2.15-1.74,8,8,0,0,0-3.19-.61,6.94,6.94,0,0,0-4.44,1.36,4.3,4.3,0,0,0-1.71,3.55,3.23,3.23,0,0,0,1.28,2.71,8.12,8.12,0,0,0,3.9,1.36l3.62.45A10.34,10.34,0,0,1,354.5,296a6.67,6.67,0,0,1,2,5.1,7.47,7.47,0,0,1-2.82,6.1,11.66,11.66,0,0,1-7.56,2.29,14,14,0,0,1-3.23-.38A19.53,19.53,0,0,1,339.46,307.89Z"/></g></svg>