<svg xmlns="http://www.w3.org/2000/svg" viewBox="0 0 400 400"><defs><style>.cls-1{fill:#2b5a9f;}.cls-1,.cls-2,.cls-3,.cls-4,.cls-5,.cls-6{fill-rule:evenodd;}.cls-2{fill:#111;}.cls-3{fill:#da2168;}.cls-4{fill:#efb000;}.cls-5{fill:#fff;}.cls-6{fill:#2c5ba1;}</style></defs><title>logo-finals</title><g id="Layer_23" data-name="Layer 23"><path class="cls-1" d="M370.3,370c-.94,1.73-2.37,2.26-4.33,2.26q-164.67,0-329.35,0c-3.36,0-4.33-1-4.33-4.38,0-2.66,0-5.32,0-8,0-2.31,1.24-3.52,3.54-3.58h1q164.52,0,329,0c2,0,3.53.43,4.49,2.26Z"/><path class="cls-2" d="M366.41,121.94c1-8.5-3.07-15-9.18-20.32-4.48-3.89-10.22-4.94-15.92-5.21a160.5,160.5,0,0,0-19.74,0c-7.92.59-15.8,1.91-23.7,2.9-.82.1-1.16.47-1.21,1.33-.8,12.67-1.79,25.32-2.36,38a104.56,104.56,0,0,0,.81,15.09,13.73,13.73,0,0,0,4.7,9.64c.63.52,1.33,1,2.09,1.5a34.37,34.37,0,0,0-8.49,11.4c-3.53,8-3.84,16.38-3,25,.75,7.81,4.26,14,9.77,19.27.54.52,1.1,1,1.76,1.66-4.35,1.49-9.15,1.8-11.18,6.53a2.66,2.66,0,0,1-.34,0l-1.14-.87a31,31,0,0,0-17.21-6.79c-1.68-.14-2.08-.69-2.11-2.25q-.61-27.81-1.33-55.62c0-.41,0-.83.06-1.32.37,0,.68-.1,1-.1,4.41,0,8.82,0,13.23,0a8.86,8.86,0,0,0,8.94-8.74c.17-5,.31-10,.35-15a280.6,280.6,0,0,0-1.25-32.79c-.73-6.61-5.21-9.81-10.63-9.28Q261,97.87,241.61,99.69c-7.8.74-15.58,1-23.26-1.08a8.75,8.75,0,0,0-3.46-.12,8.88,8.88,0,0,0-6.85,5.27,1.68,1.68,0,0,1-.41,0q-11.35-3.3-19,5.71a1.74,1.74,0,0,1-1.18.52c-1.72.06-3.44,0-5.24,0-1.22-10.31-6-18.33-16.87-20.52-10.5-2.1-17.68,3.18-22.31,12.08-3-1.59-5.85-3.27-8.87-4.67a13.69,13.69,0,0,0-8.2-1.28c-6.07,1-12.19,1.75-18.27,2.72-5.17.83-10.32,1.83-15.49,2.72a2.15,2.15,0,0,1-1.1-.33c-1.7-.82-3.31-2-5.1-2.41-4.55-1-9.15-1.87-13.78-2.44A55.31,55.31,0,0,0,50.68,97c-8.92,2.45-15.7,7.47-18.77,16.52A43,43,0,0,0,29.86,131c.86,10.7,4.91,19.8,13.79,26.34.11.08.14.27.21.41-5.29,1.26-7.65,4.06-8.09,9.42-.3,3.65-.73,7.29-1.1,10.94-.7,7-1.42,14-2.08,21.08a8.72,8.72,0,0,0,3.85,8.26c1.71,1.25,3.47,2.44,5.26,3.6,1.48,1,3,1.83,4.67,2.81l-1.3.7c-6,3.15-10.5,7.77-12.75,14.24a48.41,48.41,0,0,0-2.27,21.53c1.23,10.8,5.53,20,14.47,26.6.8.6,1.53,1.3,2.49,2.13-7,.13-10,2.73-10.73,9.33C35,300.3,33.9,312.26,32.79,324.21A8.09,8.09,0,0,0,36,331.65c8.18,6.32,17,11.44,27.15,13.92,7.32,1.8,14.58,1.76,21.35-2a74.94,74.94,0,0,0,7-5c1.08,6.63,2.9,8.57,9.8,10.12,6.3,1.41,12.66,1.3,19,.7,2.16-.21,4.31-.56,6.47-.62,1.83-.06,3.67.32,5.51.29,2.33,0,4.66-.3,7-.46,5.14-.34,10.28-.62,15.42-1.05,5.46-.46,8.73-4.17,8.67-9.65,0-2.29-.08-4.57-.11-6.86a13.09,13.09,0,0,1,.14-1.43l1,1.43A57.4,57.4,0,0,0,175,343.47c13,11.22,30.52,9.87,41.59-3.28,1-1.2,1.92-2.48,2.92-3.78,2,4.4,3.16,5.43,7.83,6.89q15.18,4.76,30.38,9.49c7.11,2.22,12.7-2.18,12.37-9.66-.22-4.94-.31-9.88-.54-14.81a2.12,2.12,0,0,1,1.56-2.45A54.09,54.09,0,0,0,294,308.21a4,4,0,0,0,.36-.62l6.39,8.6c-.19.62-.58,1.61-.8,2.63-1.11,5.25-2.22,10.49-3.24,15.75a8.71,8.71,0,0,0,5.62,10.25c10.52,3.88,21.33,6.5,32.64,6.29,12.13-.23,21-5.62,26.15-16.77,3.22-7,3-13.86-1.72-20.16a7.79,7.79,0,0,1-1.7-5.5c.22-5.94,0-11.9-.18-17.85a8.58,8.58,0,0,0-7.09-8.26c-1.59-.33-3.2-.49-4.9-.75l.55-1.28c6.47-15.05,13-30.1,19.4-45.18a8.45,8.45,0,0,0-2.22-10.29,13,13,0,0,0-4-2.11c-2.11-.77-4.29-1.3-6.6-2A46.88,46.88,0,0,0,364,200.32c1.45-5.35,2.49-10.7.91-16.29-1.93-6.87-4.32-13.44-9.3-18.77a23.24,23.24,0,0,0-8.78-5.87c2.19-.68,4-1.19,5.73-1.79,11.54-4,16.57-17.21,11.33-26.79-.23-.41,0-1.15.16-1.69C364.83,126.72,366.14,124.39,366.41,121.94Zm-264,103-4.79.55c0-.76-.07-1.46-.12-2.55l5,1.68A3.06,3.06,0,0,1,102.41,224.92Zm52.81,6.73c-3.36-1-6.88-2.32-10.51-3.13s-7.32-1.15-11-1.69c1.45-4.33.23-8.82.17-13.29,0-2.92-.28-5.84-.51-8.75a1.86,1.86,0,0,1,1.13-2c2.21-1.32,4.35-2.77,6.7-4.29.27,4.38,3.31,6.55,6.51,8.68,5.16,3.44,10.24,7,15.19,10.39Zm69.3-71.45c-.41,7.77-.81,15.42-1.21,23.07h-.61l-9.86-23.08ZM221,232.82c-2.95-6.58-6.06-12.59-11.53-17l12.13-6c-.38,5.83.5,11.3,6.63,14.66C224.06,225.91,222.14,228.9,221,232.82Zm87,25.05a1.22,1.22,0,0,1,0,1.1c-.94,1.53-1.94,3-3.07,4.75-.57-4-1.11-7.77-1.68-11.78C304.83,254,306.4,255.91,307.91,257.87Zm-3.81,26.69c.32-3.58.66-7.25,1-10.94l8.64,8.1Z"/><path class="cls-3" d="M218.26,149.27c4.73,0,9.46.06,14.19,0,1.3,0,1.84.45,2,1.63a54.49,54.49,0,0,1,.63,7.29c-.34,8.49-.93,17-1.36,25.45-.44,8.85-.79,17.72-1.23,26.57a4.27,4.27,0,0,0,2.33,4.21,36.25,36.25,0,0,0,6,2.79c7.25,2.4,14.78,3.4,22.33,4.21,2.19.24,2.55-.09,2.5-2.26L264,153c0-.62,0-1.25,0-2.06h1.85c6.49,0,13,0,19.46,0,1.51,0,2.07-.57,2.08-2.07.07-9.3.36-18.6.21-27.89-.1-6.21-.8-12.4-1.21-18.6-.1-1.42-.7-2.13-2.23-2s-2.87.06-4.3.21C266.93,101.9,254,103.3,241,104.46a59,59,0,0,1-20.42-1.4c-1.85-.48-2.33-.09-2.43,1.89-.16,3.14-.35,6.26-.51,9.4Q216.83,130.66,216,147C215.89,149,216.2,149.26,218.26,149.27Z"/><path class="cls-3" d="M196.56,123.74c3.12,6.25,10.74,7.64,15.38,2.79a13,13,0,0,0,3.49-8.31,33.37,33.37,0,0,0-1.51-5.13c-3-6.42-11-7.76-15.55-2.71A12,12,0,0,0,196.56,123.74Z"/><path class="cls-3" d="M172.92,125.13a17,17,0,0,0-6.66,10.33c-4.37,19.4-9.28,38.67-14,58a2.38,2.38,0,0,0,1.06,3c5.46,3.66,10.87,7.42,16.3,11.14,1.77,1.21,2.49.91,2.9-1.22.5-2.59,1-5.19,1.49-7.93,3.24,0,6.42.06,9.59,0a1.9,1.9,0,0,1,2,1.3c1.61,3.29,3.31,6.53,4.94,9.81a1.76,1.76,0,0,0,2.41,1.1c2.74-.84,5.57-1.4,8.25-2.38,5.27-1.93,10.53-3.91,15.66-6.18a21.64,21.64,0,0,0,5.47-4,3.92,3.92,0,0,0,.79-4.95c-1.44-3.07-2.68-6.23-4-9.35l-29-67.73c-.87-2-1.37-2.26-3.17-1C182.26,118.31,177.51,121.63,172.92,125.13Z"/><path class="cls-3" d="M157,119.18a11.21,11.21,0,0,0,9.6,2.8c6.41-1.13,11-7,11-14.08a15.75,15.75,0,0,0-2.8-9c-4.68-6.66-13.46-7.29-19-1.36S150.81,113.84,157,119.18Z"/><path class="cls-3" d="M96.31,146.79c.27,13.8,1,27.6,1.72,41.39.35,7.16.94,14.31,1.38,21.47a2.07,2.07,0,0,0,1.56,2.1c8.89,3,17.77,6,26.66,9.06,1.66.56,2.32.09,2.24-1.65-.13-3-.33-5.95-.5-8.91q-.42-7.32-.83-14.63c.47-.23.85-.41,1.24-.58s.88-.36,1.31-.57c13.51-6.68,21.06-17.88,24.27-32.28a77.09,77.09,0,0,0,.87-26.15,56.32,56.32,0,0,0-5.92-20.2c-3.63-6.81-8.66-12.19-16-15.09a7.48,7.48,0,0,0-3.52-.78c-10.3,1.44-20.58,3-30.87,4.53a2.28,2.28,0,0,0-2.22,2.07,50.4,50.4,0,0,0-1,6.77C96.51,124.49,96.09,135.64,96.31,146.79Z"/><path class="cls-3" d="M49.33,201.59c6.47,4,13.2,7.32,20.89,8.12,6.38.67,12-1,16-6.24a31.38,31.38,0,0,0,3.9-7.07c3.87-9.3,6-18.92,4.35-29.06C93.3,160.17,90.38,154,84.08,149.8a38.83,38.83,0,0,1-5.34-4.52,13.82,13.82,0,0,1-4.32-8.83c-.31-3.28.48-4,3.37-2.35,3.13,1.75,6,4,9,6a9.38,9.38,0,0,0,2.08.77,7.23,7.23,0,0,0,.72-2.11c.06-5.63,0-11.26,0-16.89h-.23c0-5.58,0-11.16,0-16.74,0-1.58-.51-2.36-2-2.62-4.19-.7-8.34-1.63-12.55-2.15a49.36,49.36,0,0,0-18.83.84c-7.28,2-12.73,6-14.24,13.79a50,50,0,0,0-1,12c.45,8.78,3.76,16.27,11.25,21.48a27.26,27.26,0,0,1,2.83,2.32c3.13,2.83,6.13,5.79,7.67,9.82.56,1.47,1.25,3.17.06,4.55s-2.94,1-4.36.58c-3-.85-6-2-9-3.06-1.7-.63-2.36-.3-2.54,1.5-.37,3.75-.76,7.5-1.13,11.25-.69,6.77-1.34,13.53-2.07,20.29a2.74,2.74,0,0,0,1.39,2.92C46.35,199.56,47.8,200.65,49.33,201.59Z"/><path class="cls-3" d="M98.26,287.63C96.85,280.48,93.82,274.3,87.6,270a45.23,45.23,0,0,1-6.23-5.44,14.8,14.8,0,0,1-4.47-9.77c-.22-3.69.55-4.35,3.75-2.54s6.31,4.27,9.48,6.38a15.6,15.6,0,0,0,2.31,1.06,9.39,9.39,0,0,0,.74-2.54c.07-6.05,0-12.11,0-18.17h-.15c0-6.16,0-12.33,0-18.49,0-1.73-.51-2.65-2.28-3-4.61-.76-9.17-1.81-13.8-2.38-6.83-.84-13.68-.83-20.38,1.11-7.46,2.15-12.81,6.54-14.71,14.37a44.24,44.24,0,0,0-1.28,13.75c.73,9.64,4.15,17.87,12.27,23.78a33,33,0,0,1,10,10.79,22.22,22.22,0,0,1,1.87,6,2.07,2.07,0,0,1-2.16,2.56,12.08,12.08,0,0,1-4.08-.31c-3.08-1-6.09-2.17-9.1-3.32-1.39-.54-2-.28-2.27,1.15-.06.36-.12.73-.15,1.1-1.13,11.58-2.27,23.15-3.32,34.73a2.86,2.86,0,0,0,.9,2.13,52.37,52.37,0,0,0,5.2,3.67c7,4.39,14.22,8,22.55,9.06,8.07,1,15-2.33,19-9.43A50.08,50.08,0,0,0,94.63,319C98.39,308.86,100.39,298.46,98.26,287.63Z"/><path class="cls-3" d="M158.89,333.91q-1.12-47.27-2.21-94.51c-.05-2.29-.82-3.48-2.84-4.31-6.6-2.72-13.51-3.59-20.57-3.66-1.39,0-1.66.79-1.61,2,.44,9.77.88,19.53,1.25,29.3.12,3.16,0,6.33,0,9.65h-2.3c-2.78,0-3.1,0-3.41-2.78a88,88,0,0,1-.58-11.59c.17-7.76.65-15.5.9-23.25a26.22,26.22,0,0,0-.53-5.37c-.27-1.52-1.27-2.18-2.91-2-2.9.39-5.81.65-8.71,1-4.38.48-8.76,1-13.15,1.44-1.24.13-1.81.71-1.71,2,0,.63,0,1.27,0,1.91q.93,50.3,1.87,100.58c0,2.79,0,2.84,2.78,3.51,7.26,1.78,14.56,1.22,21.85.26,1.21-.16,1.32-1,1.27-2-.2-3.72-.39-7.43-.53-11.15-.22-5.67-.38-11.35-.58-17.23,1.6-.3,3-.63,4.5-.83,1.16-.15,1.65.26,1.56,1.64-.61,9.06-1.09,18.13-1.67,27.19a2.8,2.8,0,0,0,1.82,3,13.11,13.11,0,0,0,7.63,1.1c5.19-.76,10.35-1.72,15.49-2.73C159,336.55,159,336.41,158.89,333.91Z"/><path class="cls-3" d="M222.78,249.85c-2.22-8.31-4.66-16.58-9.13-24a26.22,26.22,0,0,0-6-7.15,32.68,32.68,0,0,0-17-7.06c-5-.51-9.87-.13-14,3.33a31.67,31.67,0,0,0-7.23,8.82c-6.14,10.84-8.61,22.64-9,35a178.79,178.79,0,0,0,3,36c1.23,7.1,2.49,14.2,5.89,20.73,3.68,7.06,7.7,13.83,13.87,19.06,10,8.51,22.66,7.41,30.93-2.77,4.24-5.21,6.52-11.38,8.21-17.78a137,137,0,0,0,4.12-32.06C226.56,265.19,226.29,263,222.78,249.85Z"/><path class="cls-3" d="M300.47,266.51c-.22-8.43-1.07-16.75-4.5-24.59-3.58-8.2-9.34-13.94-18.33-16-3.86-.89-7.7-.47-11.56-.12-10.16.92-20.32,1.78-30.48,2.71-3.15.29-3.41.59-4.23,3.69a6.19,6.19,0,0,0-.13.62,119.2,119.2,0,0,0-2.15,23.45q-.24,21.6,0,43.2c.13,10.25.69,20.5,1,30.75a2.14,2.14,0,0,0,1.67,2.33c10.49,3.23,21,6.53,31.45,9.79,1.75.54,2.39,0,2.33-1.79-.21-6.85-.37-13.71-.73-20.55-.09-1.69.43-2.21,1.94-2.71,14-4.62,24.39-13.29,30-27.17C299.87,282.55,300.71,274.61,300.47,266.51Z"/><path class="cls-4" d="M321.93,285.81a32.32,32.32,0,0,0-11.39,2.76,10.39,10.39,0,0,0-3.12,16.51,21,21,0,0,0,7.7,4.94c3.22,1.36,6.37,2.88,9.48,4.48a13.44,13.44,0,0,1,2.5,2.24c-.09.26-.19.51-.28.77a36.66,36.66,0,0,1-4.69,0c-3.16-.41-6.29-1-9.42-1.57-1.21-.23-1.82.16-2.06,1.32q-1.56,7.65-3.15,15.28a1.67,1.67,0,0,0,1.24,2.2c9.49,3.26,19.12,5.73,29.25,5.56,9.57-.15,16.33-4.61,19.71-13,2.38-5.88.69-11.59-4.64-15a41.07,41.07,0,0,0-5.45-2.55c-2.36-1.08-4.77-2.06-7.06-3.26a3.44,3.44,0,0,1-2.18-3.42,9.23,9.23,0,0,1,2.2.12q5.25,1.57,10.46,3.27c1.62.53,2.35.13,2.33-1.58-.05-5.42-.15-10.84-.2-16.26a1.64,1.64,0,0,0-1.65-1.88C341.67,285.59,331.82,284.91,321.93,285.81Z"/><path class="cls-4" d="M344.08,222.36c-2.09-.61-2.27-.52-3.11,1.46l-5.35,12.66a12.77,12.77,0,0,0-1.06-1.56c-3.71-3.95-7.46-7.86-11.14-11.83a2.39,2.39,0,0,0-2.8-.75c-5.67,1.76-11.37,3.45-17.05,5.17-3.44,1-3.52,1.35-1.26,4.13,6.19,7.63,12.38,15.26,18.68,23-2,3.13-4,6.16-6,9.16-.66,1-.79,1.81.19,2.65,5.11,4.4,10.16,8.86,15.34,13.17a23.82,23.82,0,0,0,4.67,2.66,2.23,2.23,0,0,0,3.15-1,51.15,51.15,0,0,0,3.22-5.66q10-23,19.89-46c.7-1.62.41-2.1-1.36-2.62Q352.1,224.69,344.08,222.36Z"/><path class="cls-4" d="M345.76,162.75a66.86,66.86,0,0,0-15.57-3c-12.19-.95-24.39,9.14-27.52,18.73a40.32,40.32,0,0,0-1.37,18.88c.39,2.55.69,5.33,1.94,7.48,5.91,10.09,14.89,15.24,24.27,15.44,10.57,0,17.84-2.46,23.56-8.61a38.09,38.09,0,0,0,9-17.67c.61-2.62,1.35-5.37,1.11-8a36.13,36.13,0,0,0-3.9-12.72C354.82,168.24,351.24,164.52,345.76,162.75Z"/><path class="cls-4" d="M356.15,127.74c1.25-1.54,2.47-3,3.64-4.51a11.07,11.07,0,0,0,2.37-7.11c0-4.39-4.78-12.47-10.37-13.73a67.71,67.71,0,0,0-11.27-1.83c-10.81-.58-21.53.6-32.22,2.15-1.11.16-1.37.68-1.44,1.66-.25,3.49-.71,7-.82,10.48-.32,10-.61,20.06-.7,30.1a31.4,31.4,0,0,0,1.19,7.19,3.57,3.57,0,0,0,3.51,3,28.72,28.72,0,0,0,4.44.13c13.1-1.23,25.86-4.22,38.44-7.94a11.51,11.51,0,0,0,7.85-7.57c1.44-4.16.94-8.83-3.7-11.29A7,7,0,0,1,356.15,127.74Z"/><path class="cls-2" d="M187.35,262.39c.2,1.9.38,3.8.62,5.69a12.15,12.15,0,0,0,3.4,7.36c1.82,1.81,4,1.53,5.3-.69a7.54,7.54,0,0,0,1.08-2.79c.35-3.09.91-6.24.65-9.3a27.61,27.61,0,0,0-2.31-7.7c-.72-1.79-2.5-2.31-4.35-2.36s-2.48,1.26-2.89,2.53c-.76,2.33-1.23,4.76-1.82,7.15Z"/><path class="cls-5" d="M164.89,276.06c.11,1.17.44,2.21,1.85,2s1.44-1.31,1.33-2.44c-.26-2.58-.6-5.17-.74-7.76-.73-13.95,1.61-27.29,8.41-39.61a94.6,94.6,0,0,1,6.23-9c.62-.87,1.06-1.68.19-2.52s-1.84-.42-2.6.41a6.46,6.46,0,0,0-.73.84c-2,2.88-4.18,5.65-5.87,8.69-6.59,11.89-9.13,24.78-9.11,38.29C164.2,268.67,164.56,272.36,164.89,276.06Z"/><path class="cls-5" d="M241.28,231.06c-2.69,0-3.87,1.51-4.3,3.78-.82,4.32-1.75,8.64-2.15,13-1.15,12.29-.73,24.62-.31,37,.11,3.13.32,6.25.5,9.38a1.49,1.49,0,0,0,1.62,1.59c1,0,1.46-.75,1.53-1.7a7.72,7.72,0,0,0,0-1c-.74-15.12-1.37-30.26-.09-45.38.34-3.95,1.24-7.85,1.9-11.77a2,2,0,0,1,2-1.77c2-.17,4-.46,6-.73,1.06-.14,1.78-.79,1.45-1.84-.2-.63-1-1.09-1.28-1.39A60.66,60.66,0,0,1,241.28,231.06Z"/><path class="cls-2" d="M268.73,288c2.71-5.35.27-13.12-5.67-16.9v21.37A8.94,8.94,0,0,0,268.73,288Z"/><path class="cls-5" d="M108.07,233.48c-4,.41-4.15.41-4,4.44.47,12,1,24.07,1.67,36.09.17,3.34.52,6.67.94,10a3,3,0,0,0,1.35,1.84c.28.17,1.27-.37,1.61-.83s.17-1.12.12-1.69c-.45-5.61-1.08-11.21-1.37-16.82-.5-9.43-.78-18.87-1.18-28.31,0-1.06.26-1.5,1.38-1.57,1.7-.09,3.38-.38,5.06-.59,1-.14,1.81-.72,1.54-1.78-.17-.64-.93-1.13-1.22-1.46C111.65,233.07,109.87,233.3,108.07,233.48Z"/><path class="cls-5" d="M104.11,122.84c.25-3.89,1.21-7.74,1.81-11.61a2.26,2.26,0,0,1,2.47-2.09c1.75-.12,3.48-.44,5.22-.62,1.13-.12,2.07-.48,1.93-1.8s-1.25-1.51-2.39-1.37a56.33,56.33,0,0,1-6.16.77c-2.18,0-3.15,1.18-3.73,3a10.33,10.33,0,0,0-.51,1.67c-.76,5.56-2,11.12-2.13,16.71-.32,10.61-.11,21.24,0,31.86,0,3.29.32,6.58.51,9.86.06,1,.68,1.73,1.63,1.48.59-.15,1-.95,1.48-1.53.14-.21,0-.62,0-.94-.28-6.9-.57-13.8-1-23.22C103.45,139.29,103.6,131.06,104.11,122.84Z"/><path class="cls-2" d="M133.17,155.94c-.71-4.88-3.71-8.08-7.82-10.93.3,7.37.58,14.35.87,21.5C131.41,164.89,133.9,161,133.17,155.94Z"/><path class="cls-5" d="M228.38,110.08h12.27c1.12,0,2.1-.23,2.09-1.58s-1-1.6-2.12-1.61H225c-.94,0-1.89,0-2.83,0-.09.36-.14.56-.18.77a210.84,210.84,0,0,0-2.53,32.82c0,1.11.41,2,1.58,2s1.58-1,1.63-2.1c.29-6.78.56-13.57,1-20.35.2-3.27.71-6.53,1.09-9.93Z"/><path class="cls-5" d="M60.62,219.13c-8.74,1.49-14,6.73-15.42,15.45a32.24,32.24,0,0,0,.72,12c.25,1.12.72,2,2,1.73s1.3-1.26,1.16-2.4a59.42,59.42,0,0,1-.83-8.68c.18-8.35,4.6-13.37,12.82-15a42.67,42.67,0,0,1,16.28.32c1.08.21,2.27.39,2.56-1.08s-.87-1.9-2-2.06c-3.15-.43-6.3-.81-9.35-1.2C65.78,218.55,63.17,218.7,60.62,219.13Z"/><path class="cls-5" d="M46,129.67c.19,1.12.86,1.74,2,1.45S49.29,130,49.1,129c-.25-1.3-.59-2.59-.74-3.91-.49-4.3-.37-8.53,2.48-12.13,3.1-3.9,7.52-5.15,12.19-5.76a49.15,49.15,0,0,1,15.21.59c1.09.2,2.13.12,2.41-1.15s-.53-1.77-1.59-2c-6.75-1.19-13.51-1.54-20.24,0-9,2.1-14,8.31-14.09,17.15C45.15,124.45,45.55,127.06,46,129.67Z"/><path class="cls-5" d="M167.79,159.81a2.61,2.61,0,0,0,1.76-.89c.33-.32.34-1,.46-1.49,1.69-6.91,3.58-13.77,5-20.73a11.58,11.58,0,0,1,6.06-8.23c1.06-.62,2.14-1.19,3.23-1.73.94-.48,1.68-1.08,1.17-2.23a1.58,1.58,0,0,0-2.54-.63c-2.44,1.49-4.89,3-7.18,4.66a9.16,9.16,0,0,0-3.37,5.58c-1.74,7.55-3.62,15.06-5.45,22.58-.12.52-.23,1-.43,1.91C166.81,159,167.25,159.73,167.79,159.81Z"/><path class="cls-2" d="M179.81,171.5l-.36,0c-.69,3.91-1.37,7.82-2.09,12l5.72-1C181.94,178.69,180.88,175.09,179.81,171.5Z"/><path class="cls-2" d="M333.32,176.78a3.93,3.93,0,0,0-3.66-3c-1.78-.27-2.58,1-3.31,2.23-1.51,2.53-1.49,5.35-1.43,8.17a9.55,9.55,0,0,0,1.48,5.43c1.8,2.64,4.52,2.67,5.84-.22a54.94,54.94,0,0,0,2.28-7.23C334.06,180.07,333.73,178.41,333.32,176.78Z"/><path class="cls-5" d="M304.13,191.59c.2,1,.8,1.8,2,1.51s1.27-1.13,1.09-2.12c-.06-.32-.11-.63-.17-.94a17.47,17.47,0,0,1,2.5-13.39,31.22,31.22,0,0,1,11-10.13c.23-.13.46-.26.7-.38,1.08-.56,2.26-1.2,1.45-2.63s-2-.71-3-.14a36.25,36.25,0,0,0-11.5,9.64,22.29,22.29,0,0,0-4.74,14.31C303.59,188.25,303.81,189.93,304.13,191.59Z"/><path class="cls-5" d="M308.12,121.21v4.3c0,2,0,4,0,6.06,0,1,.46,1.78,1.6,1.79s1.56-.73,1.57-1.78c0-.48,0-1,0-1.44.2-6.89.35-13.79.62-20.69.1-2.36.34-2.63,2.7-2.88,3.16-.35,6.34-.46,9.52-.65,1-.07,1.79-.44,1.81-1.57a1.48,1.48,0,0,0-1.75-1.6c-3.55.19-7.12.26-10.63.76s-4.51,1.82-4.81,5.3c-.35,4.12-.54,8.26-.79,12.39Z"/><path class="cls-2" d="M341.84,122.76c.57-.24,1.37-1.15,1.27-1.53-.18-.63-1-1.49-1.56-1.53a59.85,59.85,0,0,0-6.56.07c-.22,0-.59.49-.6.76-.06,1.52,0,3,0,5.06C337.07,124.58,339.49,123.75,341.84,122.76Z"/><path class="cls-2" d="M335.29,136.13c.18,1.33.35,2.68.57,4.4l5.91-2.94C340.13,135.5,338.16,135.16,335.29,136.13Z"/><path class="cls-5" d="M308.65,301.2c.53,2,1.33,2.75,2.37,2.3,1.62-.69,1-1.92.68-3.11-1.07-3.79.1-6.22,3.75-7.78a15.79,15.79,0,0,1,2.41-.79c5.39-1.33,10.84-1.08,16.29-.52,1.23.13,2.4.17,2.59-1.3s-1.07-1.84-2.22-1.86c-4.71-.07-9.44-.35-14.12,0a23.14,23.14,0,0,0-7.81,2.41c-2.93,1.39-4.41,4-4.48,7.87C308.22,299,308.37,300.13,308.65,301.2Z"/><path class="cls-5" d="M311,230.19c2.51-.85,5-1.67,7.54-2.5,1-.32,1.71-1,1.28-2-.24-.54-1.31-1.24-1.75-1.09-3.85,1.3-7.71,2.62-11.42,4.26-1.85.83-1.9,2.32-.64,3.93L317.15,247c.26.33.5.84.84.92.64.16,1.57.34,2,0a2.37,2.37,0,0,0,.34-1.93c-.12-.56-.7-1-1.09-1.54l-10.4-13.25C309.7,230.77,310.35,230.42,311,230.19Z"/><path class="cls-5" d="M155.3,110.23c0,.37,0,.74-.05,1.11,0,1.07.26,2,1.47,2s1.62-.79,1.69-1.86.09-1.91.17-2.86c.46-5.26,2.22-7.27,7.21-8.49a2.19,2.19,0,0,0,1.26-1.64c0-1.18-1.06-1.45-2.09-1.41a8.4,8.4,0,0,0-7.84,5.29,60.22,60.22,0,0,0-2.22,7.7Z"/><path class="cls-5" d="M197.87,121.81a2,2,0,0,0,1.46,1.28c.52,0,1.19-.66,1.55-1.2.25-.37.09-1,.13-1.55.34-4.66,2.41-6.9,6.76-7.29,1.09-.1,1.93-.4,1.87-1.65s-1.1-1.51-1.91-1.53C201.61,109.87,196.63,116,197.87,121.81Z"/><path class="cls-6" d="M61.3,27.79c0,.05,0,.13,0,.15L35.06,46.83c-.47.34-.92.73-1.64,1.3.68,0,.94.06,1.19.06q35.78,0,71.54,0a2.68,2.68,0,0,0,1.87-1c3.14-4.41,6.2-8.88,9.27-13.33,1.88-2.72,1.71-4-.82-6Z"/><path class="cls-6" d="M341.28,27.79l27.4,19.71a6.43,6.43,0,0,1,.59.62c-.66,0-1.11.07-1.55.07q-35.39,0-70.77,0A2.45,2.45,0,0,1,294.63,47c-3-4.45-6.08-8.84-9.13-13.25-1.9-2.77-1.7-4,.93-6Z"/><path class="cls-6" d="M228.72,27.79c.78.88,1.9,1.63,2.29,2.66,2.06,5.57,4,11.2,5.89,16.82a5.18,5.18,0,0,1,.14.85H165.65l4.12-12c.53-1.55,1.11-3.1,1.59-4.67a6.23,6.23,0,0,1,2.51-3.68Z"/><path class="cls-6" d="M165.22,52.1h72.52c-.79,10.67,2.39,19.76,10.88,26.53a30.05,30.05,0,0,0,20.82,6.49c14.85-.72,30.07-13.48,28.16-33h72.27c1.72,16-6.92,30.51-22.25,36.75a36.88,36.88,0,0,1-46.88-17.81c-13.16,26.84-52.08,27.68-66.19,0-7.2,13.08-18.13,20.33-33.06,20.36s-25.93-7.19-33.17-20.31c-7.16,13-18.09,20.28-33,20.31s-25.91-7.18-33.2-20.37C96.88,81.18,88.88,87.7,78,90.46a35.67,35.67,0,0,1-23.4-1.82C38.58,81.74,31.32,66.55,33,52.1h72.41c-.8,10.82,2.48,20,11.24,26.79a29.92,29.92,0,0,0,20.9,6.2C152.22,84.15,167.07,71.5,165.22,52.1Z"/></g></svg>