<svg xmlns="http://www.w3.org/2000/svg" viewBox="0 0 400 400"><defs><style>.cls-1{fill:#111;}</style></defs><title>logo-finals</title><g id="Layer_4" data-name="Layer 4"><path class="cls-1" d="M308.61,278.45l3.64,12,4-12.75c.2-.66.56-1,1.07-1h.11a3.19,3.19,0,0,1,.62.08,4.34,4.34,0,0,0,.61.11,7.31,7.31,0,0,0,1,.05,6,6,0,0,0,1.12-.07l.82-.14a1.43,1.43,0,0,1,.29,0c.72,0,1.08.28,1.09.83a.67.67,0,0,1-.76.76,5.32,5.32,0,0,1-.56-.06,5.14,5.14,0,0,0-.55-.06c-.81,0-1.21.59-1.21,1.78v9.48c0,1.19.39,1.78,1.18,1.78a3,3,0,0,0,.52-.07l.62-.05a.67.67,0,0,1,.76.76c0,.56-.34.85-1,.85a2.23,2.23,0,0,0-.36-.05,25.42,25.42,0,0,0-2.76-.19,12.58,12.58,0,0,0-2.13.17,4.88,4.88,0,0,1-.76.07c-.62,0-.92-.27-.92-.8s.32-.81.95-.81l.36,0,.62.06c.57,0,.93-.59,1.07-1.77,0-.25.05-1.05.05-2.41,0-.52,0-1.27.05-2.26V278.4c0-.09,0-.14-.12-.14s-.1.05-.14.14l-4.36,13.49a1.24,1.24,0,0,1-1.32.9,1.79,1.79,0,0,1-.91-.18,1.26,1.26,0,0,1-.47-.72l-4.27-13.49c-.05-.09-.11-.14-.17-.14s-.09.05-.09.14l.14,10.94c0,1.15.33,1.72.94,1.72h1c.61,0,.92.27.92.8s-.32.81-.95.81a4.45,4.45,0,0,1-.5-.05l-1.11-.17a9.66,9.66,0,0,0-1.2-.07,13.41,13.41,0,0,0-1.68.07l-1,.19-.14,0h-.14c-.73,0-1.09-.28-1.09-.83a.81.81,0,0,1,.21-.56.75.75,0,0,1,.53-.22,3.17,3.17,0,0,1,.61.07,3.09,3.09,0,0,0,.52.07c.8,0,1.21-.59,1.21-1.77v-9.51c0-1.19-.41-1.78-1.21-1.78l-.57.06a5,5,0,0,1-.56.06.67.67,0,0,1-.56-.19.69.69,0,0,1-.18-.57c0-.55.36-.82,1.07-.83l.3,0,.83.09a9,9,0,0,0,1.16.07,8.25,8.25,0,0,0,1.22-.09c.37,0,.75-.08,1.12-.1.62,0,1,.39,1.23,1.16Zm-14.17,11q0,1.77,1.2,1.77a2.62,2.62,0,0,0,.57-.06l.57-.06a.77.77,0,0,1,.76.76c0,.55-.36.83-1.07.83h-.14l-.16,0-1.16-.16a10.76,10.76,0,0,0-1.49-.1,12.12,12.12,0,0,0-1.59.1l-1.18.16-.17,0h-.16c-.7,0-1-.28-1-.83a.67.67,0,0,1,.19-.57.66.66,0,0,1,.56-.19l.57.06a3.68,3.68,0,0,0,.57.06c.79,0,1.18-.59,1.18-1.77v-9.61a1.5,1.5,0,0,0-.44-1.27,1.53,1.53,0,0,0-1.29-.41H290a1.5,1.5,0,0,0-1.7,1.66c0,.39,0,.66,0,.8l.1.88c0,.14,0,.34,0,.59,0,1-.31,1.49-.92,1.49s-.88-.36-.88-1.09c0-.2,0-.56.05-1.06.05-.76.07-1.24.07-1.45,0-.39,0-.8,0-1.23a9.1,9.1,0,0,0-.08-1.06q0-1,.9-1c.22,0,.73,0,1.54.07l1.93.09h2.69l2.53,0c.3,0,.81,0,1.54-.06s1.15-.06,1.51-.06c.78,0,1.18.32,1.18,1v0c0,.16,0,.45-.06.88l-.13,1.37v.26c0,.24,0,.61.07,1.11.06.66.09,1.08.09,1.23,0,.65-.3,1-.92,1s-.9-.39-.9-1.18c0-.29,0-.71.07-1.28s.07-1,.07-1.27c0-1.09-.62-1.64-1.86-1.64h-.67a1.77,1.77,0,0,0-1.25.37,1.81,1.81,0,0,0-.43,1.22l-.09,1.65Zm8.67,31.81-2.8,1.26a49.13,49.13,0,0,0-4.52,2.43c-2,1.2-3.87,2.49-5.7,3.87-1.28,1-2,1.49-2.18,1.6-1.29.77-2.27.59-3-.54a2,2,0,0,1,.92-3.08c.39-.23.94-.53,1.68-.89,1.42-.7,2.24-1.12,2.45-1.24.84-.5,1.15-.93.94-1.28a2.3,2.3,0,0,0-1.07-.71L272.2,315.3a1,1,0,0,0-.83-.07,1.66,1.66,0,0,0-.43.83l-2.59,8.11c.35.65.76,1.37,1.24,2.17q2.75,4.55,3,4.83,2.21,2.71,4.4,1.4a8.77,8.77,0,0,0,1.06-.85,9.16,9.16,0,0,1,1.32-1,1.74,1.74,0,0,1,1.44-.2,2,2,0,0,1,1.21.94q1.11,1.83-1.19,3.22l-.37.22a2,2,0,0,0-.4.16l-3.17,1.35a29.4,29.4,0,0,0-3.49,1.89,22,22,0,0,0-2.67,1.82l-2.63,2.15a1.61,1.61,0,0,0-.28.24l-.31.19q-2.36,1.43-3.47-.44a1.71,1.71,0,0,1,.59-2.67,8.62,8.62,0,0,1,1.53-.66,6.21,6.21,0,0,0,1.17-.54c1.74-1.05,1.83-2.88.25-5.49,0,.07-.67-1.16-2.15-3.69l-2.77-4.59L260,320.23l-2.8-4.65L254.94,312c-1.57-2.62-3.22-3.4-4.95-2.36a5.86,5.86,0,0,0-1,.79,14,14,0,0,1-1.32,1,1.75,1.75,0,0,1-2.7-.72c0-.05,0-.09-.05-.14-1.52.78-1.92,2.41-1.07,5l7.65,23.22q1.42,4.35,4.39,3.37a8.63,8.63,0,0,0,1.17-.51,12.08,12.08,0,0,1,1.51-.69,1.7,1.7,0,0,1,1.52,0,1.72,1.72,0,0,1,.89,1.23q.69,2.08-1.87,2.93l-.4.13a1.94,1.94,0,0,0-.42.07l-3.17.53a23.21,23.21,0,0,0-3.26.82,32,32,0,0,0-4.25,1.72l-2.53,1.29a2.69,2.69,0,0,0-.38.19l-.47.15q-2.49.82-3.18-1.26a1.7,1.7,0,0,1,1.19-2.45c.19-.06.72-.19,1.6-.4a5,5,0,0,0,1.27-.22c2-.65,2.48-2.43,1.53-5.32L239,317.09c-.94-2.85-2.4-4-4.37-3.31a4.7,4.7,0,0,0-1.17.52,10.29,10.29,0,0,1-1.51.69,1.78,1.78,0,0,1-1.07,0c0,.26,0,.55,0,.91a39.68,39.68,0,0,0,.36,4.07c0,.2.15.84.38,1.92l.5,2.39a4.64,4.64,0,0,1,.18.84c.25,1.93-.36,3-1.85,3.2a2.14,2.14,0,0,1-2.69-2.11l0-.3-.1-1.65c0-.56-.07-1-.12-1.33a7,7,0,0,0-3.21-5.36,10.2,10.2,0,0,0-7-1.15,9.6,9.6,0,0,0-6,2.76,6.47,6.47,0,0,0-1.63,5.51,6,6,0,0,0,4.19,5.16,25.94,25.94,0,0,0,7,.85,24.24,24.24,0,0,1,10.27,1.83,9.94,9.94,0,0,1,5.11,7.87,11.81,11.81,0,0,1-2.84,9.79,15.42,15.42,0,0,1-10,5,15.83,15.83,0,0,1-12-2.83c0,.16,0,.34.07.54s0,.32.05.36a7.29,7.29,0,0,1,.41,1.22,2,2,0,0,1-.35,1.73,2,2,0,0,1-1.59.77,2.21,2.21,0,0,1-2.76-2.22.68.68,0,0,1,.11-.5l-.14-3.18c-.07-1.59-.13-2.61-.19-3a31.6,31.6,0,0,0-.82-3.59,29,29,0,0,1-.82-3.58c-.24-1.81.4-2.82,1.94-3s2.48.59,2.72,2.41l.14,1.09c.05.33.11.79.19,1.4a9.43,9.43,0,0,0,3.86,6.84,11.16,11.16,0,0,0,8.19,1.62,11.39,11.39,0,0,0,7-3.15,7.24,7.24,0,0,0,1.92-6.28q-.77-5.75-8.19-6.05l-3.52-.14a38.37,38.37,0,0,1-8.26-1,9.31,9.31,0,0,1-4.63-3.05,10.28,10.28,0,0,1-2.27-5.32,11.09,11.09,0,0,1,1.19-7,2.29,2.29,0,0,1-2.33.72l-.67-.09-.61-.07a2.1,2.1,0,0,0-2.46,1.52,57.89,57.89,0,0,0-1.61,9.23L196.6,341a48.84,48.84,0,0,1-1,5.64,12.42,12.42,0,0,1-2.73,5q-4.29,4.78-12.94,3.69-10.65-1.35-12.85-8.68a16.8,16.8,0,0,1-.14-6.7c.18-1.45.52-3.58,1-6.4s.81-4.95,1-6.4l.4-3.19c.38-2.94.57-4.59.57-5a4.25,4.25,0,0,0-.86-3,1.61,1.61,0,0,1-1.08.77,1.63,1.63,0,0,1-1.3-.27,10.46,10.46,0,0,1-1.21-.79,9.55,9.55,0,0,0-1.2-.79q-2.76-1.42-4.86,2.64l-1.95,3.8L155,326.08l-2.36,4.61-4.41,8.57c-1.39,2.71-1.19,4.53.62,5.47a5.72,5.72,0,0,0,1.28.45c.83.33,1.32.54,1.46.61a1.76,1.76,0,0,1,1.08,1.1,1.7,1.7,0,0,1-.24,1.53q-1,1.95-3.33.75a7.85,7.85,0,0,0-.76-.52,63.37,63.37,0,0,0-6.12-3.7,34.3,34.3,0,0,0-5.08-2.13,12.35,12.35,0,0,1-1.82-.73c-1.41-.73-1.8-1.69-1.18-2.91s1.69-1.49,3.15-.74a3.94,3.94,0,0,1,.78.49c.76.51,1.21.8,1.35.88q2,1,4.55-2.8.56-.81,2.95-5.46c.61-1.19,1.54-2.91,2.78-5.14l2.5-4.88,4.93-9.58c.11-.21.08-.37-.11-.46s-.27,0-.49.16l-25.88,25.78a3.2,3.2,0,0,1-4.09.5,4.87,4.87,0,0,1-1.88-1.48,3.16,3.16,0,0,1-.21-2.2l6.09-36c0-.28-.08-.45-.22-.52s-.27,0-.38.21l-12.57,25.25q-2,4,.14,5l1.63.84.65.33c1.41.73,1.8,1.7,1.17,2.93s-1.67,1.47-3.12.73a11,11,0,0,1-1.08-.69c-.74-.52-1.53-1.08-2.36-1.69a21.24,21.24,0,0,0-2.68-1.59,31.78,31.78,0,0,0-3.93-1.82l-2.5-.73-.36-.12-.32-.16c-1.67-.86-2.17-1.92-1.52-3.19a2,2,0,0,1,1.14-1,1.77,1.77,0,0,1,1.46.1,8.34,8.34,0,0,1,1.33.89,7,7,0,0,0,1.1.77q2.77,1.42,4.86-2.64l11.21-21.8c1.4-2.72,1.17-4.55-.67-5.49a11.46,11.46,0,0,0-1.37-.54,9.46,9.46,0,0,1-1.37-.53,1.69,1.69,0,0,1-.79-2.6q1-1.9,3.42-.64a7.23,7.23,0,0,1,.67.41l1.79,1.2a23.89,23.89,0,0,0,2.58,1.52,25.41,25.41,0,0,0,2.9,1.22,27.19,27.19,0,0,1,2.69,1.11c1.4.73,1.89,2.1,1.45,4.11l-.34,1.6-5.77,31.74L153.63,308c1.25-1.27,2.46-1.62,3.61-1l.27.14a8.34,8.34,0,0,1,1.33.89,8.66,8.66,0,0,0,1.27,1,23.41,23.41,0,0,0,2.33,1.34,18.8,18.8,0,0,0,2.25,1,2.47,2.47,0,0,1,1.85-.36,12.65,12.65,0,0,1,2,.44,35.08,35.08,0,0,0,5.45,1.19,38.34,38.34,0,0,0,6.06.21,10.39,10.39,0,0,1,1.58.08c1.66.21,2.4,1,2.23,2.38a1.85,1.85,0,0,1-.75,1.48,1.8,1.8,0,0,1-1.63.3,10,10,0,0,1-1.44-.33,9.92,9.92,0,0,0-1.43-.34,2.61,2.61,0,0,0-2.86,1.73,14.68,14.68,0,0,0-.83,3.64l-.5,3.87-1,4.86-1.19,9.32a15.28,15.28,0,0,0,.16,6.28,6.5,6.5,0,0,0,3.15,3.48,12.8,12.8,0,0,0,4.83,1.66,12,12,0,0,0,5.85-.55,6,6,0,0,0,3.49-3,19.32,19.32,0,0,0,1.45-5.38l2-15.55q.59-4.59.54-5.22c-.1-2.1-1-3.25-2.65-3.47a9.63,9.63,0,0,0-1.2-.05,14.8,14.8,0,0,1-1.63-.06,1.77,1.77,0,0,1-1.26-.77,2,2,0,0,1-.4-1.44c.19-1.43,1.17-2,2.94-1.81a6,6,0,0,1,.84.17l3.5.94a23.79,23.79,0,0,0,3,.56,17.93,17.93,0,0,0,2.74.18l2.65-.06a12.18,12.18,0,0,1,1.48,0c1.69.21,2.45,1,2.28,2.38a2.75,2.75,0,0,1-.21.69,11.43,11.43,0,0,1,1.32-1.84,15,15,0,0,1,9.59-4.67,13.11,13.11,0,0,1,10.18,2.52l-.11-.84c-.21-1.58.31-2.44,1.56-2.61a1.89,1.89,0,0,1,1.5.37,3.38,3.38,0,0,1,1.51-.92,6.45,6.45,0,0,1,.84-.21l3.2-.61a27.33,27.33,0,0,0,3.66-1,31.44,31.44,0,0,0,3.85-1.58l2.49-1.21a6,6,0,0,1,.79-.33,2.45,2.45,0,0,1,2.67.29l.75-.32a23.16,23.16,0,0,0,2.95-1.47,46.68,46.68,0,0,0,4-2.85c1.75-1.34,2.77-2.09,3-2.26q2.19-1.32,3.29.51a2,2,0,0,1,.28,1.51,1.75,1.75,0,0,1-.85,1.18,10.07,10.07,0,0,1-1.49.69,4.87,4.87,0,0,0-1.15.55,2.49,2.49,0,0,0-1.51,2.65,27.13,27.13,0,0,0,3.34,6.49l3.91,6.48L272.63,298a1.43,1.43,0,0,0,0-1.23c-.23-.39-.67-.38-1.34,0a2.6,2.6,0,0,0-.54.4c-1.17.89-2.05,1.52-2.64,1.88a1.93,1.93,0,0,1-3-.7c-.69-1.15-.28-2.17,1.22-3.08a22.09,22.09,0,0,1,2.2-1.18l2.95-1.36a29.13,29.13,0,0,0,2.9-1.46,38.37,38.37,0,0,0,4.4-3.21,17.27,17.27,0,0,1,2-1.47q2-1.2,3.06.58a1.85,1.85,0,0,1-.76,2.87l-.52.32-.58.35-.78.47a6.3,6.3,0,0,0-2.77,3.44l-4.92,14.17a1.62,1.62,0,0,0-.06,1.31,2.09,2.09,0,0,0,1.05.57l1.51.73,15.19,6.31c4.05,1.67,6.63,2.18,7.74,1.51a1.37,1.37,0,0,0,.29-.25l.26-.15c.87-.68,1.42-1.07,1.63-1.2a1.86,1.86,0,0,1,1.63-.41,1.89,1.89,0,0,1,1.32,1.06q1.07,1.77-1,3Zm-37.49-245-3.4-1.89a1.69,1.69,0,0,1-.75-.62c-.08-.19,0-.49.22-.9L264,68.62l.64-1.16a2.1,2.1,0,0,1,2.11-1.18,14,14,0,0,1,4.33,1.82q5.67,3.15,3.38,7.27a4.28,4.28,0,0,1-3.8,2.49,10.78,10.78,0,0,1-5-1.67ZM242.35,69c-.06.21-.25.27-.57.17l-6.3-1.91c-.39-.12-.56-.3-.48-.54a1.32,1.32,0,0,1,.16-.25l7-9.83.25,12a1.32,1.32,0,0,1,0,.34Zm-28.9,4.4a11.66,11.66,0,0,1-4.89-1.08c-.56-.47-.76-1.6-.6-3.38l.43-4.58a5.4,5.4,0,0,1,.31-1.59c.28-.64,1.16-.89,2.65-.75l3.42.32q7.41.67,6.93,6-.54,5.78-8.25,5.06ZM209.16,56l.24-2.55c.14-1.49.55-2.38,1.22-2.68a14.54,14.54,0,0,1,5.22,0q6,.55,5.62,4.88-.44,4.75-7.73,4.07l-2.31-.21c-1.18-.11-1.89-.35-2.12-.72a5.65,5.65,0,0,1-.14-2.74Zm93.12,31.85-.94-.74c-1-.74-1.57-1.17-1.72-1.3l-7.75-6.23-.32-.26q.31.25-4.12-4.06l-.45-.43c-.88-.76-1.63-.76-2.26,0a1.36,1.36,0,0,0-.34,1,1.25,1.25,0,0,0,.43.9,7.7,7.7,0,0,0,.94.63,3.39,3.39,0,0,1,.71.5c1.07.91,1,2.14-.38,3.7L275.31,94.17c-1.27,1.49-2.41,1.83-3.44,1.1a5.68,5.68,0,0,0,2-2.2,3.82,3.82,0,0,1,.4-.64l.5-.9.54-1,.42-.76.48-.77c.57-1,.41-1.76-.46-2.25a1.26,1.26,0,0,0-1.45,0,5.49,5.49,0,0,0-.95,1.35l-.28.5-.5.9L272,90.59c-1.14,2-2.28,2.77-3.4,2.14s-1.16-1.78-.2-3.51c.1-.19.19-.34.24-.43l.92-1.66A8.25,8.25,0,0,0,271,82.75a4.91,4.91,0,0,0-2-3.21,14,14,0,0,0,3.16.62,5.55,5.55,0,0,0,5.45-3.34q3.38-6.06-4.59-10.48c-.77-.43-1.63-.88-2.57-1.34l-2.83-1.38c-1-.46-1.79-.9-2.54-1.32a19.63,19.63,0,0,1-1.77-1.08L261.49,60,261,59.7c-1.06-.59-1.83-.46-2.3.38a1.34,1.34,0,0,0-.12,1,1.15,1.15,0,0,0,.6.78,6.24,6.24,0,0,0,.92.4,7.47,7.47,0,0,1,.92.39q1.85,1,.34,3.74L253.29,80.9c-.72,1.3-1.51,1.94-2.35,1.95a1.49,1.49,0,0,0-1.12-.95l-1.14-.23h0l-.36-.23a1.39,1.39,0,0,0-.78-.19,1.86,1.86,0,0,1-.73-.74,8.06,8.06,0,0,1-.48-2.83l-1.13-21.8a2.45,2.45,0,0,0-1.91-2.4,2.56,2.56,0,0,0-3,.91L226.83,72.15a11.09,11.09,0,0,1-1.36,1.63,1.92,1.92,0,0,1-1.88.34l-.51-.16c-.05-.08-.16-.12-.26-.18a7.19,7.19,0,0,0,2.5-5,6.32,6.32,0,0,0-2.8-6.12,13.6,13.6,0,0,0-2.74-1.46,6.17,6.17,0,0,0,5.33-5.5,5.78,5.78,0,0,0-1.87-5.1,10.67,10.67,0,0,0-6.33-2.35c-1.49-.14-2.88-.21-4.18-.22-1.94,0-3.43-.07-4.48-.16a20.44,20.44,0,0,1-2.33-.34l-2-.48-.53,0c-1.27-.12-1.94.3-2,1.26a1.14,1.14,0,0,0,1.15,1.44,7.11,7.11,0,0,0,1.13,0,6.31,6.31,0,0,1,.87,0c1.4.13,2,1.22,1.82,3.29l-1.54,16.57c-.19,2-1,3-2.38,2.85a4.52,4.52,0,0,1-.75-.14c-.07-.32-.15-.73-.26-1.22a12.86,12.86,0,0,1-.18-1.52q-.1-1.2-.09-2.49c0-.86,0-1.44,0-1.74-.1-1.16-.65-1.69-1.64-1.61a1.43,1.43,0,0,0-1.42,1.79,17,17,0,0,0,.28,1.88A16.3,16.3,0,0,1,198.6,69a3,3,0,0,1-.85,2.86A10.44,10.44,0,0,1,193.16,73l-10.35.89L199.18,51a3.13,3.13,0,0,0,.69-2.06c-.11-1.37-1.16-2-3.14-1.81l-1.65.14-8.54.74-1.32.11-1.45.12c-1,.11-1.7.18-2.22.19l-1.12.1a1.89,1.89,0,0,0-2,2.33,14.06,14.06,0,0,0,.26,1.58c.11.52.2,1,.26,1.58a19.6,19.6,0,0,1,0,2.3,17.81,17.81,0,0,0,0,2.31c.09,1.13.65,1.65,1.67,1.56s1.51-.83,1.39-2.21c0-.28-.06-.71-.11-1.29s-.09-1-.11-1.29a4.78,4.78,0,0,1,.63-3.46,5,5,0,0,1,3.39-1.21l10.05-.86L180.16,72a3.72,3.72,0,0,0-.75,2.49,2.09,2.09,0,0,0,.87,1.76,4.91,4.91,0,0,0,2.68.28c.91-.08,1.65-.17,2.23-.28,1.78-.24,3.35-.41,4.7-.53,2.7-.23,5.29-.39,7.78-.5.61,0,1.24-.06,1.9-.12a3.94,3.94,0,0,0,1.08-.24h0l.29,0a1.41,1.41,0,0,1,.29,0l2-.07a16.69,16.69,0,0,1,2.12.07c.85.08,2.17.27,4,.57s3.29.52,4.47.63a13.53,13.53,0,0,0,6.86-.94c0,.57.44,1,1.22,1.21a15.49,15.49,0,0,0,1.67.36l1.72.31a18.89,18.89,0,0,1,2,.53,16.63,16.63,0,0,1,1.8.62l1.91.85a7.76,7.76,0,0,0,.84.34c1.19.36,1.92.1,2.18-.77s-.12-1.55-1.2-1.88c-.24-.07-.61-.15-1.11-.25a10.79,10.79,0,0,1-1.16-.26c-1-.32-1.41-.89-1.15-1.74a2.34,2.34,0,0,1,.41-.78l2.07-2.7A5,5,0,0,1,233,69.71a1.69,1.69,0,0,1,1.17.06l7,2.14a2.42,2.42,0,0,1,1,.48,1.72,1.72,0,0,1,.25.94l.25,4.31a5.34,5.34,0,0,1,0,1.13c-.21.71-.76.94-1.63.67-.23-.07-.58-.2-1-.39a7.44,7.44,0,0,0-1-.4c-1.16-.36-1.88-.08-2.15.81s.12,1.51,1.17,1.83c.29.09.72.19,1.29.31,2.26.45,3.88.83,4.86,1.12.59.18,1.46.53,2.46,1a2.81,2.81,0,0,0,.65.48l.58.22,1.86.75a25.16,25.16,0,0,1,2.63,1.23,18.43,18.43,0,0,1,1.91,1.25l1.82,1.34.5.37c1,.58,1.79.45,2.26-.4a1.18,1.18,0,0,0,.21-1,1.21,1.21,0,0,0-.71-.8c-.21-.12-.54-.27-1-.46a5.68,5.68,0,0,1-.79-.37c-1-.55-1.25-1.49-.8-2.82a33.64,33.64,0,0,1,1.61-3.08L259,77.56c.52-1,1.16-1.2,1.93-.78l3.35,1.87a7.32,7.32,0,0,1,3.38,2.89,4.81,4.81,0,0,1-.86,3.71l-.45.8-.68,1.23-.6,1.08a4.38,4.38,0,0,0-.74,3.81A4.33,4.33,0,0,0,267,95a6.11,6.11,0,0,0,1.35.56,2.47,2.47,0,0,0,.51.56,2.26,2.26,0,0,0,.18.16,2.2,2.2,0,0,1,.32.21c2,1.49,4,3.07,6,4.75,1.31,1.11,2.83,2.45,4.58,4s2.56,2.28,2.41,2.16c.67.57,1.12,1,1.36,1.21a13.29,13.29,0,0,0,1.05,1,1.67,1.67,0,0,0,1.41.56,1.69,1.69,0,0,0,1.3-.8c.25-.3.6-.74,1.07-1.35s.81-1,1.06-1.35.83-.94,1.53-1.69,1.2-1.31,1.52-1.69c.82-1,.84-1.79.05-2.46s-1.52-.48-2.32.47c-.27.31-.65.79-1.15,1.44s-.88,1.13-1.15,1.44a3.32,3.32,0,0,1-2.45,1.48,5.75,5.75,0,0,1-3-1.63l-4.28-3.65a4.79,4.79,0,0,1-1.45-1.62c-.14-.48.14-1.15.84-2,.2-.23.58-.71,1.15-1.42s.83-1,1.12-1.38l1.67-2a3.69,3.69,0,0,1,1.36-1.18c.31-.1.78.11,1.38.63l1.42,1.21c1.2,1,1.41,2,.64,2.89a11.91,11.91,0,0,1-.94.94,11.78,11.78,0,0,0-.93.94c-.75.89-.77,1.64,0,2.27a1.32,1.32,0,0,0,2.1-.17,12.14,12.14,0,0,0,.85-1.18c.4-.65.66-1.06.78-1.24.83-1.14,1.42-1.93,1.78-2.35a29.57,29.57,0,0,1,2.35-2.4c1.1-1,1.72-1.61,1.87-1.78q1.16-1.35,0-2.31c-.74-.63-1.47-.53-2.19.31a10.37,10.37,0,0,0-.83,1.14,9.53,9.53,0,0,1-.76,1q-1.14,1.35-3.11-.31l-1.28-1.09a4.16,4.16,0,0,1-.69-.7c-.26-.44,0-1.08.68-1.92l.35-.41.54-.63.59-.7,1.21-1.41a2.25,2.25,0,0,1,3-.74,25.9,25.9,0,0,1,2.73,2.16A19.83,19.83,0,0,1,298.37,89c.46.95-.05,2.3-1.56,4.06l-1.4,1.64c-1,1.12-1.05,2-.3,2.62a1.34,1.34,0,0,0,2.14-.24q.56-.69,1.05-1.44a19.1,19.1,0,0,1,1.26-1.59q.72-.86,1.65-1.8c.83-.85,1.32-1.37,1.46-1.53Q303.9,89.28,302.28,87.88ZM141,77.28l-5.78,3.15q-.54.3-.72,0c0-.1,0-.19-.07-.29l-2.12-11.86L141,76.5a1.37,1.37,0,0,1,.23.25C141.33,77,141.24,77.12,141,77.28ZM174,62l-1.18-4-.65-2.27a5.05,5.05,0,0,1-.21-2.38c.14-.42.62-.75,1.43-1l.4-.12.45-.13q1.62-.47,1.23-1.8c-.27-.91-1-1.21-2.11-.88l-.28.09a1.69,1.69,0,0,1-.27.11l-1.34.59a22.7,22.7,0,0,1-2.68,1,15.81,15.81,0,0,1-2.27.49l-1.86.28a3.21,3.21,0,0,0-.52.11c-1.2.35-1.65,1-1.38,2a1.34,1.34,0,0,0,1.64.91,7.55,7.55,0,0,0,.93-.38,8.1,8.1,0,0,1,.92-.38c1.09-.31,1.95.19,2.59,1.49.09.21.43,1.34,1,3.41l4.64,16L157.43,55.94l-.72-.83a1.68,1.68,0,0,0-1.86-.37c-.4.12-1,.33-1.76.65s-1.35.52-1.75.63c-.71.21-1.75.44-3.11.69l-.65.14c-1.14.33-1.57,1-1.3,1.89a1.16,1.16,0,0,0,.58.88,1.2,1.2,0,0,0,1.06.07,9.23,9.23,0,0,0,1.07-.44,5.63,5.63,0,0,1,.77-.31c1.37-.4,2.34.4,2.92,2.38l1.82,6.29,1,3.42,1,3.5.8,2.78a3,3,0,0,1-.24,3,1.49,1.49,0,0,0-1.43.15l-1,.65-.05,0-.44.1a1.53,1.53,0,0,0-.72.44,1.91,1.91,0,0,1-.95,0A8.2,8.2,0,0,1,150.16,80L133.83,65.51a2.45,2.45,0,0,0-3.05-.32A2.55,2.55,0,0,0,129.32,68l3.24,22a10.71,10.71,0,0,1,.21,2.11,1.92,1.92,0,0,1-1.07,1.58l-.48.26a.66.66,0,0,0-.51.09,1.32,1.32,0,0,0-.76,1.83,1.25,1.25,0,0,0-.82.27,6.61,6.61,0,0,0-.7.7,6.8,6.8,0,0,1-.71.71q-1.64,1.33-3.59-1.08l-8.89-10.92-1.7-2.35a3.09,3.09,0,0,1-.76-2.12,3,3,0,0,1,1.3-1.88l.9-.74c1.68-1.37,3.13-1.32,4.34.17.32.38.75,1,1.31,1.8s1,1.42,1.31,1.8c.87,1.08,1.72,1.29,2.53.62a1.46,1.46,0,0,0,.18-2.33c-.17-.22-.67-.73-1.49-1.57-.62-.63-1.06-1.11-1.32-1.43l-.29-.35c-.47-.72-.92-1.38-1.33-2s-.72-1-.89-1.25l0-.07c-.72-.87-1.61-.88-2.68,0-.49.4-1.15,1-2,1.76s-1.61,1.44-2,1.78q-2.75,2.32-3.38,2.84l-3.66,3-2.73,2c-1.14.83-1.87,1.36-2.16,1.6a1.47,1.47,0,0,0-.65,1.14,1.46,1.46,0,0,0,.53,1.2c-.15-.17.28.29,1.28,1.36.5.55,1,1.09,1.41,1.63.23.28.72,1,1.5,2,.51.72.88,1.22,1.11,1.49.8,1,1.59,1.16,2.39.51s.7-1.69-.4-3a9.41,9.41,0,0,0-.68-.78l-1.09-1.08a13.61,13.61,0,0,1-.93-1.07,2.6,2.6,0,0,1,.49-4.13l1-.81a2.68,2.68,0,0,1,2.2-.86,2.65,2.65,0,0,1,2,1.24l4.26,5.24,2.22,2.72,2.3,2.83,1.83,2.25q1.95,2.4.35,3.71a5.68,5.68,0,0,1-.83.55,6.74,6.74,0,0,0-.84.55,1.13,1.13,0,0,0-.56.88,1.16,1.16,0,0,0,.37,1c.61.75,1.38.74,2.33,0l.22-.19a1,1,0,0,1,.2-.21l1.42-1.53a21.44,21.44,0,0,1,2-1.88,17.87,17.87,0,0,1,2.13-1.52l1.75-1a1.35,1.35,0,0,1,.26-.15,1.06,1.06,0,0,1,.19-.16c.78-.64,1-1.26.76-1.87a2.12,2.12,0,0,0,.86-.27,14.56,14.56,0,0,0,1.43-.93l1.43-1c.56-.37,1.14-.71,1.74-1s1.13-.59,1.71-.85l1.94-.76a6.24,6.24,0,0,0,.84-.36c1.09-.6,1.42-1.29,1-2.09S141,88.45,140,89c-.33.19-.65.39-1,.61a10.57,10.57,0,0,1-1,.64c-.94.52-1.63.39-2.05-.39a2.51,2.51,0,0,1-.27-.84l-.47-3.37a5,5,0,0,1,0-1.77,1.7,1.7,0,0,1,.87-.8l6.46-3.53a2.34,2.34,0,0,1,1.05-.38,1.69,1.69,0,0,1,.85.48l3.25,2.85a5.43,5.43,0,0,1,.8.79c.36.65.14,1.19-.66,1.63a9.88,9.88,0,0,1-1,.45c-.46.19-.79.34-1,.46-1.06.58-1.37,1.28-.92,2.1s1.16,1,2.12.45c.27-.15.65-.38,1.13-.71q2.87-1.93,4.2-2.67c.59-.32,1.52-.73,2.63-1.19a3,3,0,0,0,.43-.07l.32-.09a1.59,1.59,0,0,1,.27-.12l1.88-.81a26.31,26.31,0,0,1,2.61-1,19,19,0,0,1,2.6-.54l1.7-.23a1.35,1.35,0,0,1,.29,0l.24-.07c1.19-.35,1.65-1,1.39-1.87a1.14,1.14,0,0,0-.59-.86,1.18,1.18,0,0,0-1.05,0l-.94.34c-.41.16-.72.28-.93.34-1.36.39-2.32-.41-2.9-2.4l-5.36-18.48,16.76,18.63q2.16,2.38,4.12,1.82a2.34,2.34,0,0,0,1.81-1.73,8.76,8.76,0,0,0-.5-4Zm26.95,136a4.44,4.44,0,1,1,4.43-4.44A4.44,4.44,0,0,1,201,197.92ZM201,297a103.52,103.52,0,1,1,73.18-30.32A103.5,103.5,0,0,1,201,297Zm0-65.17a38.34,38.34,0,1,0-38.34-38.34A38.33,38.33,0,0,0,201,231.82Zm-.5-99.28A60.44,60.44,0,0,0,140,193a3,3,0,1,0,5.91,0,54.54,54.54,0,0,1,54.54-54.54,3,3,0,1,0,0-5.91Zm0,120.91A60.46,60.46,0,0,0,260.94,193a3,3,0,0,0-5.91,0,54.55,54.55,0,0,1-54.55,54.55,3,3,0,0,0,0,5.91Zm0-135.29A74.83,74.83,0,0,0,125.65,193a3,3,0,1,0,5.92,0,68.92,68.92,0,0,1,68.91-68.92,3,3,0,1,0,0-5.91Zm0,149.66A74.83,74.83,0,0,0,275.31,193a3,3,0,0,0-5.91,0,68.92,68.92,0,0,1-68.92,68.92,3,3,0,0,0,0,5.91Zm0-164a89.2,89.2,0,0,0-89.2,89.2,3,3,0,1,0,5.91,0,83.29,83.29,0,0,1,83.29-83.29,3,3,0,1,0,0-5.91Zm0,178.41A89.21,89.21,0,0,0,289.69,193a3,3,0,0,0-5.91,0,83.31,83.31,0,0,1-83.3,83.3,3,3,0,0,0,0,5.91Z"/></g></svg>