<?xml version="1.0" encoding="UTF-8"?>
<svg width="111px" height="80px" viewBox="0 0 111 80" version="1.1" xmlns="http://www.w3.org/2000/svg" xmlns:xlink="http://www.w3.org/1999/xlink">
    <!-- Generator: Sketch 56.2 (81672) - https://sketch.com -->
    <title>Artboard</title>
    <desc>Created with Sketch.</desc>
    <g id="Artboard" stroke="none" stroke-width="1" fill="none" fill-rule="evenodd">
        <g id="Group-3" transform="translate(0.000000, 3.000000)" fill="#FFFFFF">
            <path d="M30.0385805,19.0336437 L30.0385805,21.7519515 L0.3136,3.337608 L0.3136,6.58203995 L30.0385805,24.9086961 L30.0385805,27.627004 L0.3136,9.3003478 L0.3136,12.4570924 L30.0385805,30.8714359 L30.0385805,33.5897438 L0.3136,15.1754003 L0.3136,18.4198322 L30.0385805,36.7464884 L30.0385805,39.4647962 L0.3136,21.1381401 L0.3136,24.2948847 L30.0385805,42.7092282 L30.0385805,45.427536 L0.3136,27.0131925 L0.3136,58.7560133 L31.2625503,58.7560133 C47.698716,58.7560133 60.6378251,45.7782854 60.6378251,29.2053763 C60.6378251,12.7201545 47.4364367,0.00548869479 32.2242408,0.00548869479 L0.3136,0.00548869479 L0.3136,0.619300145 L30.0385805,19.0336437 Z M100.053333,21.4012021 L71.202617,21.4012021 L71.202617,34.905054 L63.8587983,34.905054 L63.8587983,58.7560133 L80.3823904,58.7560133 C91.9226769,58.7560133 100.053333,53.670147 100.053333,41.2185432 L100.053333,21.4012021 Z M71.202617,0.00548869479 L71.202617,2.89917125 L100.053333,2.89917125 L100.053333,0.00548869479 L71.202617,0.00548869479 Z M71.202617,5.4421044 L71.202617,8.2480996 L100.053333,8.2480996 L100.053333,5.4421044 L71.202617,5.4421044 Z M71.202617,10.7910328 L71.202617,13.597028 L100.053333,13.597028 L100.053333,10.7910328 L71.202617,10.7910328 Z M71.202617,16.1399611 L71.202617,19.0336437 L100.053333,19.0336437 L100.053333,16.1399611 L71.202617,16.1399611 Z" id="DJ"></path>
            <path d="M5.00390625,64.5416675 C4.73921743,64.3266516 4.36843988,64.2191452 3.8915625,64.2191452 L2.008125,64.2191452 L2.008125,67.0757709 L3.8915625,67.0757709 C4.36843988,67.0757709 4.73921743,66.9594885 5.00390625,66.7269203 C5.26859507,66.4943521 5.4009375,66.1257589 5.4009375,65.6211297 C5.4009375,65.1165006 5.26859507,64.7566834 5.00390625,64.5416675 Z M6.53625,68.0367556 C5.95874711,68.5106682 5.13406786,68.7476209 4.0621875,68.7476209 L2.008125,68.7476209 L2.008125,72.2361269 L0,72.2361269 L0,62.534131 L4.213125,62.534131 C5.18437986,62.534131 5.95874711,62.7842478 6.53625,63.2844889 C7.11375289,63.78473 7.4025,64.5592145 7.4025,65.6079656 C7.4025,66.7532544 7.11375289,67.5628429 6.53625,68.0367556 Z M9.8196875,64.2191452 L9.8196875,66.8256516 L12.11,66.8256516 C12.5650023,66.8256516 12.9062489,66.7729954 13.13375,66.6676815 C13.536252,66.4833822 13.7375,66.119177 13.7375,65.5750551 C13.7375,64.9870524 13.5428144,64.5921312 13.1534375,64.3902795 C12.9346864,64.2761894 12.6065647,64.2191452 12.1690625,64.2191452 L9.8196875,64.2191452 Z M14.1542187,62.7842503 C14.5195331,62.9378331 14.8290612,63.1638159 15.0828125,63.4622053 C15.2928135,63.7079377 15.4590619,63.9799946 15.5815625,64.278384 C15.7040631,64.5767735 15.7653125,64.9168445 15.7653125,65.2986075 C15.7653125,65.7593558 15.6493762,66.2124183 15.4175,66.6578084 C15.1856238,67.1031985 14.8028152,67.4180385 14.2690625,67.6023378 C14.7153147,67.7822491 15.0314053,68.0378509 15.2173437,68.3691509 C15.4032822,68.700451 15.49625,69.2061696 15.49625,69.8863219 L15.49625,70.5379485 C15.49625,70.9811446 15.5137498,71.2817235 15.54875,71.4396944 C15.6012503,71.6898149 15.723749,71.8741115 15.91625,71.9925897 L15.91625,72.2361269 L13.6915625,72.2361269 C13.6303122,72.021111 13.5865626,71.8477844 13.5603125,71.716142 C13.5078122,71.4440811 13.479375,71.1654422 13.475,70.880217 L13.461875,69.9784711 C13.453125,69.3597519 13.3404698,68.9472786 13.1239062,68.7410388 C12.9073427,68.5347991 12.5015655,68.4316808 11.9065625,68.4316808 L9.8196875,68.4316808 L9.8196875,72.2361269 L7.844375,72.2361269 L7.844375,62.534131 L12.5890625,62.534131 C13.2671909,62.5472953 13.7889044,62.6306675 14.1542187,62.7842503 Z M22.5695313,69.8994861 C23.0398461,69.3070953 23.275,68.4645967 23.275,67.3719648 C23.275,66.283721 23.0398461,65.4423193 22.5695313,64.8477345 C22.0992164,64.2531497 21.463754,63.9558618 20.663125,63.9558618 C19.862496,63.9558618 19.2237524,64.2520527 18.746875,64.8444435 C18.2699976,65.4368343 18.0315625,66.2793329 18.0315625,67.3719648 C18.0315625,68.4645967 18.2699976,69.3070953 18.746875,69.8994861 C19.2237524,70.4918769 19.862496,70.7880678 20.663125,70.7880678 C21.463754,70.7880678 22.0992164,70.4918769 22.5695313,69.8994861 Z M23.8328125,71.3738735 C23.1021838,72.1286233 22.0456319,72.5059925 20.663125,72.5059925 C19.2806181,72.5059925 18.2240662,72.1286233 17.4934375,71.3738735 C16.5134326,70.4479887 16.0234375,69.1140325 16.0234375,67.3719648 C16.0234375,65.5947925 16.5134326,64.2608363 17.4934375,63.3700561 C18.2240662,62.6153063 19.2806181,62.2379371 20.663125,62.2379371 C22.0456319,62.2379371 23.1021838,62.6153063 23.8328125,63.3700561 C24.8084424,64.2608363 25.29625,65.5947925 25.29625,67.3719648 C25.29625,69.1140325 24.8084424,70.4479887 23.8328125,71.3738735 Z M25.7184375,62.5472952 L32.57625,62.5472952 L32.57625,64.2520557 L27.7265625,64.2520557 L27.7265625,66.4833831 L31.9725,66.4833831 L31.9725,68.1683973 L27.7265625,68.1683973 L27.7265625,72.2361269 L25.7184375,72.2361269 L25.7184375,62.5472952 Z M39.96125,64.2520557 L34.8425,64.2520557 L34.8425,66.3122488 L39.54125,66.3122488 L39.54125,67.997263 L34.8425,67.997263 L34.8425,70.4918739 L40.1975,70.4918739 L40.1975,72.2361269 L32.8671875,72.2361269 L32.8671875,62.534131 L39.96125,62.534131 L39.96125,64.2520557 Z M42.1159375,69.2412774 C42.1771878,69.6844735 42.2974991,70.0157685 42.476875,70.2351725 C42.8050016,70.6344878 43.3671835,70.8341424 44.1634375,70.8341424 C44.6403149,70.8341424 45.0274985,70.7814863 45.325,70.6761723 C45.8893778,70.4743207 46.1715625,70.0991455 46.1715625,69.5506355 C46.1715625,69.2303057 46.0315639,68.9823829 45.7515625,68.8068597 C45.4715611,68.6357246 45.031878,68.4843381 44.4325,68.3526957 L43.40875,68.1223227 C42.402495,67.8941425 41.7068769,67.6462197 41.321875,67.3785469 C40.6699967,66.9309627 40.3440625,66.2310745 40.3440625,65.2788612 C40.3440625,64.4100214 40.6590593,63.6881931 41.2890625,63.1133547 C41.9190656,62.5385162 42.8443689,62.2511013 44.065,62.2511013 C45.0843801,62.2511013 45.9539027,62.5220612 46.6735937,63.063989 C47.3932848,63.6059169 47.7706248,64.3924684 47.805625,65.4236671 L45.863125,65.4236671 C45.8281248,64.8400525 45.5743774,64.4253852 45.101875,64.1796527 C44.7868734,64.0172938 44.3953148,63.9361155 43.9271875,63.9361155 C43.4065599,63.9361155 42.9909391,64.0414279 42.6803125,64.2520557 C42.3696859,64.4626835 42.214375,64.7566804 42.214375,65.1340553 C42.214375,65.4807136 42.3674985,65.7396064 42.67375,65.9107415 C42.870626,66.0248316 43.2906218,66.158666 43.93375,66.3122488 L45.600625,66.7137561 C46.3312537,66.8892793 46.8824981,67.1240381 47.254375,67.4180394 C47.8318779,67.8743997 48.120625,68.5347958 48.120625,69.3992475 C48.120625,70.2856396 47.7826596,71.021729 47.1067187,71.6075376 C46.4307779,72.1933463 45.4759437,72.4862462 44.2421875,72.4862462 C42.9821812,72.4862462 41.9912536,72.1977343 41.269375,71.6207018 C40.5474964,71.0436693 40.1865625,70.2505358 40.1865625,69.2412774 L42.1159375,69.2412774 Z M49.9603125,69.2412774 C50.0215628,69.6844735 50.1418741,70.0157685 50.32125,70.2351725 C50.6493766,70.6344878 51.2115585,70.8341424 52.0078125,70.8341424 C52.4846899,70.8341424 52.8718735,70.7814863 53.169375,70.6761723 C53.7337528,70.4743207 54.0159375,70.0991455 54.0159375,69.5506355 C54.0159375,69.2303057 53.8759389,68.9823829 53.5959375,68.8068597 C53.3159361,68.6357246 52.876253,68.4843381 52.276875,68.3526957 L51.253125,68.1223227 C50.24687,67.8941425 49.5512519,67.6462197 49.16625,67.3785469 C48.5143717,66.9309627 48.1884375,66.2310745 48.1884375,65.2788612 C48.1884375,64.4100214 48.5034343,63.6881931 49.1334375,63.1133547 C49.7634406,62.5385162 50.6887439,62.2511013 51.909375,62.2511013 C52.9287551,62.2511013 53.7982777,62.5220612 54.5179687,63.063989 C55.2376598,63.6059169 55.6149998,64.3924684 55.65,65.4236671 L53.7075,65.4236671 C53.6724998,64.8400525 53.4187524,64.4253852 52.94625,64.1796527 C52.6312484,64.0172938 52.2396898,63.9361155 51.7715625,63.9361155 C51.2509349,63.9361155 50.8353141,64.0414279 50.5246875,64.2520557 C50.2140609,64.4626835 50.05875,64.7566804 50.05875,65.1340553 C50.05875,65.4807136 50.2118735,65.7396064 50.518125,65.9107415 C50.715001,66.0248316 51.1349968,66.158666 51.778125,66.3122488 L53.445,66.7137561 C54.1756287,66.8892793 54.7268731,67.1240381 55.09875,67.4180394 C55.6762529,67.8743997 55.965,68.5347958 55.965,69.3992475 C55.965,70.2856396 55.6270346,71.021729 54.9510937,71.6075376 C54.2751529,72.1933463 53.3203187,72.4862462 52.0865625,72.4862462 C50.8265562,72.4862462 49.8356286,72.1977343 49.11375,71.6207018 C48.3918714,71.0436693 48.0309375,70.2505358 48.0309375,69.2412774 L49.9603125,69.2412774 Z M58.191875,72.2361269 L56.18375,72.2361269 L56.18375,62.534131 L58.191875,62.534131 L58.191875,72.2361269 Z M65.1404688,69.8994861 C65.6107836,69.3070953 65.8459375,68.4645967 65.8459375,67.3719648 C65.8459375,66.283721 65.6107836,65.4423193 65.1404688,64.8477345 C64.6701539,64.2531497 64.0346915,63.9558618 63.2340625,63.9558618 C62.4334335,63.9558618 61.7946899,64.2520527 61.3178125,64.8444435 C60.8409351,65.4368343 60.6025,66.2793329 60.6025,67.3719648 C60.6025,68.4645967 60.8409351,69.3070953 61.3178125,69.8994861 C61.7946899,70.4918769 62.4334335,70.7880678 63.2340625,70.7880678 C64.0346915,70.7880678 64.6701539,70.4918769 65.1404688,69.8994861 Z M66.40375,71.3738735 C65.6731213,72.1286233 64.6165694,72.5059925 63.2340625,72.5059925 C61.8515556,72.5059925 60.7950037,72.1286233 60.064375,71.3738735 C59.0843701,70.4479887 58.594375,69.1140325 58.594375,67.3719648 C58.594375,65.5947925 59.0843701,64.2608363 60.064375,63.3700561 C60.7950037,62.6153063 61.8515556,62.2379371 63.2340625,62.2379371 C64.6165694,62.2379371 65.6731213,62.6153063 66.40375,63.3700561 C67.3793799,64.2608363 67.8671875,65.5947925 67.8671875,67.3719648 C67.8671875,69.1140325 67.3793799,70.4479887 66.40375,71.3738735 Z M68.2565625,62.534131 L70.37625,62.534131 L74.2284375,69.3070983 L74.2284375,62.534131 L76.111875,62.534131 L76.111875,72.2361269 L74.090625,72.2361269 L70.14,65.3446821 L70.14,72.2361269 L68.2565625,72.2361269 L68.2565625,62.534131 Z M79.52,68.5699046 L81.974375,68.5699046 L80.766875,64.7522943 L79.52,68.5699046 Z M79.6446875,62.534131 L81.9284375,62.534131 L85.3540625,72.2361269 L83.1621875,72.2361269 L82.53875,70.2417546 L78.9753125,70.2417546 L78.3059375,72.2361269 L76.1928125,72.2361269 L79.6446875,62.534131 Z M85.46125,62.534131 L87.4825,62.534131 L87.4825,70.4918739 L92.273125,70.4918739 L92.273125,72.2361269 L85.46125,72.2361269 L85.46125,62.534131 Z M94.014375,69.2412774 C94.0756253,69.6844735 94.1959366,70.0157685 94.3753125,70.2351725 C94.7034391,70.6344878 95.265621,70.8341424 96.061875,70.8341424 C96.5387524,70.8341424 96.925936,70.7814863 97.2234375,70.6761723 C97.7878153,70.4743207 98.07,70.0991455 98.07,69.5506355 C98.07,69.2303057 97.9300014,68.9823829 97.65,68.8068597 C97.3699986,68.6357246 96.9303155,68.4843381 96.3309375,68.3526957 L95.3071875,68.1223227 C94.3009325,67.8941425 93.6053144,67.6462197 93.2203125,67.3785469 C92.5684342,66.9309627 92.2425,66.2310745 92.2425,65.2788612 C92.2425,64.4100214 92.5574968,63.6881931 93.1875,63.1133547 C93.8175031,62.5385162 94.7428064,62.2511013 95.9634375,62.2511013 C96.9828176,62.2511013 97.8523402,62.5220612 98.5720312,63.063989 C99.2917223,63.6059169 99.6690623,64.3924684 99.7040625,65.4236671 L97.7615625,65.4236671 C97.7265623,64.8400525 97.4728149,64.4253852 97.0003125,64.1796527 C96.6853109,64.0172938 96.2937523,63.9361155 95.825625,63.9361155 C95.3049974,63.9361155 94.8893766,64.0414279 94.57875,64.2520557 C94.2681234,64.4626835 94.1128125,64.7566804 94.1128125,65.1340553 C94.1128125,65.4807136 94.265936,65.7396064 94.5721875,65.9107415 C94.7690635,66.0248316 95.1890593,66.158666 95.8321875,66.3122488 L97.4990625,66.7137561 C98.2296912,66.8892793 98.7809356,67.1240381 99.1528125,67.4180394 C99.7303154,67.8743997 100.019062,68.5347958 100.019062,69.3992475 C100.019062,70.2856396 99.6810971,71.021729 99.0051562,71.6075376 C98.3292154,72.1933463 97.3743812,72.4862462 96.140625,72.4862462 C94.8806187,72.4862462 93.8896911,72.1977343 93.1678125,71.6207018 C92.4459339,71.0436693 92.085,70.2505358 92.085,69.2412774 L94.014375,69.2412774 Z M110.916523,68.2055729 L110.217643,68.2055729 L110.217643,63.1235701 L110.190763,63.1235701 L108.241963,68.2055729 L107.785003,68.2055729 L105.836203,63.1235701 L105.809323,63.1235701 L105.809323,68.2055729 L105.110443,68.2055729 L105.110443,62.5304451 L106.400683,62.5304451 L108.013483,66.7227604 L108.040363,66.7227604 L109.626283,62.5304451 L110.916523,62.5304451 L110.916523,68.2055729 Z M104.062123,63.0696496 L102.261163,63.0696496 L102.261163,68.2055729 L101.562283,68.2055729 L101.562283,63.0696496 L99.7613225,63.0696496 L99.7613225,62.5304451 L104.062123,62.5304451 L104.062123,63.0696496 Z" id="PROFESSIONALS™"></path>
        </g>
    </g>
</svg>