<?xml version="1.0" encoding="UTF-8"?>
<svg width="80px" height="80px" viewBox="0 0 80 80" version="1.1" xmlns="http://www.w3.org/2000/svg" xmlns:xlink="http://www.w3.org/1999/xlink">
    <!-- Generator: Sketch 56.2 (81672) - https://sketch.com -->
    <title>Artboard Copy 37</title>
    <desc>Created with Sketch.</desc>
    <g id="Artboard-Copy-37" stroke="none" stroke-width="1" fill="none" fill-rule="evenodd">
        <path d="M40,80 C17.90861,80 0,62.09139 0,40 C0,17.90861 17.90861,0 40,0 C62.09139,0 80,17.90861 80,40 C80,62.09139 62.09139,80 40,80 Z M63.6666667,40 C63.6666667,53.0707391 53.0707391,63.6666667 40,63.6666667 C26.9292609,63.6666667 16.3333333,53.0707391 16.3333333,40 C16.3333333,26.9292609 26.9292609,16.3333333 40,16.3333333 C42.5694855,16.3333333 45.0797079,16.7417924 47.4644993,17.5336994 C49.0369263,18.0558481 50.7349155,17.2044294 51.2570642,15.6320024 C51.779213,14.0595754 50.9277943,12.3615863 49.3553673,11.8394375 C46.362636,10.8456547 43.2141186,10.3333333 40,10.3333333 C23.6155524,10.3333333 10.3333333,23.6155524 10.3333333,40 C10.3333333,56.3844476 23.6155524,69.6666667 40,69.6666667 C56.3844476,69.6666667 69.6666667,56.3844476 69.6666667,40 C69.6666667,35.8184575 68.7992482,31.7533253 67.1419813,28.0074791 C66.1668314,25.8033911 63.1221066,25.5908806 61.8502288,27.6381345 C57.3267627,34.9192453 50.315651,38.0166024 40.2985112,37.0148884 C38.6498796,36.8500253 37.1797516,38.0528572 37.0148884,39.7014888 C36.8500253,41.3501204 38.0528572,42.8202484 39.7014888,42.9851116 C49.5741806,43.9723808 57.5162842,41.4858889 63.2534308,35.5704568 C63.5270584,37.0170724 63.6666667,38.4981595 63.6666667,40 Z M57.5,25 C60.721661,25 63.3333333,22.3883277 63.3333333,19.1666667 C63.3333333,15.9450056 60.721661,13.3333333 57.5,13.3333333 C54.278339,13.3333333 51.6666667,15.9450056 51.6666667,19.1666667 C51.6666667,22.3883277 54.278339,25 57.5,25 Z" id="Combined-Shape" fill="#FFFFFF"></path>
    </g>
</svg>