<?xml version="1.0" encoding="UTF-8"?>
<svg width="218px" height="80px" viewBox="0 0 218 80" version="1.1" xmlns="http://www.w3.org/2000/svg" xmlns:xlink="http://www.w3.org/1999/xlink">
    <!-- Generator: Sketch 56.2 (81672) - https://sketch.com -->
    <title>Artboard Copy 36</title>
    <desc>Created with Sketch.</desc>
    <g id="Artboard-Copy-36" stroke="none" stroke-width="1" fill="none" fill-rule="evenodd">
        <g id="Group-7-Copy-2" fill="#FFFFFF">
            <path d="M9.30023212,15.9489977 L9.30023212,30.3090586 L9.76063965,30.3090586 L10.3131287,28.678508 L14.8251225,15.7246892 L23.2045396,15.7246892 L16.4825896,31.8490231 L24.9540882,65.2753108 L16.0221821,65.2753108 L11.4181068,45.2557726 L11.2339438,44.5310835 L10.7735362,44.5310835 L10.4972917,45.2557726 L9.30023212,48.1545293 L9.30023212,65.2753108 L0,65.2753108 L0,15.9489977 L9.30023212,15.9489977 Z M58.7611555,65.2753108 L50.5659015,15.7246892 L59.5898891,15.7246892 L62.6285788,44.4404973 L62.9969048,47.6110124 L63.7335569,47.6110124 L64.1018829,44.4404973 L67.1405726,15.7246892 L76.1645602,15.7246892 L67.9693062,65.2753108 L58.7611555,65.2753108 Z M92.0551973,27.5008881 C92.0551973,26.6856128 92.0551973,25.4174067 91.7789528,24.5115453 C91.4106268,23.6056838 90.6739747,22.9715808 89.4769152,22.9715808 C87.9115296,22.9715808 87.266959,24.1492007 86.9907145,25.598579 C86.898633,26.3232682 86.8065515,27.1385435 86.8065515,27.9538188 L86.8065515,30.3090586 L77.5063194,30.3090586 L77.5063194,28.2255773 C77.5063194,24.6021314 78.8875419,21.3410302 81.0974981,18.8952043 C83.3074542,16.4493783 86.4382255,15 90.0294042,15 C93.0680939,15 95.8305391,16.1776199 97.9484137,18.1705151 C100.066288,20.1634103 101.355429,22.9715808 101.355429,26.2326821 L101.355429,56.669627 C101.355429,61.1083481 101.631674,63.1012433 102,65.2753108 L92.8839309,65.2753108 C92.0551973,64.2788632 92.0551973,61.9236234 92.0551973,61.2895204 L91.4106268,61.2895204 C90.9502193,62.1047957 90.1214857,63.2824156 88.8323446,64.2788632 C87.5432035,65.2753108 85.7936549,66 83.9520248,66 C82.7549652,66 80.8212536,65.5470693 79.3479495,63.7353464 C77.7825639,62.0142096 76.4934228,58.9342806 76.4934228,53.7708703 C76.4934228,48.2451155 78.1508899,44.259325 80.360846,41.5417407 C82.5708022,38.8241563 85.3332474,37.1030195 87.635285,35.9253996 C89.9373227,34.7477798 91.6868713,33.9325044 92.0551973,32.9360568 L92.0551973,27.5008881 Z M92.0551973,41.3605684 C87.5432035,43.2628774 85.6094919,47.7015986 85.6094919,52.4120782 C85.6094919,53.0461812 85.7015734,54.1332149 86.0698994,55.1296625 C86.4382255,56.2166963 87.082796,57.0319716 88.1877741,57.0319716 C90.3056487,57.0319716 92.0551973,55.7637655 92.0551973,54.0426288 L92.0551973,41.3605684 Z" id="kova-e-e-p-copy-3"></path>
            <path d="M49,53.2273535 C48.7220077,58.0284192 47.2393822,61.3801066 43.996139,64.0071048 C42.3281853,65.365897 40.011583,66 36.953668,66 C30.9305019,66 27.965251,62.7388988 26.4826255,59.4777975 C25.6486486,57.5754885 25.0926641,55.401421 25,52.955595 L25,28.044405 C25.2779923,23.2433393 26.7606178,19.7104796 30.003861,16.9928952 C31.5791506,15.634103 33.8957529,15 36.953668,15 C42.976834,15 46.034749,18.2611012 47.5173745,21.4316163 C48.3513514,23.3339254 48.9073359,25.4174067 49,27.7726465 L49,53.2273535 Z M40.1969112,28.044405 C40.2895753,26.1420959 39.9189189,24.7833037 38.992278,23.69627 C38.5289575,23.2433393 37.7876448,22.9715808 36.953668,22.9715808 C35.1930502,22.9715808 34.4517375,24.1492007 34.0810811,25.5079929 C33.8030888,26.2326821 33.7104247,27.0479574 33.8030888,28.044405 L33.8030888,52.955595 C33.7104247,54.8579041 34.1737452,56.2166963 35.007722,57.2131439 C35.4710425,57.6660746 36.1196911,57.937833 36.953668,57.937833 C38.7142857,57.937833 39.5482625,56.8507993 39.9189189,55.4920071 C40.1969112,54.7673179 40.2895753,53.9520426 40.1969112,52.955595 L40.1969112,28.044405 Z" id="Combined-Shape-Copy-24"></path>
            <path d="M209.222202,29.2783402 L209.222202,14 L218,14 L218,49.0265811 L217.991178,49.0265811 L217.991178,67.2053162 C217.713288,72.0146654 216.231208,75.3721357 212.989156,78.0036664 C211.321816,79.3648029 209.006065,80 205.949274,80 C199.928322,80 196.964161,76.7332722 195.482081,73.4665445 C194.64841,71.5609533 194.09263,69.3831347 194,66.9330889 L194,41.9789184 C194.27789,37.1695692 195.759971,33.6306141 199.002022,30.908341 C200.576732,29.5472044 202.892483,28.9120073 205.949274,28.9120073 C207.155492,28.9120073 208.242744,29.0431169 209.222202,29.2783402 Z M209.191325,41.9789184 C209.283955,40.0733272 208.913435,38.7121907 207.987135,37.6232814 C207.523985,37.1695692 206.782944,36.8973419 205.949274,36.8973419 C204.189303,36.8973419 203.448263,38.0769936 203.077743,39.4381302 C202.799853,40.1640697 202.707223,40.9807516 202.799853,41.9789184 L202.799853,66.9330889 C202.707223,68.8386801 203.170373,70.1998167 204.004043,71.1979835 C204.467194,71.6516957 205.115604,71.923923 205.949274,71.923923 C207.709245,71.923923 208.542915,70.8350137 208.913435,69.4738772 C209.191325,68.7479377 209.283955,67.9312557 209.191325,66.9330889 L209.191325,41.9789184 Z" id="Combined-Shape-Copy-23" transform="translate(206.000000, 47.000000) scale(-1, -1) translate(-206.000000, -47.000000) "></path>
            <path d="M129.222202,15.2783402 L129.222202,0 L138,0 L138,35.0265811 L137.991178,35.0265811 L137.991178,53.2053162 C137.713288,58.0146654 136.231208,61.3721357 132.989156,64.0036664 C131.321816,65.3648029 129.006065,66 125.949274,66 C119.928322,66 116.964161,62.7332722 115.482081,59.4665445 C114.64841,57.5609533 114.09263,55.3831347 114,52.9330889 L114,27.9789184 C114.27789,23.1695692 115.759971,19.6306141 119.002022,16.908341 C120.576732,15.5472044 122.892483,14.9120073 125.949274,14.9120073 C127.155492,14.9120073 128.242744,15.0431169 129.222202,15.2783402 Z M129.191325,27.9789184 C129.283955,26.0733272 128.913435,24.7121907 127.987135,23.6232814 C127.523985,23.1695692 126.782944,22.8973419 125.949274,22.8973419 C124.189303,22.8973419 123.448263,24.0769936 123.077743,25.4381302 C122.799853,26.1640697 122.707223,26.9807516 122.799853,27.9789184 L122.799853,52.9330889 C122.707223,54.8386801 123.170373,56.1998167 124.004043,57.1979835 C124.467194,57.6516957 125.115604,57.923923 125.949274,57.923923 C127.709245,57.923923 128.542915,56.8350137 128.913435,55.4738772 C129.191325,54.7479377 129.283955,53.9312557 129.191325,52.9330889 L129.191325,27.9789184 Z" id="Combined-Shape-Copy-22"></path>
            <path d="M165,47.5204263 L165,53.2273535 C164.724138,58.0284192 163.252874,61.3801066 159.942529,64.0071048 C158.287356,65.365897 155.988506,66 152.954023,66 C146.977011,66 143.942529,62.7388988 142.471264,59.4777975 C141.643678,57.5754885 141.091954,55.401421 141,52.955595 L141,28.044405 C141.275862,23.2433393 142.83908,19.7104796 146.149425,16.9928952 C147.712644,15.634103 150.011494,15 153.045977,15 C159.022989,15 162.057471,18.2611012 163.528736,21.4316163 C164.356322,23.3339254 164.908046,25.4174067 165,27.7726465 L165,42.1758437 L149.643678,42.1758437 L149.643678,52.955595 C149.735632,54.8579041 150.287356,56.2166963 151.114943,57.2131439 C151.574713,57.6660746 152.218391,57.937833 153.045977,57.937833 C154.793103,57.937833 155.62069,56.8507993 155.988506,55.4920071 C156.264368,54.7673179 156.356322,53.9520426 156.356322,52.955595 L156.356322,47.5204263 L165,47.5204263 Z M149.643678,35.0195382 L156.356322,35.0195382 L156.356322,28.044405 C156.356322,26.1420959 155.988506,24.7833037 155.068966,23.69627 C154.609195,23.2433393 153.873563,22.9715808 153.045977,22.9715808 C151.298851,22.9715808 150.563218,24.1492007 150.103448,25.5079929 C149.827586,26.2326821 149.735632,27.0479574 149.643678,28.044405 L149.643678,35.0195382 Z" id="Combined-Shape-Copy-21"></path>
            <path d="M191,47.5204263 L191,53.2273535 C190.724138,58.0284192 189.252874,61.3801066 185.942529,64.0071048 C184.287356,65.365897 181.988506,66 178.954023,66 C172.977011,66 169.942529,62.7388988 168.471264,59.4777975 C167.643678,57.5754885 167.091954,55.401421 167,52.955595 L167,28.044405 C167.275862,23.2433393 168.83908,19.7104796 172.149425,16.9928952 C173.712644,15.634103 176.011494,15 179.045977,15 C185.022989,15 188.057471,18.2611012 189.528736,21.4316163 C190.356322,23.3339254 190.908046,25.4174067 191,27.7726465 L191,42.1758437 L175.643678,42.1758437 L175.643678,52.955595 C175.735632,54.8579041 176.287356,56.2166963 177.114943,57.2131439 C177.574713,57.6660746 178.218391,57.937833 179.045977,57.937833 C180.793103,57.937833 181.62069,56.8507993 181.988506,55.4920071 C182.264368,54.7673179 182.356322,53.9520426 182.356322,52.955595 L182.356322,47.5204263 L191,47.5204263 Z M175.643678,35.0195382 L182.356322,35.0195382 L182.356322,28.044405 C182.356322,26.1420959 181.988506,24.7833037 181.068966,23.69627 C180.609195,23.2433393 179.873563,22.9715808 179.045977,22.9715808 C177.298851,22.9715808 176.563218,24.1492007 176.103448,25.5079929 C175.827586,26.2326821 175.735632,27.0479574 175.643678,28.044405 L175.643678,35.0195382 Z" id="Combined-Shape-Copy-20"></path>
        </g>
    </g>
</svg>