<?xml version="1.0" encoding="UTF-8"?>
<svg width="252px" height="80px" viewBox="0 0 252 80" version="1.1" xmlns="http://www.w3.org/2000/svg" xmlns:xlink="http://www.w3.org/1999/xlink">
    <!-- Generator: Sketch 56.2 (81672) - https://sketch.com -->
    <title>Artboard Copy 38</title>
    <desc>Created with Sketch.</desc>
    <g id="Artboard-Copy-38" stroke="none" stroke-width="1" fill="none" fill-rule="evenodd">
        <path d="M85.0062029,58.2352941 C85.7965826,60.4861661 86.7702615,62.5155754 87.9272413,64.3235294 C89.2319622,66.3623509 90.8073686,68.0369137 92.6534684,69.3472217 L92.6534684,72 L51.3100243,72 L51.3100243,9 L68.3597779,9 L68.3597779,58.2352941 L85.0062029,58.2352941 Z M125.512687,22.9411765 C124.706166,20.6148412 123.706146,18.5266087 122.512622,16.6764706 C120.965377,14.2780107 119.051333,12.3836505 116.770477,10.9933837 L116.770477,9 L164.562792,9 L194.446039,9 L194.446039,22.9411765 L179.074758,22.9411765 L179.074758,72 L162.025005,72 L162.025005,22.9411765 L149.191511,22.9411765 L149.191511,72 L132.141758,72 L132.141758,22.9411765 L125.512687,22.9411765 Z M22.820151,9 C30.8297472,9 36.8221309,10.7352768 40.7974819,14.2058824 C44.772833,17.6764879 46.7604787,22.617615 46.7604787,29.0294118 C46.7604787,31.9117791 46.3482262,34.6617516 45.523709,37.2794118 C44.6991917,39.8970719 43.3593713,42.2499896 41.5042075,44.3382353 C39.6490529,46.426481 37.1902523,48.0735234 34.1277596,49.2794118 C31.065267,50.4853001 27.2961018,51.0882353 22.820151,51.0882353 L18.0497536,51.0882353 L18.0497536,72 L1,72 L1,9 L22.820151,9 Z M22.4667883,22.7647059 L18.0497536,22.7647059 L18.0497536,37.2352941 L21.4066999,37.2352941 C23.6446753,37.2352941 25.5881511,36.6617704 27.2371856,35.5147059 C28.8862201,34.3676413 29.710725,32.3529556 29.710725,29.4705882 C29.710725,27.4705782 29.121793,25.8529474 27.9439112,24.6176471 C26.7660294,23.3823468 24.94034,22.7647059 22.4667883,22.7647059 Z M218.607218,9 C235.745398,9 244.31436,15.2058203 244.31436,27.6176471 C244.31436,31.4411956 243.357345,34.7646918 241.443287,37.5882353 C239.529229,40.4117788 236.923205,42.735285 233.625136,44.5588235 L252,72 L232.653388,72 L219.313944,49.0588235 L214.98525,49.0588235 L214.98525,72 L197.935496,72 L197.935496,9 L218.607218,9 Z M218.342196,21.8823529 L214.98525,21.8823529 L214.98525,36.2647059 L218.165515,36.2647059 C220.756855,36.2647059 222.891733,35.6911822 224.570215,34.5441176 C226.248697,33.3970531 227.087925,31.3529559 227.087925,28.4117647 C227.087925,26.4117547 226.39593,24.8235353 225.011918,23.6470588 C223.627907,22.4705824 221.404689,21.8823529 218.342196,21.8823529 Z" id="Combined-Shape" fill="#FFFFFF" fill-rule="nonzero"></path>
        <path d="M98.9207273,40.4348545 C98.9207273,46.5146971 99.2995114,51.1034618 100.057091,54.2012864 C100.81467,57.299111 102.435866,58.848 104.920727,58.848 C107.344982,58.848 108.951026,57.3135865 109.738909,54.2447136 C110.526792,51.1758407 110.920727,46.5726003 110.920727,40.4348545 C110.920727,34.2971086 110.526792,29.664917 109.738909,26.5381408 C108.951026,23.4113646 107.344982,21.848 104.920727,21.848 C102.435866,21.848 100.81467,23.4113646 100.057091,26.5381408 C99.2995114,29.664917 98.9207273,34.2971086 98.9207273,40.4348545 Z" id="Path" fill="#2DE200" fill-rule="nonzero"></path>
    </g>
</svg>