<?xml version="1.0" encoding="UTF-8"?>
<svg width="115px" height="80px" viewBox="0 0 115 80" version="1.1" xmlns="http://www.w3.org/2000/svg" xmlns:xlink="http://www.w3.org/1999/xlink">
    <!-- Generator: Sketch 56.2 (81672) - https://sketch.com -->
    <title>Artboard Copy 35</title>
    <desc>Created with Sketch.</desc>
    <g id="Artboard-Copy-35" stroke="none" stroke-width="1" fill="none" fill-rule="evenodd">
        <g id="LOGO" transform="translate(1.000000, 0.000000)" fill="#FFFFFF">
            <g id="SPÄT-SHOP-BOYS" transform="translate(0.000000, 68.000000)">
                <path d="M107.314362,10.5128906 C107.287065,10.7589856 107.224284,10.9298823 107.126017,11.0255859 C107.02775,11.1212895 106.872163,11.1691406 106.659251,11.1691406 C106.429961,11.1691406 106.259361,11.1021491 106.147446,10.9681641 C106.03553,10.834179 105.971385,10.6167984 105.955007,10.3160156 L105.848551,8.41289062 L105.848551,8.26523438 C105.848551,8.00273306 105.899049,7.81679742 106.000046,7.70742187 C106.101043,7.59804633 106.268913,7.54335938 106.503662,7.54335938 C106.831219,7.54335938 107.065965,7.77851327 107.207906,8.24882812 C107.273417,8.48398555 107.336198,8.66171815 107.39625,8.78203125 C107.587325,9.16484566 107.888946,9.46015521 108.301122,9.66796875 C108.713298,9.87578229 109.205991,9.9796875 109.779215,9.9796875 C110.483463,9.9796875 111.055314,9.81289229 111.494787,9.47929687 C111.934259,9.14570146 112.153992,8.71914322 112.153992,8.19960938 C112.153992,7.76757596 112.018876,7.42031381 111.748642,7.1578125 C111.478407,6.89531119 111.08398,6.72578163 110.565348,6.64921875 L109.353394,6.48515625 C108.223322,6.32656171 107.398983,6.02851781 106.880351,5.59101563 C106.361719,5.15351344 106.102407,4.53828521 106.102407,3.7453125 C106.102407,2.90858957 106.447701,2.20586222 107.138301,1.63710938 C107.8289,1.06835653 108.690089,0.783984375 109.721893,0.783984375 C110.022154,0.783984375 110.338788,0.823632416 110.671804,0.902929688 C111.00482,0.982226959 111.381505,1.10663978 111.80187,1.27617188 C111.812788,1.11757733 111.856462,1.00820343 111.932892,0.948046875 C112.009322,0.887890324 112.140343,0.8578125 112.325958,0.8578125 C112.566167,0.8578125 112.732672,0.89335902 112.82548,0.964453125 C112.918288,1.03554723 112.97561,1.20507679 112.997447,1.47304688 L113.112091,3.1875 L113.112091,3.26953125 C113.112091,3.46093846 113.057499,3.6099604 112.948313,3.71660156 C112.839128,3.82324272 112.68627,3.8765625 112.489736,3.8765625 C112.200394,3.8765625 111.976567,3.67422077 111.818247,3.26953125 C111.741818,3.0398426 111.665389,2.8675787 111.588959,2.75273438 C111.408802,2.47929551 111.14949,2.26875074 110.811015,2.12109375 C110.472539,1.97343676 110.087666,1.89960938 109.656382,1.89960938 C108.995809,1.89960938 108.459443,2.06367023 108.047267,2.39179688 C107.635091,2.71992352 107.429006,3.1492161 107.429006,3.6796875 C107.429006,4.09531458 107.583228,4.4234363 107.891678,4.6640625 C108.200127,4.9046887 108.670983,5.06874956 109.30426,5.15625 L110.614482,5.3203125 C111.564397,5.44609438 112.279552,5.7373024 112.759969,6.19394531 C113.240386,6.65058822 113.480591,7.26718362 113.480591,8.04375 C113.480591,8.96250459 113.139391,9.69941129 112.45698,10.2544922 C111.77457,10.8095731 110.862883,11.0871094 109.721893,11.0871094 C109.328825,11.0871094 108.938492,11.0406255 108.550883,10.9476562 C108.163274,10.854687 107.751104,10.7097666 107.314362,10.5128906 Z" id="Path"></path>
                <path d="M102.640849,9.64335938 C103.061214,9.64335938 103.330079,9.68300742 103.447454,9.76230469 C103.564828,9.84160196 103.623515,9.99062391 103.623515,10.209375 C103.623515,10.4335949 103.564828,10.5880855 103.447454,10.6728516 C103.330079,10.7576176 103.093969,10.8 102.739115,10.8 L98.8493958,10.8 C98.4945424,10.8 98.2597967,10.7576176 98.1451518,10.6728516 C98.0305068,10.5880855 97.9731852,10.4335949 97.9731852,10.209375 C97.9731852,9.99062391 98.0373308,9.84160196 98.165624,9.76230469 C98.2939171,9.68300742 98.5600532,9.64335938 98.9640401,9.64335938 L100.151428,9.64335938 L100.151428,6.91992188 L97.42453,2.25234375 L97.285319,2.25234375 C96.957762,2.25234375 96.7339348,2.20859419 96.6138306,2.12109375 C96.4937263,2.03359331 96.4336751,1.88046984 96.4336751,1.66171875 C96.4336751,1.45937399 96.4841727,1.31035204 96.5851695,1.21464844 C96.6861662,1.11894483 96.8431182,1.07109375 97.0560303,1.07109375 L99.2997843,1.07109375 C99.621882,1.07109375 99.8388853,1.11484331 99.9508006,1.20234375 C100.062716,1.28984419 100.118673,1.44296766 100.118673,1.66171875 C100.118673,1.88046984 100.051797,2.03359331 99.918045,2.12109375 C99.7842926,2.20859419 99.5399934,2.25234375 99.18514,2.25234375 L98.9149068,2.25234375 L100.896617,5.8125 L102.952026,2.25234375 L102.616282,2.25234375 C102.321481,2.25234375 102.116761,2.20859419 102.002116,2.12109375 C101.887471,2.03359331 101.830149,1.88046984 101.830149,1.66171875 C101.830149,1.4320301 101.879282,1.27617229 101.977549,1.19414063 C102.075816,1.11210896 102.32421,1.07109375 102.722738,1.07109375 L104.229492,1.07109375 C104.644398,1.07109375 104.910534,1.11347614 105.027908,1.19824219 C105.145283,1.28300824 105.203969,1.43749888 105.203969,1.66171875 C105.203969,1.88046984 105.145283,2.03359331 105.027908,2.12109375 C104.910534,2.20859419 104.688071,2.25234375 104.360514,2.25234375 L104.229492,2.25234375 L101.445272,7.03476563 L101.445272,9.64335938 L102.640849,9.64335938 Z" id="Path"></path>
                <path d="M96.737596,5.92734375 C96.737596,7.42578874 96.3226968,8.65487801 95.4928857,9.61464844 C94.6630747,10.5744189 93.6012601,11.0542969 92.3074101,11.0542969 C91.0244786,11.0542969 89.9667584,10.5730517 89.1342177,9.61054688 C88.3016771,8.64804206 87.885413,7.42031996 87.885413,5.92734375 C87.885413,4.4179612 88.2975827,3.18613758 89.1219344,2.23183594 C89.9462861,1.27753429 91.0081007,0.800390625 92.3074101,0.800390625 C93.6012601,0.800390625 94.6630747,1.28163581 95.4928857,2.24414062 C96.3226968,3.20664544 96.737596,4.43436754 96.737596,5.92734375 Z M92.3907064,9.88945313 C93.3078659,9.88945313 94.0298453,9.53808945 94.5566661,8.83535156 C95.0834869,8.13261367 95.3468933,7.16328743 95.3468933,5.92734375 C95.3468933,4.69140007 95.0834869,3.72207383 94.5566661,3.01933594 C94.0298453,2.31659805 93.3078659,1.96523437 92.3907064,1.96523437 C91.4680876,1.96523437 90.7461082,2.3138637 90.2247467,3.01113281 C89.7033852,3.70840192 89.4427083,4.68046252 89.4427083,5.92734375 C89.4427083,7.16328743 89.7061148,8.13261367 90.2329356,8.83535156 C90.7597564,9.53808945 91.4790061,9.88945313 92.3907064,9.88945313 Z" id="Combined-Shape"></path>
                <path d="M83.7128296,10.8 L79.3399658,10.8 C79.1488909,10.8 79.0055869,10.7507817 78.9100494,10.6523438 C78.814512,10.5539058 78.766744,10.406251 78.766744,10.209375 C78.766744,9.99062391 78.8267952,9.84160196 78.9468994,9.76230469 C79.0670036,9.68300742 79.3536117,9.64335938 79.8067322,9.64335938 L80.0769653,9.64335938 L80.0769653,2.25234375 L79.8067322,2.25234375 C79.3863674,2.25234375 79.1161369,2.20996136 78.9960327,2.12519531 C78.8759285,2.04042926 78.8158773,1.88593862 78.8158773,1.66171875 C78.8158773,1.47031154 78.8650101,1.32402394 78.9632772,1.22285156 C79.0615443,1.12167918 79.2034835,1.07109375 79.3890991,1.07109375 L83.2133077,1.07109375 C84.3706757,1.07109375 85.2523367,1.29667743 85.8583171,1.74785156 C86.4642975,2.19902569 86.7672831,2.85390196 86.7672831,3.7125 C86.7672831,4.14453341 86.6744767,4.52187339 86.4888611,4.84453125 C86.3032455,5.16718911 86.0275558,5.43242084 85.6617839,5.64023438 C86.2513864,5.85351669 86.6894873,6.15156059 86.9760997,6.534375 C87.262712,6.91718941 87.406016,7.4039033 87.406016,7.99453125 C87.406016,8.49218999 87.283184,8.9460917 87.0375163,9.35625 C86.7918485,9.7664083 86.4451893,10.1027331 85.9975281,10.3652344 C85.7300232,10.5183601 85.4324968,10.6291012 85.1049398,10.6974609 C84.7773828,10.7658207 84.3133507,10.8 83.7128296,10.8 Z M81.36262,5.27109375 L83.0740967,5.27109375 C83.8493149,5.27109375 84.4238958,5.14804811 84.7978566,4.90195313 C85.1718175,4.65585814 85.3587952,4.27578382 85.3587952,3.76171875 C85.3587952,3.27499757 85.1895599,2.90175911 84.8510844,2.64199219 C84.5126088,2.38222526 84.02674,2.25234375 83.3934631,2.25234375 L81.36262,2.25234375 L81.36262,5.27109375 Z M81.36262,9.64335938 L83.1805522,9.64335938 C84.2068974,9.64335938 84.9302415,9.51347786 85.3506063,9.25371094 C85.7709711,8.99394401 85.9811503,8.56328426 85.9811503,7.96171875 C85.9811503,7.35468446 85.7805247,6.92265754 85.3792674,6.665625 C84.9780101,6.40859246 84.2724083,6.28007813 83.262441,6.28007813 L81.36262,6.28007813 L81.36262,9.64335938 Z" id="Combined-Shape"></path>
                <path d="M70.5018209,9.64335938 C70.7693257,9.64335938 70.9631274,9.68847611 71.0832316,9.77871094 C71.2033358,9.86894576 71.263387,10.012499 71.263387,10.209375 C71.263387,10.4281261 71.2060654,10.5812496 71.0914205,10.66875 C70.9767755,10.7562504 70.7584075,10.8 70.4363098,10.8 L66.4319458,10.8 C66.2463302,10.8 66.104391,10.7494146 66.0061239,10.6482422 C65.9078568,10.5470698 65.858724,10.4007822 65.858724,10.209375 C65.858724,10.0179678 65.906492,9.87578171 66.0020294,9.7828125 C66.0975669,9.68984329 66.2463301,9.64335938 66.4483236,9.64335938 L67.5046895,9.64335938 L67.5046895,2.25234375 L66.9314677,2.25234375 C66.4510508,2.25234375 66.1521595,2.20996136 66.034785,2.12519531 C65.9174104,2.04042926 65.858724,1.88593862 65.858724,1.66171875 C65.858724,1.47031154 65.9078568,1.32402394 66.0061239,1.22285156 C66.104391,1.12167918 66.2463302,1.07109375 66.4319458,1.07109375 L70.2233988,1.07109375 C71.5500046,1.07109375 72.5572272,1.32812243 73.2450968,1.8421875 C73.9329665,2.35625257 74.2768962,3.11366687 74.2768962,4.11445313 C74.2768962,5.11523938 73.9356961,5.86991933 73.2532857,6.37851563 C72.5708754,6.88711192 71.5609232,7.14140625 70.2233988,7.14140625 L68.7903442,7.14140625 L68.7903442,9.64335938 L70.5018209,9.64335938 Z M68.7903442,2.25234375 L68.7903442,6.05859375 L70.3216654,6.05859375 C71.1787729,6.05859375 71.820229,5.90000159 72.2460531,5.5828125 C72.6718771,5.26562341 72.884786,4.78711257 72.884786,4.14726563 C72.884786,3.51835623 72.6705123,3.04531409 72.2419586,2.728125 C71.8134049,2.41093591 71.1733136,2.25234375 70.3216654,2.25234375 L68.7903442,2.25234375 Z" id="Combined-Shape"></path>
                <path d="M65.7300415,5.92734375 C65.7300415,7.42578874 65.3151422,8.65487801 64.4853312,9.61464844 C63.6555202,10.5744189 62.5937056,11.0542969 61.2998556,11.0542969 C60.0169241,11.0542969 58.9592039,10.5730517 58.1266632,9.61054688 C57.2941226,8.64804206 56.8778585,7.42031996 56.8778585,5.92734375 C56.8778585,4.4179612 57.2900282,3.18613758 58.1143799,2.23183594 C58.9387316,1.27753429 60.0005462,0.800390625 61.2998556,0.800390625 C62.5937056,0.800390625 63.6555202,1.28163581 64.4853312,2.24414062 C65.3151422,3.20664544 65.7300415,4.43436754 65.7300415,5.92734375 Z M61.2998556,9.88945313 C62.2170151,9.88945313 62.9389944,9.53808945 63.4658152,8.83535156 C63.992636,8.13261367 64.2560425,7.16328743 64.2560425,5.92734375 C64.2560425,4.69140007 63.992636,3.72207383 63.4658152,3.01933594 C62.9389944,2.31659805 62.2170151,1.96523437 61.2998556,1.96523437 C60.3772367,1.96523437 59.6552574,2.3138637 59.1338959,3.01113281 C58.6125344,3.70840192 58.3518575,4.68046252 58.3518575,5.92734375 C58.3518575,7.16328743 58.615264,8.13261367 59.1420848,8.83535156 C59.6689056,9.53808945 60.3881553,9.88945313 61.2998556,9.88945313 Z" id="Combined-Shape"></path>
                <path d="M50.4764913,9.64335938 L51.0251465,9.64335938 C51.3472442,9.64335938 51.573801,9.68710894 51.7048238,9.77460938 C51.8358466,9.86210981 51.901357,10.0070302 51.901357,10.209375 C51.901357,10.4335949 51.8440354,10.5880855 51.7293905,10.6728516 C51.6147455,10.7576176 51.3636223,10.8 50.9760132,10.8 L48.8141479,10.8 C48.6121545,10.8 48.4606617,10.7507817 48.3596649,10.6523438 C48.2586682,10.5539058 48.2081706,10.406251 48.2081706,10.209375 C48.2081706,9.99609268 48.266857,9.84843791 48.3842316,9.76640625 C48.5016062,9.68437459 48.7240686,9.64335938 49.0516256,9.64335938 L49.1990255,9.64335938 L49.1990255,2.25234375 L49.0680033,2.25234375 C48.7404464,2.25234375 48.5152543,2.20859419 48.3924205,2.12109375 C48.2695866,2.03359331 48.2081706,1.88046984 48.2081706,1.66171875 C48.2081706,1.45937399 48.2586682,1.31035204 48.3596649,1.21464844 C48.4606617,1.11894483 48.6176137,1.07109375 48.8305257,1.07109375 L50.8941243,1.07109375 C51.330867,1.07109375 51.6079214,1.11347614 51.725296,1.19824219 C51.8426706,1.28300824 51.901357,1.43749888 51.901357,1.66171875 C51.901357,1.88046984 51.8276578,2.03359331 51.6802572,2.12109375 C51.5328565,2.20859419 51.2544373,2.25234375 50.844991,2.25234375 L50.4764913,2.25234375 L50.4764913,5.10703125 L54.3989665,5.10703125 L54.3989665,2.25234375 L53.8421224,2.25234375 C53.5309433,2.25234375 53.3084808,2.20585984 53.1747284,2.11289063 C53.040976,2.01992141 52.9741007,1.86953229 52.9741007,1.66171875 C52.9741007,1.43749888 53.0355168,1.28300824 53.1583506,1.19824219 C53.2811845,1.11347614 53.5828054,1.07109375 54.0632222,1.07109375 L56.0613098,1.07109375 C56.257844,1.07109375 56.4066072,1.12031201 56.507604,1.21875 C56.6086007,1.31718799 56.6590983,1.46484277 56.6590983,1.66171875 C56.6590983,1.87500107 56.6017767,2.02675736 56.4871318,2.11699219 C56.3724868,2.20722701 56.1677668,2.25234375 55.8729655,2.25234375 L55.6764323,2.25234375 L55.6764323,9.64335938 L55.8074544,9.64335938 C56.1350114,9.64335938 56.3588386,9.68574176 56.4789429,9.77050781 C56.5990471,9.85527386 56.6590983,10.0015615 56.6590983,10.209375 C56.6590983,10.4335949 56.6017767,10.5880855 56.4871318,10.6728516 C56.3724868,10.7576176 56.1077156,10.8 55.6928101,10.8 L53.9977112,10.8 C53.5555093,10.8 53.2743604,10.7576176 53.1542562,10.6728516 C53.034152,10.5880855 52.9741007,10.4335949 52.9741007,10.209375 C52.9741007,9.99609268 53.0450704,9.84843791 53.1870117,9.76640625 C53.3289531,9.68437459 53.5991835,9.64335938 53.9977112,9.64335938 L54.3989665,9.64335938 L54.3989665,6.23085938 L50.4764913,6.23085938 L50.4764913,9.64335938 Z" id="Path"></path>
                <path d="M41.1762594,10.5128906 C41.1489629,10.7589856 41.0861821,10.9298823 40.987915,11.0255859 C40.8896479,11.1212895 40.7340607,11.1691406 40.5211487,11.1691406 C40.2918588,11.1691406 40.1212588,11.1021491 40.0093435,10.9681641 C39.8974282,10.834179 39.8332826,10.6167984 39.8169047,10.3160156 L39.7104492,8.41289062 L39.7104492,8.26523438 C39.7104492,8.00273306 39.7609468,7.81679742 39.8619436,7.70742187 C39.9629403,7.59804633 40.1308107,7.54335938 40.3655599,7.54335938 C40.6931169,7.54335938 40.9278625,7.77851327 41.0698039,8.24882812 C41.1353153,8.48398555 41.1980961,8.66171815 41.2581482,8.78203125 C41.4492231,9.16484566 41.750844,9.46015521 42.1630198,9.66796875 C42.5751957,9.87578229 43.0678886,9.9796875 43.6411133,9.9796875 C44.3453608,9.9796875 44.9172121,9.81289229 45.3566844,9.47929687 C45.7961566,9.14570146 46.0158895,8.71914322 46.0158895,8.19960938 C46.0158895,7.76757596 45.8807743,7.42031381 45.6105398,7.1578125 C45.3403052,6.89531119 44.945878,6.72578163 44.4272461,6.64921875 L43.2152913,6.48515625 C42.0852198,6.32656171 41.2608804,6.02851781 40.7422485,5.59101563 C40.2236167,5.15351344 39.9643046,4.53828521 39.9643046,3.7453125 C39.9643046,2.90858957 40.3095991,2.20586222 41.0001984,1.63710938 C41.6907977,1.06835653 42.5519866,0.783984375 43.5837911,0.783984375 C43.8840517,0.783984375 44.2006853,0.823632416 44.5337016,0.902929688 C44.8667178,0.982226959 45.2434027,1.10663978 45.6637675,1.27617188 C45.6746861,1.11757733 45.7183597,1.00820343 45.7947896,0.948046875 C45.8712196,0.887890324 46.0022404,0.8578125 46.187856,0.8578125 C46.4280645,0.8578125 46.5945701,0.89335902 46.6873779,0.964453125 C46.7801857,1.03554723 46.8375074,1.20507679 46.8593445,1.47304688 L46.9739889,3.1875 L46.9739889,3.26953125 C46.9739889,3.46093846 46.9193968,3.6099604 46.8102112,3.71660156 C46.7010255,3.82324272 46.5481679,3.8765625 46.3516337,3.8765625 C46.0622917,3.8765625 45.8384645,3.67422077 45.6801453,3.26953125 C45.6037153,3.0398426 45.5272865,2.8675787 45.4508565,2.75273438 C45.2707002,2.47929551 45.0113881,2.26875074 44.6729126,2.12109375 C44.3344371,1.97343676 43.9495634,1.89960938 43.51828,1.89960938 C42.8577068,1.89960938 42.3213403,2.06367023 41.9091644,2.39179688 C41.4969886,2.71992352 41.2909037,3.1492161 41.2909037,3.6796875 C41.2909037,4.09531458 41.4451262,4.4234363 41.7535756,4.6640625 C42.0620251,4.9046887 42.5328812,5.06874956 43.166158,5.15625 L44.4763794,5.3203125 C45.4262946,5.44609438 46.14145,5.7373024 46.6218669,6.19394531 C47.1022838,6.65058822 47.3424886,7.26718362 47.3424886,8.04375 C47.3424886,8.96250459 47.0012885,9.69941129 46.3188782,10.2544922 C45.6364678,10.8095731 44.7247812,11.0871094 43.5837911,11.0871094 C43.1907227,11.0871094 42.8003899,11.0406255 42.4127808,10.9476562 C42.0251717,10.854687 41.613002,10.7097666 41.1762594,10.5128906 Z" id="Path"></path>
                <path d="M27.5639954,4.38515625 C27.5530768,4.79531455 27.5053088,5.05644475 27.4206899,5.16855469 C27.336071,5.28066462 27.1709302,5.33671875 26.9252625,5.33671875 C26.7341875,5.33671875 26.5908835,5.28613332 26.4953461,5.18496094 C26.3998086,5.08378856 26.3520406,4.93476661 26.3520406,4.73789063 L26.3602295,4.61074219 C26.3656888,4.52597614 26.3684184,4.43984419 26.3684184,4.35234375 L26.4503072,1.6453125 C26.4612258,1.44296774 26.5158178,1.29668014 26.6140849,1.20644531 C26.712352,1.11621049 26.8652096,1.07109375 27.0726624,1.07109375 L34.1888021,1.07109375 C34.3962548,1.07109375 34.5491125,1.11621049 34.6473796,1.20644531 C34.7456467,1.29668014 34.7975091,1.44296774 34.8029683,1.6453125 L34.8930461,4.35234375 C34.8930461,4.45078174 34.8957757,4.54374956 34.9012349,4.63125 C34.9066942,4.71875044 34.9094238,4.75976565 34.9094238,4.75429688 C34.9094238,4.95117286 34.8575614,5.09746046 34.753835,5.19316406 C34.6501087,5.28886767 34.4945214,5.33671875 34.2870687,5.33671875 C34.0686974,5.33671875 33.9185693,5.28066462 33.8366801,5.16855469 C33.7547909,5.05644475 33.7083876,4.79531455 33.6974691,4.38515625 L33.6155802,2.25234375 L31.2653707,2.25234375 L31.2653707,9.64335938 L32.8458252,9.64335938 C33.0751151,9.64335938 33.2416207,9.68847611 33.3453471,9.77871094 C33.4490735,9.86894576 33.5009359,10.012499 33.5009359,10.209375 C33.5009359,10.4007822 33.4518031,10.5470698 33.353536,10.6482422 C33.2552689,10.7494146 33.1133296,10.8 32.927714,10.8 L28.3337504,10.8 C28.1481348,10.8 28.0061956,10.7494146 27.9079285,10.6482422 C27.8096614,10.5470698 27.7605286,10.4007822 27.7605286,10.209375 C27.7605286,10.0070302 27.8137558,9.86210981 27.9202118,9.77460938 C28.0266678,9.68710894 28.2081862,9.64335938 28.4647725,9.64335938 L29.9960937,9.64335938 L29.9960937,2.25234375 L27.6458842,2.25234375 L27.5639954,4.38515625 Z" id="Path"></path>
                <path d="M20.4911397,2.25234375 L19.2955627,2.25234375 C18.9625465,2.25234375 18.7291656,2.20722701 18.5954132,2.11699219 C18.4616608,2.02675736 18.3947856,1.87500107 18.3947856,1.66171875 C18.3947856,1.43749888 18.453472,1.28300824 18.5708466,1.19824219 C18.6882211,1.11347614 19.0089492,1.07109375 19.5330404,1.07109375 L21.8668722,1.07109375 C22.1671327,1.07109375 22.370488,1.11074179 22.476944,1.19003906 C22.5834,1.26933633 22.6803008,1.41562393 22.7676493,1.62890625 L25.9695028,9.64335938 L26.1087138,9.64335938 C26.4035151,9.64335938 26.6055055,9.68437459 26.7146912,9.76640625 C26.8238768,9.84843791 26.8784688,9.99609268 26.8784688,10.209375 C26.8784688,10.4335949 26.8266064,10.5880855 26.72288,10.6728516 C26.6191537,10.7576176 26.425352,10.8 26.1414693,10.8 L23.914093,10.8 C23.4991875,10.8 23.2330515,10.7576176 23.1156769,10.6728516 C22.9983023,10.5880855 22.9396159,10.4335949 22.9396159,10.209375 C22.9396159,10.0015615 23.0037615,9.85527386 23.1320546,9.77050781 C23.2603478,9.68574176 23.5019174,9.64335938 23.8567708,9.64335938 L24.618337,9.64335938 L23.8240153,7.69101563 L19.6640625,7.69101563 L18.9598185,9.64335938 L19.7541402,9.64335938 C20.1144529,9.64335938 20.3601169,9.68574176 20.4911397,9.77050781 C20.6221625,9.85527386 20.6876729,10.0015615 20.6876729,10.209375 C20.6876729,10.4335949 20.6289865,10.5880855 20.5116119,10.6728516 C20.3942374,10.7576176 20.1362901,10.8 19.7377625,10.8 L17.5840861,10.8 C17.234692,10.8 17.0026759,10.7576176 16.888031,10.6728516 C16.7733861,10.5880855 16.7160645,10.4335949 16.7160645,10.209375 C16.7160645,9.99609268 16.7733861,9.84843791 16.888031,9.76640625 C17.0026759,9.68437459 17.2237736,9.64335938 17.5513306,9.64335938 L17.7069194,9.64335938 L20.4911397,2.25234375 Z M20.0735067,6.6 L23.42276,6.6 L21.6621501,2.25234375 L20.0735067,6.6 Z" id="Combined-Shape"></path>
                <path d="M22.359375,0 L22.359375,2.4" id="Path-5" stroke="#FFFFFF" stroke-linecap="round"></path>
                <path d="M20.5625,0 L20.5625,1.2" id="Path-5-Copy" stroke="#FFFFFF" stroke-linecap="round"></path>
                <path d="M13.2299398,9.64335938 C13.4974446,9.64335938 13.6912463,9.68847611 13.8113505,9.77871094 C13.9314547,9.86894576 13.9915059,10.012499 13.9915059,10.209375 C13.9915059,10.4281261 13.9341843,10.5812496 13.8195394,10.66875 C13.7048944,10.7562504 13.4865264,10.8 13.1644287,10.8 L9.1600647,10.8 C8.97444908,10.8 8.83250985,10.7494146 8.73424276,10.6482422 C8.63597566,10.5470698 8.58684285,10.4007822 8.58684285,10.209375 C8.58684285,10.0179678 8.63461086,9.87578171 8.73014832,9.7828125 C8.82568577,9.68984329 8.974449,9.64335938 9.17644246,9.64335938 L10.2328084,9.64335938 L10.2328084,2.25234375 L9.65958659,2.25234375 C9.17916969,2.25234375 8.88027843,2.20996136 8.76290385,2.12519531 C8.64552927,2.04042926 8.58684285,1.88593862 8.58684285,1.66171875 C8.58684285,1.47031154 8.63597566,1.32402394 8.73424276,1.22285156 C8.83250985,1.12167918 8.97444908,1.07109375 9.1600647,1.07109375 L12.9515177,1.07109375 C14.2781235,1.07109375 15.2853461,1.32812243 15.9732157,1.8421875 C16.6610854,2.35625257 17.0050151,3.11366687 17.0050151,4.11445313 C17.0050151,5.11523938 16.663815,5.86991933 15.9814046,6.37851563 C15.2989943,6.88711192 14.2890421,7.14140625 12.9515177,7.14140625 L11.5184631,7.14140625 L11.5184631,9.64335938 L13.2299398,9.64335938 Z M11.5184631,2.25234375 L11.5184631,6.05859375 L13.0497843,6.05859375 C13.9068918,6.05859375 14.5483479,5.90000159 14.974172,5.5828125 C15.399996,5.26562341 15.6129049,4.78711257 15.6129049,4.14726563 C15.6129049,3.51835623 15.3986312,3.04531409 14.9700775,2.728125 C14.5415238,2.41093591 13.9014325,2.25234375 13.0497843,2.25234375 L11.5184631,2.25234375 Z" id="Combined-Shape"></path>
                <path d="M1.63682048,10.5128906 C1.60952406,10.7589856 1.54674325,10.9298823 1.44847616,11.0255859 C1.35020906,11.1212895 1.19462183,11.1691406 0.981709798,11.1691406 C0.752419915,11.1691406 0.581819882,11.1021491 0.469904582,10.9681641 C0.357989281,10.834179 0.293843669,10.6167984 0.27746582,10.3160156 L0.171010335,8.41289062 L0.171010335,8.26523438 C0.171010335,8.00273306 0.221507945,7.81679742 0.322504679,7.70742187 C0.423501414,7.59804633 0.591371846,7.54335938 0.826121012,7.54335938 C1.15367799,7.54335938 1.38842363,7.77851327 1.53036499,8.24882812 C1.59587639,8.48398555 1.6586572,8.66171815 1.71870931,8.78203125 C1.90978421,9.16484566 2.21140507,9.46015521 2.62358093,9.66796875 C3.03575679,9.87578229 3.52844969,9.9796875 4.1016744,9.9796875 C4.8059219,9.9796875 5.37777321,9.81289229 5.81724548,9.47929687 C6.25671776,9.14570146 6.4764506,8.71914322 6.4764506,8.19960938 C6.4764506,7.76757596 6.34133538,7.42031381 6.07110087,7.1578125 C5.80086637,6.89531119 5.40643909,6.72578163 4.88780721,6.64921875 L3.67585246,6.48515625 C2.54578089,6.32656171 1.72144153,6.02851781 1.20280965,5.59101563 C0.684177773,5.15351344 0.424865723,4.53828521 0.424865723,3.7453125 C0.424865723,2.90858957 0.770160189,2.20586222 1.46075948,1.63710938 C2.15135877,1.06835653 3.01254774,0.783984375 4.04435221,0.783984375 C4.34461278,0.783984375 4.66124644,0.823632416 4.9942627,0.902929688 C5.32727895,0.982226959 5.70396383,1.10663978 6.12432861,1.27617188 C6.13524718,1.11757733 6.17892079,1.00820343 6.25535075,0.948046875 C6.33178071,0.887890324 6.46280154,0.8578125 6.64841715,0.8578125 C6.8886256,0.8578125 7.05513124,0.89335902 7.14793905,0.964453125 C7.24074686,1.03554723 7.29806847,1.20507679 7.3199056,1.47304688 L7.43454997,3.1875 L7.43454997,3.26953125 C7.43454997,3.46093846 7.37995796,3.6099604 7.2707723,3.71660156 C7.16158664,3.82324272 7.00872901,3.8765625 6.81219482,3.8765625 C6.52285283,3.8765625 6.29902559,3.67422077 6.14070638,3.26953125 C6.06427642,3.0398426 5.9878476,2.8675787 5.91141764,2.75273438 C5.73126131,2.47929551 5.47194926,2.26875074 5.13347371,2.12109375 C4.79499817,1.97343676 4.4101245,1.89960938 3.97884115,1.89960938 C3.31826791,1.89960938 2.78190141,2.06367023 2.36972555,2.39179688 C1.95754968,2.71992352 1.75146484,3.1492161 1.75146484,3.6796875 C1.75146484,4.09531458 1.90568727,4.4234363 2.21413676,4.6640625 C2.52258625,4.9046887 2.99344234,5.06874956 3.62671916,5.15625 L4.93694051,5.3203125 C5.88685574,5.44609438 6.60201108,5.7373024 7.08242798,6.19394531 C7.56284488,6.65058822 7.80304972,7.26718362 7.80304972,8.04375 C7.80304972,8.96250459 7.46184966,9.69941129 6.77943929,10.2544922 C6.09702892,10.8095731 5.18534235,11.0871094 4.04435221,11.0871094 C3.65128384,11.0871094 3.26095097,11.0406255 2.87334188,10.9476562 C2.48573279,10.854687 2.07356311,10.7097666 1.63682048,10.5128906 Z" id="Path"></path>
            </g>
            <g id="THE-SHOP" transform="translate(19.000000, 0.000000)">
                <path d="M72.9032258,17.2668336 C70.9579916,19.0747501 68.3860211,20.1132075 65.6451613,20.1132075 C62.9565107,20.1132075 60.4252149,19.1151582 58.483871,17.3552381 C56.5425271,19.1151582 54.0112312,20.1132075 51.3225806,20.1132075 C48.63393,20.1132075 46.1026342,19.1151582 44.1612903,17.3552381 C42.2199464,19.1151582 39.6886506,20.1132075 37,20.1132075 C34.3113494,20.1132075 31.7800536,19.1151582 29.8387097,17.3552381 C27.8973658,19.1151582 25.36607,20.1132075 22.6774194,20.1132075 C19.9887688,20.1132075 17.4574729,19.1151582 15.516129,17.3552381 C13.5747851,19.1151582 11.0434893,20.1132075 8.35483871,20.1132075 C5.61397894,20.1132075 3.04200844,19.0747501 1.09677419,17.2668336 L1.09677419,61.4125702 C1.09677419,61.6864144 1.31853943,61.9056604 1.59828194,61.9056604 L72.4017181,61.9056604 C72.6809821,61.9056604 72.9032258,61.6849294 72.9032258,61.4125702 L72.9032258,17.2668336 Z M7.25806452,24.1749585 C7.25806452,23.3522307 7.93237731,22.6792453 8.74862265,22.6792453 L65.2513773,22.6792453 C66.0730902,22.6792453 66.7419355,23.3552559 66.7419355,24.1749585 L66.7419355,54.2778717 C66.7419355,55.1005995 66.0676227,55.7735849 65.2513773,55.7735849 L8.74862265,55.7735849 C7.92690984,55.7735849 7.25806452,55.0975743 7.25806452,54.2778717 L7.25806452,24.1749585 Z" id="Combined-Shape" stroke="#FFFFFF"></path>
                <g id="AWNING" stroke="#FFFFFF">
                    <polygon id="Path-3" stroke-linejoin="round" points="29.2419355 6.53773585 44.7580645 6.53773585 41.1774194 0.594339623 32.8225806 0.594339623"></polygon>
                    <polygon id="Path-4-Copy" stroke-linejoin="round" transform="translate(11.338710, 3.566038) scale(-1, 1) translate(-11.338710, -3.566038) " points="1.19354839 0.594339623 5.96774194 6.53773585 21.483871 6.53773585 14.3225806 0.594339623"></polygon>
                    <polygon id="Path-4-Copy-2" stroke-linejoin="round" points="52.516129 0.594339623 57.2903226 6.53773585 72.8064516 6.53773585 65.6451613 0.594339623"></polygon>
                    <path d="M65.6451613,17.2358491 C69.929822,17.2358491 73.4032258,13.7766152 73.4032258,9.50943396 L73.4032258,8.91509434 L57.8870968,8.91509434 L57.8870968,9.50943396 C57.8870968,13.7766152 61.3605006,17.2358491 65.6451613,17.2358491 Z" id="Oval-3-Copy-10" stroke-linejoin="round"></path>
                    <path d="M16.1129032,8.91509434 L16.1129032,9.50943396 C16.1129032,13.1201258 19.0519372,16.0471698 22.6774194,16.0471698 C26.3029015,16.0471698 29.2419355,13.1201258 29.2419355,9.50943396 C29.2419355,9.35472107 29.2419355,9.1286503 29.2419355,8.91509434 L30.4354839,8.91509434 L30.4354839,9.50943396 C30.4354839,13.7766152 26.9620801,17.2358491 22.6774194,17.2358491 C18.3927586,17.2358491 14.9193548,13.7766152 14.9193548,9.50943396 L14.9193548,8.91509434 L16.1129032,8.91509434 Z" id="Combined-Shape-Copy-5"></path>
                    <path d="M37,17.2358491 C41.2846607,17.2358491 44.7580645,13.7766152 44.7580645,9.50943396 L44.7580645,8.91509434 L29.2419355,8.91509434 L29.2419355,9.50943396 C29.2419355,13.7766152 32.7153393,17.2358491 37,17.2358491 Z" id="Oval-3-Copy-5"></path>
                    <path d="M44.7580645,8.91509434 L44.7580645,9.50943396 C44.7580645,13.1201258 47.6970985,16.0471698 51.3225806,16.0471698 C54.9480628,16.0471698 57.8870968,13.1201258 57.8870968,9.50943396 C57.8870968,9.35472107 57.8870968,9.1286503 57.8870968,8.91509434 L59.0806452,8.91509434 L59.0806452,9.50943396 C59.0806452,13.7766152 55.6072414,17.2358491 51.3225806,17.2358491 C47.0379199,17.2358491 43.5645161,13.7766152 43.5645161,9.50943396 L43.5645161,8.91509434 L44.7580645,8.91509434 Z" id="Combined-Shape-Copy-4"></path>
                    <path d="M8.35483871,17.2358491 C12.6394994,17.2358491 16.1129032,13.7766152 16.1129032,9.50943396 L16.1129032,8.91509434 L0.596774194,8.91509434 L0.596774194,9.50943396 C0.596774194,13.7766152 4.07017799,17.2358491 8.35483871,17.2358491 Z" id="Oval-3-Copy-6" stroke-linejoin="round"></path>
                </g>
                <g id="$$B" transform="translate(13.129032, 28.528302)">
                    <path d="M27.1905242,2.97982385 C27.318738,2.70741683 27.4640449,2.52013981 27.6264491,2.41798718 C27.7888533,2.31583454 28.0367297,2.26475899 28.3700857,2.26475899 C28.8658459,2.26475899 29.1842388,2.35626935 29.3252741,2.53929282 C29.4663093,2.72231629 29.5453733,3.08622959 29.5624685,3.63104363 L29.6137538,6.08269458 L29.6137538,6.22315374 C29.6137538,6.72540419 29.5133211,7.0765486 29.3124527,7.27659751 C29.1115844,7.47664642 28.7718228,7.57666937 28.2931578,7.57666937 C27.6862789,7.57666937 27.2332634,7.25319088 26.9340978,6.6062242 C26.8913598,6.51258429 26.85717,6.43597096 26.8315272,6.37638193 C26.5665519,5.84859332 26.2075585,5.45062966 25.7545363,5.18247899 C25.301514,4.91432833 24.7672977,4.78025501 24.1518712,4.78025501 C23.3825881,4.78025501 22.7607603,4.95689129 22.2863691,5.31016915 C21.8119778,5.66344701 21.5747858,6.11674252 21.5747858,6.67006928 C21.5747858,7.45323947 22.6603134,8.07040237 24.8314012,8.5215765 C25.1989476,8.59819098 25.4895613,8.65777912 25.703251,8.70034272 C27.3443882,9.05787694 28.5324854,9.60268281 29.2675781,10.3347767 C30.0026708,11.0668706 30.3702117,12.0671001 30.3702117,13.3354953 C30.3702117,14.9018357 29.8359953,16.1084955 28.7675466,16.9555111 C27.6990979,17.8025267 26.1691023,18.2260282 24.1775139,18.2260282 C23.3996832,18.2260282 22.7052019,18.1749526 22.0940493,18.0728 C21.4828966,17.9706473 20.8909849,17.8131644 20.3182964,17.6003464 C20.1815349,17.8216771 20.0234069,17.9812882 19.8439075,18.0791845 C19.6644081,18.1770808 19.4165317,18.2260282 19.1002709,18.2260282 C18.5617728,18.2260282 18.1856845,18.1238771 17.9719947,17.9195718 C17.758305,17.7152665 17.647188,17.3534814 17.6386404,16.8342055 L17.5873551,13.8334869 L17.5873551,13.6930277 C17.5873551,13.1311882 17.6920615,12.739609 17.9014774,12.5182783 C18.1108934,12.2969476 18.4762974,12.1862839 18.9977004,12.1862839 C19.5532937,12.1862839 20.0191303,12.5863757 20.3952243,13.3865713 C20.4807002,13.5823639 20.5490799,13.7313342 20.6003654,13.8334869 C20.9337214,14.4889663 21.3974212,14.9784403 21.9914787,15.3019236 C22.5855362,15.625407 23.3142073,15.7871462 24.1775139,15.7871462 C24.9638921,15.7871462 25.5750356,15.625407 26.0109627,15.3019236 C26.4468898,14.9784403 26.6648501,14.5230166 26.6648501,13.935639 C26.6648501,13.024778 25.6776182,12.3352581 23.703125,11.8670585 C23.1133413,11.730855 22.6475046,11.615935 22.3056011,11.5222951 C20.6473686,11.0881464 19.4977351,10.5454687 18.8566658,9.89424565 C18.2155966,9.24302261 17.8950668,8.35132863 17.8950668,7.21913694 C17.8950668,5.76346191 18.4442412,4.57382722 19.5426065,3.65019716 C20.6409718,2.72656709 22.0619872,2.26475899 23.8056956,2.26475899 C24.3869317,2.26475899 24.9574747,2.32434713 25.5173419,2.44352521 C26.077209,2.56270328 26.6349309,2.74146771 27.1905242,2.97982385 Z" id="Path"></path>
                    <path d="M23.8709677,3.56603774 L23.8709677,0.594339623" id="Path-4" stroke="#FFFFFF" stroke-width="2" stroke-linecap="round"></path>
                    <path d="M23.8709677,20.2075472 L23.8709677,17.2358491" id="Path-4-Copy-3" stroke="#FFFFFF" stroke-width="2" stroke-linecap="round"></path>
                    <path d="M10.4808468,2.97982385 C10.6090606,2.70741683 10.7543675,2.52013981 10.9167717,2.41798718 C11.0791759,2.31583454 11.3270523,2.26475899 11.6604083,2.26475899 C12.1561685,2.26475899 12.4745614,2.35626935 12.6155966,2.53929282 C12.7566319,2.72231629 12.8356959,3.08622959 12.8527911,3.63104363 L12.9040764,6.08269458 L12.9040764,6.22315374 C12.9040764,6.72540419 12.8036437,7.0765486 12.6027753,7.27659751 C12.401907,7.47664642 12.0621454,7.57666937 11.5834803,7.57666937 C10.9766015,7.57666937 10.523586,7.25319088 10.2244204,6.6062242 C10.1816824,6.51258429 10.1474926,6.43597096 10.1218498,6.37638193 C9.85687452,5.84859332 9.49788113,5.45062966 9.04485887,5.18247899 C8.59183661,4.91432833 8.05762026,4.78025501 7.4421938,4.78025501 C6.67291072,4.78025501 6.05108289,4.95689129 5.57669166,5.31016915 C5.10230043,5.66344701 4.86510837,6.11674252 4.86510837,6.67006928 C4.86510837,7.45323947 5.95063599,8.07040237 8.12172379,8.5215765 C8.48927015,8.59819098 8.77988384,8.65777912 8.99357359,8.70034272 C10.6347108,9.05787694 11.822808,9.60268281 12.5579007,10.3347767 C13.2929934,11.0668706 13.6605343,12.0671001 13.6605343,13.3354953 C13.6605343,14.9018357 13.1263179,16.1084955 12.0578692,16.9555111 C10.9894205,17.8025267 9.45942486,18.2260282 7.46783644,18.2260282 C6.69000577,18.2260282 5.99552452,18.1749526 5.38437185,18.0728 C4.77321918,17.9706473 4.18130747,17.8131644 3.60861895,17.6003464 C3.47185752,17.8216771 3.31372948,17.9812882 3.13423009,18.0791845 C2.95473071,18.1770808 2.70685432,18.2260282 2.3905935,18.2260282 C1.85209534,18.2260282 1.47600703,18.1238771 1.26231729,17.9195718 C1.04862754,17.7152665 0.937510543,17.3534814 0.928962954,16.8342055 L0.877677671,13.8334869 L0.877677671,13.6930277 C0.877677671,13.1311882 0.982384076,12.739609 1.19180003,12.5182783 C1.40121597,12.2969476 1.76661996,12.1862839 2.28802293,12.1862839 C2.84361627,12.1862839 3.30945292,12.5863757 3.68554688,13.3865713 C3.77102277,13.5823639 3.83940247,13.7313342 3.890688,13.8334869 C4.22404401,14.4889663 4.6877438,14.9784403 5.28180129,15.3019236 C5.87585878,15.625407 6.60452987,15.7871462 7.46783644,15.7871462 C8.2542147,15.7871462 8.8653582,15.625407 9.30128528,15.3019236 C9.73721236,14.9784403 9.95517263,14.5230166 9.95517263,13.935639 C9.95517263,13.024778 8.96794082,12.3352581 6.99344758,11.8670585 C6.40366389,11.730855 5.93782723,11.615935 5.59592364,11.5222951 C3.93769122,11.0881464 2.78805764,10.5454687 2.14698841,9.89424565 C1.50591917,9.24302261 1.18538936,8.35132863 1.18538936,7.21913694 C1.18538936,5.76346191 1.73456377,4.57382722 2.83292906,3.65019716 C3.93129434,2.72656709 5.35230983,2.26475899 7.09601815,2.26475899 C7.67725425,2.26475899 8.24779731,2.32434713 8.80766444,2.44352521 C9.36753157,2.56270328 9.92525344,2.74146771 10.4808468,2.97982385 Z" id="Path"></path>
                    <path d="M7.16129032,3.56603774 L7.16129032,0.594339623" id="Path-4" stroke="#FFFFFF" stroke-width="2" stroke-linecap="round"></path>
                    <path d="M7.16129032,20.2075472 L7.16129032,17.2358491" id="Path-4-Copy-3" stroke="#FFFFFF" stroke-width="2" stroke-linecap="round"></path>
                    <path d="M38.9465096,11.2158387 L38.9465096,15.1103884 L40.8697077,15.1103884 C42.2287744,15.1103884 43.1860901,14.9614181 43.7416835,14.6634729 C44.2972768,14.3655277 44.5750693,13.8675411 44.5750693,13.1694981 C44.5750693,12.4629424 44.310098,11.9606995 43.7801474,11.6627543 C43.2501969,11.3648091 42.3227973,11.2158387 40.9979209,11.2158387 L38.9465096,11.2158387 Z M45.4853831,9.79847804 C46.4170704,10.1389868 47.1008673,10.6050512 47.5367944,11.1966852 C47.9727214,11.7883192 48.1906817,12.5438117 48.1906817,13.4631854 C48.1906817,14.2378429 48.0026375,14.944388 47.6265436,15.582842 C47.2504496,16.2212959 46.7119596,16.7448203 46.0110572,17.1534309 C45.6007729,17.391787 45.1413468,17.564167 44.6327652,17.670576 C44.1241837,17.776985 43.40406,17.8301887 42.4723727,17.8301887 L35.7796434,17.8301887 C35.2155025,17.8301887 34.8116349,17.719525 34.5680286,17.4981943 C34.3244223,17.2768636 34.202621,16.9150784 34.202621,16.412828 C34.202621,15.9616538 34.3180117,15.619022 34.5487966,15.3849222 C34.7795815,15.1508225 35.1172063,15.0337743 35.5616809,15.0337743 L35.7796434,15.0337743 L35.7796434,5.50808889 L35.5616809,5.50808889 C35.1172063,5.50808889 34.7795815,5.3889126 34.5487966,5.15055646 C34.3180117,4.91220031 34.202621,4.56318405 34.202621,4.1034972 C34.202621,3.60975947 34.3265592,3.25010247 34.5744393,3.0245154 C34.8223194,2.79892834 35.2240501,2.6861365 35.7796434,2.6861365 L41.6774509,2.6861365 C43.4809923,2.6861365 44.850723,3.03515276 45.7866841,3.73319575 C46.7226452,4.43123875 47.1906187,5.45274976 47.1906187,6.79775943 C47.1906187,7.46175155 47.0474487,8.04699223 46.7611045,8.55349904 C46.4747602,9.06000585 46.049524,9.4749947 45.4853831,9.79847804 Z M38.9465096,5.43147479 L38.9465096,8.64926666 L40.6773879,8.64926666 C41.7287414,8.64926666 42.4702337,8.52583408 42.901887,8.27896521 C43.3335403,8.03209635 43.5493637,7.61497935 43.5493637,7.02760171 C43.5493637,6.47427495 43.3549089,6.06992684 42.9659936,5.81454525 C42.5770782,5.55916367 41.9467029,5.43147479 41.0748488,5.43147479 L38.9465096,5.43147479 Z" id="SSB"></path>
                    <path d="M40.5806452,3.56603774 L40.5806452,0.594339623" id="Path-4-Copy-7" stroke="#FFFFFF" stroke-width="2" stroke-linecap="round"></path>
                    <path d="M40.5806452,20.2075472 L40.5806452,17.2358491" id="Path-4-Copy-6" stroke="#FFFFFF" stroke-width="2" stroke-linecap="round"></path>
                </g>
            </g>
        </g>
    </g>
</svg>