<?xml version="1.0" encoding="UTF-8"?>
<svg width="50px" height="50px" viewBox="0 0 50 50" version="1.1" xmlns="http://www.w3.org/2000/svg" xmlns:xlink="http://www.w3.org/1999/xlink">
    <!-- Generator: Sketch 57.1 (83088) - https://sketch.com -->
    <title>ui-box</title>
    <desc>Created with Sketch.</desc>
    <g id="Page-1" stroke="none" stroke-width="1" fill="none" fill-rule="evenodd">
        <g id="ui-box">
            <rect id="Rectangle" fill="#FF009B" x="0" y="0" width="50" height="50"></rect>
            <path d="M36.8298125,15 C39.0348125,15 40.6110625,12.71375 39.7704375,10.65875 C38.9441875,8.638125 36.1504375,8.0925 34.6223125,9.64875 C32.7366875,11.569375 34.1079375,15 36.8298125,15" id="dot" fill="#FFF800"></path>
            <path d="M31.4984375,16.875 L30.6303125,20.7325 L33.0290625,20.7325 L30.6646875,31.006875 L28.6990625,31.006875 L28.6740625,31.006875 L26.3009375,31.006875 L29.5496875,16.875 L21.6390625,16.875 L20.7203125,20.7325 L23.1703125,20.7325 L21.3496875,28.583125 C20.7934375,29.701875 19.4884375,30.33875 18.3215625,30.596875 C17.9071875,30.689375 17.4253125,30.765 17.0584375,30.493125 C16.4640625,30.054375 16.5778125,29.0675 16.7153125,28.446875 L19.4034375,16.875 L11.5265625,16.875 L10.6253125,20.7325 L13.0234375,20.7325 L11.3565625,27.935 C10.8853125,29.925625 10.3334375,32.30125 11.9778125,33.9 C14.5596875,36.41125 18.1409375,34.05125 20.4821875,32.475 L19.9209375,34.813125 L27.8403125,34.813125 L28.4196875,34.813125 L37.6740625,34.813125 L38.5415625,31.006875 L36.1428125,31.006875 L39.3753125,16.875 L31.4984375,16.875 Z" id="ui" fill="#FFFFFF"></path>
        </g>
    </g>
</svg>