<?xml version="1.0" encoding="UTF-8"?>
<svg width="50px" height="50px" viewBox="0 0 50 50" version="1.1" xmlns="http://www.w3.org/2000/svg" xmlns:xlink="http://www.w3.org/1999/xlink">
    <!-- Generator: Sketch 56.2 (81672) - https://sketch.com -->
    <title>Artboard</title>
    <desc>Created with Sketch.</desc>
    <g id="Artboard" stroke="none" stroke-width="1" fill="none" fill-rule="evenodd">
        <rect fill="#FF009B" x="0" y="0" width="50" height="50"></rect>
        <path d="M31.7809998,17 L30.8753517,21.0437067 L33.3787059,21.0437067 L30.9110582,31.8144924 L28.8602034,31.8144924 L28.834235,31.8144924 L26.3574984,31.8144924 L29.7476737,17 L21.4929669,17 L20.5347327,21.0437067 L23.090673,21.0437067 L21.1910842,29.2737621 C20.6100411,30.4469605 19.2486475,31.1130598 18.0307293,31.3839488 C17.5990045,31.4807884 17.0958667,31.5599613 16.7128327,31.2753315 C16.092837,30.8146892 16.2122917,29.7808612 16.3551179,29.1304657 L19.1603549,17 L10.9407055,17 L10,21.0437067 L12.5033543,21.0437067 L10.7634711,28.5939221 C10.2713698,30.6798989 9.69552045,33.1702465 11.4113828,34.8466181 C14.1056048,37.4796076 17.8431076,35.0062725 20.2860853,33.3528021 L19.7004977,35.8038904 L27.9642934,35.8038904 L28.5687081,35.8038904 L38.2250595,35.8038904 L39.1300584,31.8144924 L36.6273534,31.8144924 L40,17 L31.7809998,17 Z" id="Combined-Shape" fill="#FFFFFF"></path>
        <path d="M36.9562936,16 C39.0738161,16 40.5863323,13.8050339 39.7794487,11.8322481 C38.9863152,9.89253965 36.3044117,9.36891823 34.836896,10.8636421 C33.0275018,12.7072388 34.3431408,16 36.9562936,16" id="Fill-1" fill="#FFF800"></path>
    </g>
</svg>