<?xml version="1.0" encoding="UTF-8"?>
<svg width="47px" height="42px" viewBox="0 0 47 42" version="1.1" xmlns="http://www.w3.org/2000/svg" xmlns:xlink="http://www.w3.org/1999/xlink">
    <!-- Generator: Sketch 57.1 (83088) - https://sketch.com -->
    <title>ui-works</title>
    <desc>Created with Sketch.</desc>
    <g id="Page-1" stroke="none" stroke-width="1" fill="none" fill-rule="evenodd">
        <g id="ui-works">
            <path d="M41.9277,10 C45.4557,10 47.9777,6.342 46.6327,3.054 C45.3107,-0.179 40.8407,-1.052 38.3957,1.438 C35.3787,4.511 37.5727,10 41.9277,10" id="dot" fill="#FFF800"></path>
            <path d="M33.3975,13 L32.0085,19.172 L35.8465,19.172 L32.0635,35.611 L28.9185,35.611 L28.8785,35.611 L25.0815,35.611 L30.2795,13 L17.6225,13 L16.1525,19.172 L20.0725,19.172 L17.1595,31.733 C16.2695,33.523 14.1815,34.542 12.3145,34.955 C11.6515,35.103 10.8805,35.224 10.2935,34.789 C9.3425,34.087 9.5245,32.508 9.7445,31.515 L14.0455,13 L1.4425,13 L0.0005,19.172 L3.8375,19.172 L1.1705,30.696 C0.4165,33.881 -0.4665,37.682 2.1645,40.24 C6.2955,44.258 12.0255,40.482 15.7715,37.96 L14.8735,41.701 L27.5445,41.701 L28.4715,41.701 L43.2785,41.701 L44.6665,35.611 L40.8285,35.611 L46.0005,13 L33.3975,13 Z" id="ui" fill="#FFFFFF"></path>
        </g>
    </g>
</svg>