<?xml version="1.0" encoding="UTF-8"?>
<svg width="46px" height="40px" viewBox="0 0 46 40" version="1.1" xmlns="http://www.w3.org/2000/svg" xmlns:xlink="http://www.w3.org/1999/xlink">
    <!-- Generator: Sketch 56.2 (81672) - https://sketch.com -->
    <title>UIW Master Copy 2</title>
    <desc>Created with Sketch.</desc>
    <g id="UIW-Master-Copy-2" stroke="none" stroke-width="1" fill="none" fill-rule="evenodd">
        <path d="M33.2605046,11.1700274 L31.8775418,17.3058144 L35.7002692,17.3058144 L31.9320672,33.6490489 L28.8003255,33.6490489 L28.7606706,33.6490489 L24.9785894,33.6490489 L30.1555299,11.1700274 L17.5502448,11.1700274 L16.0869809,17.3058144 L19.9900094,17.3058144 L17.0892572,29.7938287 C16.2019799,31.5740012 14.1230745,32.5847182 12.2632621,32.9957564 C11.6040002,33.1426976 10.8356875,33.2628319 10.2507785,32.830944 C9.30401895,32.1319806 9.48643126,30.5632842 9.70453293,29.5763955 L13.988248,11.1700274 L1.43649691,11.1700274 L0,17.3058144 L3.82272745,17.3058144 L1.16585256,28.762262 C0.414393172,31.9274543 -0.464953105,35.7062254 2.15524104,38.2498963 C6.26943163,42.2451078 11.9767558,38.4921507 15.7072857,35.9832294 L14.8130689,39.7024297 L27.4322332,39.7024297 L28.3551998,39.7024297 L43.1008554,39.7024297 L44.4828269,33.6490489 L40.6610908,33.6490489 L45.8112643,11.1700274 L33.2605046,11.1700274 Z" id="Combined-Shape" fill="#FFFFFF"></path>
        <path d="M41.1721427,9.54503672 C44.5309084,9.54503672 46.9300268,6.05319808 45.6501665,2.91481255 C44.3921164,-0.170952166 40.1381425,-1.00394978 37.8104029,1.37391588 C34.9403832,4.30678234 37.0272196,9.54503672 41.1721427,9.54503672" id="Fill-1" fill="#FFF800"></path>
        <g id="Artboard-Copy-24_Isometric" transform="translate(23.000000, -21.000000)"></g>
    </g>
</svg>